<svg class="main-svg" xmlns="http://www.w3.org/2000/svg" xmlns:xlink="http://www.w3.org/1999/xlink" width="1875" height="351" style="--darkreader-inline-bgcolor: #181a1b; --darkreader-inline-bgimage: none;" data-darkreader-inline-bgcolor="" data-darkreader-inline-bgimage="" viewBox="0 0 1875 351"><rect x="0" y="0" width="1875" height="351" style="fill: rgb(255, 255, 255); fill-opacity: 1;"/><defs id="defs-69ba69"><g class="clips"><clipPath id="clip69ba69xyplot" class="plotclip"><rect width="1605" height="231"/></clipPath><clipPath class="axesclip" id="clip69ba69x"><rect x="60" y="0" width="1605" height="351"/></clipPath><clipPath class="axesclip" id="clip69ba69y"><rect x="0" y="60" width="1875" height="231"/></clipPath><clipPath class="axesclip" id="clip69ba69xy"><rect x="60" y="60" width="1605" height="231"/></clipPath></g><g class="gradients"/><g class="patterns"/></defs><g class="bglayer"/><g class="layer-below"><g class="imagelayer"/><g class="shapelayer"/></g><g class="cartesianlayer"><g class="subplot xy"><g class="layer-subplot"><g class="shapelayer"/><g class="imagelayer"/></g><g class="gridlayer"><g class="x"><path class="xgrid crisp" transform="translate(220.5,0)" d="M0,60v231" style="stroke: rgb(238, 238, 238); stroke-opacity: 1; stroke-width: 1px; --darkreader-inline-stroke: #dddad6;" data-darkreader-inline-stroke=""/><path class="xgrid crisp" transform="translate(381,0)" d="M0,60v231" style="stroke: rgb(238, 238, 238); stroke-opacity: 1; stroke-width: 1px; --darkreader-inline-stroke: #dddad6;" data-darkreader-inline-stroke=""/><path class="xgrid crisp" transform="translate(541.5,0)" d="M0,60v231" style="stroke: rgb(238, 238, 238); stroke-opacity: 1; stroke-width: 1px; --darkreader-inline-stroke: #dddad6;" data-darkreader-inline-stroke=""/><path class="xgrid crisp" transform="translate(702,0)" d="M0,60v231" style="stroke: rgb(238, 238, 238); stroke-opacity: 1; stroke-width: 1px; --darkreader-inline-stroke: #dddad6;" data-darkreader-inline-stroke=""/><path class="xgrid crisp" transform="translate(862.5,0)" d="M0,60v231" style="stroke: rgb(238, 238, 238); stroke-opacity: 1; stroke-width: 1px; --darkreader-inline-stroke: #dddad6;" data-darkreader-inline-stroke=""/><path class="xgrid crisp" transform="translate(1023,0)" d="M0,60v231" style="stroke: rgb(238, 238, 238); stroke-opacity: 1; stroke-width: 1px; --darkreader-inline-stroke: #dddad6;" data-darkreader-inline-stroke=""/><path class="xgrid crisp" transform="translate(1183.5,0)" d="M0,60v231" style="stroke: rgb(238, 238, 238); stroke-opacity: 1; stroke-width: 1px; --darkreader-inline-stroke: #dddad6;" data-darkreader-inline-stroke=""/><path class="xgrid crisp" transform="translate(1344,0)" d="M0,60v231" style="stroke: rgb(238, 238, 238); stroke-opacity: 1; stroke-width: 1px; --darkreader-inline-stroke: #dddad6;" data-darkreader-inline-stroke=""/><path class="xgrid crisp" transform="translate(1504.5,0)" d="M0,60v231" style="stroke: rgb(238, 238, 238); stroke-opacity: 1; stroke-width: 1px; --darkreader-inline-stroke: #dddad6;" data-darkreader-inline-stroke=""/></g><g class="y"><path class="ygrid crisp" transform="translate(0,237.87)" d="M60,0h1605" style="stroke: rgb(238, 238, 238); stroke-opacity: 1; stroke-width: 1px; --darkreader-inline-stroke: #dddad6;" data-darkreader-inline-stroke=""/><path class="ygrid crisp" transform="translate(0,196.29)" d="M60,0h1605" style="stroke: rgb(238, 238, 238); stroke-opacity: 1; stroke-width: 1px; --darkreader-inline-stroke: #dddad6;" data-darkreader-inline-stroke=""/><path class="ygrid crisp" transform="translate(0,154.70999999999998)" d="M60,0h1605" style="stroke: rgb(238, 238, 238); stroke-opacity: 1; stroke-width: 1px; --darkreader-inline-stroke: #dddad6;" data-darkreader-inline-stroke=""/><path class="ygrid crisp" transform="translate(0,113.13)" d="M60,0h1605" style="stroke: rgb(238, 238, 238); stroke-opacity: 1; stroke-width: 1px; --darkreader-inline-stroke: #dddad6;" data-darkreader-inline-stroke=""/><path class="ygrid crisp" transform="translate(0,71.55)" d="M60,0h1605" style="stroke: rgb(238, 238, 238); stroke-opacity: 1; stroke-width: 1px; --darkreader-inline-stroke: #dddad6;" data-darkreader-inline-stroke=""/></g></g><g class="zerolinelayer"><path class="xzl zl crisp" transform="translate(60,0)" d="M0,60v231" style="stroke: rgb(68, 68, 68); stroke-opacity: 1; stroke-width: 1px; --darkreader-inline-stroke: #bdb7af;" data-darkreader-inline-stroke=""/><path class="yzl zl crisp" transform="translate(0,279.45)" d="M60,0h1605" style="stroke: rgb(68, 68, 68); stroke-opacity: 1; stroke-width: 1px; --darkreader-inline-stroke: #bdb7af;" data-darkreader-inline-stroke=""/></g><path class="xlines-below"/><path class="ylines-below"/><g class="overlines-below"/><g class="xaxislayer-below"/><g class="yaxislayer-below"/><g class="overaxes-below"/><g class="plot" transform="translate(60,60)" clip-path="url(#clip69ba69xyplot)"><g class="scatterlayer mlayer"><g class="trace scatter tracea74a42" style="stroke-miterlimit: 2; opacity: 1;"><g class="fills"/><g class="errorbars"/><g class="lines"><path class="js-line" style="vector-effect: non-scaling-stroke; fill: none; stroke: rgb(31, 119, 180); stroke-opacity: 1; stroke-width: 2px; opacity: 1; --darkreader-inline-fill: none; --darkreader-inline-stroke: #55a8e2;" d="M0,219.45L3.21,208.51L6.42,210.7L9.63,209.05L12.84,204.68L16.05,201.4L19.26,194.83L22.47,190.45L25.68,179.51L28.89,163.1L32.1,152.7L35.31,127.54L38.52,142.31L41.73,123.16L44.94,123.16L48.15,104.56L51.36,96.9L54.57,107.84L57.78,87.6L60.99,110.03L64.2,105.65L67.41,82.13L70.62,66.81L73.83,96.35L77.04,104.01L80.25,78.3L83.46,78.84L86.67,79.39L89.88,88.14L93.09,65.17L96.3,69.54L99.51,93.07L102.72,63.53L105.93,53.68L109.14,66.81L112.35,54.77L115.56,61.88L118.77,66.26L121.98,40.55L125.19,79.39L128.4,53.68L131.61,69.54L134.82,42.74L138.03,48.21L141.24,64.07L144.45,38.91L147.66,69.54L150.87,44.38L154.08,58.05L157.29,54.22L160.5,78.3L163.71,70.64L166.92,71.73L170.13,52.04L173.34,64.62L176.55,51.49L179.76,29.06L182.97,40L186.18,58.05L189.39,40.55L192.6,42.19L195.81,50.94L199.02,57.51L205.44,49.3L208.65,49.85L211.86,65.71L215.07,42.74L218.28,44.38L221.49,40.55L224.7,47.66L227.91,48.21L231.12,50.94L234.33,41.64L237.54,64.07L240.75,52.58L243.96,46.56L247.17,27.96L250.38,32.89L253.59,42.74L256.8,42.74L260.01,41.64L263.22,37.26L266.43,53.68L269.64,54.22L272.85,31.25L276.06,48.21L279.27,33.43L282.48,53.13L285.69,29.6L288.9,26.87L292.11,43.83L295.32,26.87L298.53,65.17L304.95,25.77L308.16,37.81L311.37,64.62L314.58,27.42L317.79,25.23L321,48.21L324.21,45.47L327.42,25.23L330.63,44.92L333.84,36.72L337.05,76.11L340.26,44.38L343.47,31.25L346.68,43.83L349.89,48.75L353.1,33.43L356.31,23.04L359.52,29.6L362.73,37.81L365.94,25.77L369.15,52.58L372.36,40L381.99,16.47L385.2,37.26L388.41,31.79L391.62,32.89L394.83,23.04L398.04,35.62L401.25,41.09L404.46,42.19L407.67,35.08L410.88,33.98L414.09,50.39L417.3,29.06L420.51,26.32L423.72,42.19L426.93,40.55L430.14,34.53L433.35,36.72L436.56,18.12L439.77,35.08L442.98,30.7L446.19,26.87L449.4,38.91L452.61,34.53L455.82,33.43L459.03,35.08L462.24,27.42L465.45,49.85L468.66,32.34L475.08,42.19L478.29,38.91L481.5,39.45L484.71,37.81L487.92,31.25L491.13,34.53L494.34,17.02L497.55,26.32L500.76,19.21L503.97,21.4L507.18,27.42L510.39,17.57L513.6,32.34L516.81,22.49L520.02,23.04L523.23,35.08L526.44,40.55L529.65,30.15L532.86,30.7L536.07,36.72L542.49,36.17L545.7,29.06L548.91,32.89L552.12,26.87L555.33,30.15L558.54,32.34L561.75,48.21L564.96,18.12L568.17,31.79L571.38,37.26L574.59,50.94L577.8,35.08L581.01,44.38L584.22,38.36L587.43,56.96L590.64,29.06L593.85,32.89L597.06,32.89L600.27,33.98L603.48,14.29L606.69,34.53L609.9,49.3L613.11,24.13L616.32,42.74L619.53,17.57L622.74,23.59L625.95,22.49L629.16,31.25L632.37,17.57L635.58,38.91L638.79,17.02L642,24.13L645.21,35.62L648.42,37.26L654.84,18.66L658.05,37.26L661.26,30.7L664.47,59.15L667.68,29.06L670.89,25.23L674.1,65.71L677.31,48.21L680.52,35.08L683.73,13.74L686.94,25.23L690.15,22.49L693.36,15.93L696.57,27.42L699.78,26.32L702.99,37.81L706.2,18.66L709.41,25.77L712.62,22.49L715.83,46.02L719.04,22.49L722.25,41.64L725.46,20.3L728.67,34.53L731.88,23.59L735.09,41.64L738.3,28.51L741.51,19.21L744.72,27.96L747.93,23.04L751.14,29.6L754.35,25.23L757.56,25.77L760.77,37.26L767.19,14.83L770.4,27.42L773.61,59.15L776.82,24.68L780.03,18.66L783.24,15.93L786.45,23.59L789.66,16.47L792.87,26.32L796.08,23.04L799.29,26.87L802.5,16.47L808.92,44.38L812.13,23.04L815.34,24.13L818.55,40.55L821.76,24.13L824.97,21.4L828.18,46.56L831.39,13.74L834.6,31.79L837.81,40L841.02,29.6L844.23,12.1L847.44,26.32L850.65,19.76L857.07,19.76L860.28,29.06L863.49,26.32L866.7,37.81L869.91,15.93L873.12,23.04L876.33,50.39L879.54,20.85L882.75,31.79L885.96,14.29L889.17,29.6L892.38,12.64L895.59,20.85L898.8,23.59L902.01,30.15L905.22,26.32L908.43,35.08L911.64,16.47L914.85,26.87L918.06,21.4L921.27,18.66L924.48,22.49L927.69,31.79L930.9,35.62L934.11,20.85L937.32,37.81L940.53,18.66L943.74,32.34L946.95,21.4L950.16,18.12L953.37,26.32L956.58,26.87L959.79,34.53L963,12.1L966.21,18.12L969.42,17.02L972.63,25.77L975.84,14.29L979.05,25.77L982.26,23.59L985.47,33.43L988.68,20.85L991.89,40L995.1,23.04L998.31,56.41L1001.52,17.57L1004.73,24.68L1007.94,23.59L1011.15,25.77L1014.36,61.88L1017.57,24.68L1020.78,30.15L1023.99,32.34L1027.2,40L1030.41,18.12L1033.62,21.95L1036.83,19.76L1040.04,18.66L1043.25,15.93L1046.46,41.09L1049.67,19.76L1052.88,30.7L1056.09,30.7L1059.3,38.36L1062.51,40L1065.72,21.95L1072.14,13.74L1075.35,31.79L1078.56,12.64L1081.77,16.47L1084.98,20.85L1088.19,20.3L1091.4,36.17L1094.61,29.06L1097.82,21.95L1101.03,27.96L1104.24,20.85L1107.45,25.23L1110.66,21.4L1113.87,29.06L1117.08,45.47L1120.29,13.19L1123.5,14.83L1126.71,33.43L1129.92,25.23L1133.13,32.34L1136.34,38.36L1139.55,35.08L1142.76,33.43L1145.97,16.47L1149.18,15.38L1152.39,12.1L1155.6,42.74L1158.81,31.79L1162.02,23.59L1165.23,32.34L1168.44,14.83L1171.65,30.7L1174.86,19.76L1178.07,32.34L1181.28,24.68L1184.49,36.72L1187.7,19.76L1190.91,23.59L1194.12,21.4L1197.33,17.02L1200.54,11.55L1203.75,48.75L1206.96,12.1L1210.17,15.38L1213.38,18.12L1216.59,15.93L1219.8,31.79L1223.01,23.59L1226.22,29.6L1229.43,21.4L1232.64,18.66L1235.85,29.06L1239.06,30.7L1242.27,24.68L1245.48,27.96L1248.69,23.59L1251.9,31.79L1255.11,12.64L1258.32,29.06L1261.53,14.83L1264.74,21.95L1267.95,48.75L1271.16,24.13L1274.37,25.77L1277.58,13.19L1280.79,14.29L1284,28.51L1287.21,13.19L1290.42,12.64L1293.63,43.28L1296.84,25.23L1300.05,26.32L1309.68,34.53L1312.89,19.21L1316.1,19.21L1319.31,13.74L1322.52,26.87L1325.73,21.95L1328.94,17.02L1332.15,24.13L1335.36,23.04L1338.57,34.53L1341.78,20.85L1344.99,17.57L1348.2,12.64L1351.41,18.66L1354.62,14.29L1357.83,11.55L1361.04,29.6L1364.25,14.29L1367.46,20.3L1370.67,14.29L1373.88,18.12L1377.09,45.47L1380.3,28.51L1383.51,16.47L1386.72,19.21L1389.93,17.02L1393.14,17.02L1396.35,15.93L1399.56,14.29L1402.77,19.76L1405.98,17.02L1409.19,20.85L1412.4,17.02L1415.61,16.47L1418.82,19.21L1422.03,19.76L1425.24,24.68L1428.45,21.4L1431.66,20.85L1434.87,41.64L1438.08,11.55L1441.29,11.55L1444.5,13.19L1447.71,17.02L1450.92,20.3L1454.13,29.06L1457.34,26.87L1460.55,12.1L1463.76,26.32L1466.97,17.57L1470.18,29.6L1473.39,21.4L1479.81,21.95L1483.02,31.79L1486.23,19.76L1489.44,22.49L1492.65,21.95L1495.86,15.93L1499.07,15.38L1502.28,23.59L1505.49,13.74L1508.7,11.55L1511.91,18.66L1515.12,12.1L1518.33,14.29L1521.54,11.55L1524.75,23.59L1527.96,14.83L1531.17,18.66L1534.38,20.3L1537.59,23.04L1540.8,19.76L1544.01,23.04L1547.22,12.1L1550.43,26.32L1553.64,15.38L1556.85,11.55L1560.06,11.55L1563.27,18.66L1566.48,13.74L1569.69,13.19L1572.9,15.93L1576.11,17.57L1579.32,13.74L1582.53,17.02L1585.74,13.74L1588.95,12.64L1592.16,31.79L1595.37,17.02L1598.58,17.57L1601.79,30.7L1605,11.55" data-darkreader-inline-fill="" data-darkreader-inline-stroke=""/></g><g class="points"/><g class="text"/></g></g></g><g class="overplot"/><path class="xlines-above crisp" style="fill: none; --darkreader-inline-fill: none;" d="M0,0" data-darkreader-inline-fill=""/><path class="ylines-above crisp" style="fill: none; --darkreader-inline-fill: none;" d="M0,0" data-darkreader-inline-fill=""/><g class="overlines-above"/><g class="xaxislayer-above"><g class="xtick"><text text-anchor="middle" x="0" y="304" style="font-family: TOBESTRIPPEDOpen SansTOBESTRIPPED, verdana, arial, sans-serif; font-size: 12px; fill: rgb(68, 68, 68); fill-opacity: 1; white-space: pre; opacity: 1; --darkreader-inline-fill: #bdb7af;" transform="translate(60,0)" data-darkreader-inline-fill="">0</text></g><g class="xtick"><text text-anchor="middle" x="0" y="304" style="font-family: TOBESTRIPPEDOpen SansTOBESTRIPPED, verdana, arial, sans-serif; font-size: 12px; fill: rgb(68, 68, 68); fill-opacity: 1; white-space: pre; opacity: 1; --darkreader-inline-fill: #bdb7af;" transform="translate(220.5,0)" data-darkreader-inline-fill="">1k</text></g><g class="xtick"><text text-anchor="middle" x="0" y="304" style="font-family: TOBESTRIPPEDOpen SansTOBESTRIPPED, verdana, arial, sans-serif; font-size: 12px; fill: rgb(68, 68, 68); fill-opacity: 1; white-space: pre; opacity: 1; --darkreader-inline-fill: #bdb7af;" transform="translate(381,0)" data-darkreader-inline-fill="">2k</text></g><g class="xtick"><text text-anchor="middle" x="0" y="304" style="font-family: TOBESTRIPPEDOpen SansTOBESTRIPPED, verdana, arial, sans-serif; font-size: 12px; fill: rgb(68, 68, 68); fill-opacity: 1; white-space: pre; opacity: 1; --darkreader-inline-fill: #bdb7af;" transform="translate(541.5,0)" data-darkreader-inline-fill="">3k</text></g><g class="xtick"><text text-anchor="middle" x="0" y="304" style="font-family: TOBESTRIPPEDOpen SansTOBESTRIPPED, verdana, arial, sans-serif; font-size: 12px; fill: rgb(68, 68, 68); fill-opacity: 1; white-space: pre; opacity: 1; --darkreader-inline-fill: #bdb7af;" transform="translate(702,0)" data-darkreader-inline-fill="">4k</text></g><g class="xtick"><text text-anchor="middle" x="0" y="304" style="font-family: TOBESTRIPPEDOpen SansTOBESTRIPPED, verdana, arial, sans-serif; font-size: 12px; fill: rgb(68, 68, 68); fill-opacity: 1; white-space: pre; opacity: 1; --darkreader-inline-fill: #bdb7af;" transform="translate(862.5,0)" data-darkreader-inline-fill="">5k</text></g><g class="xtick"><text text-anchor="middle" x="0" y="304" style="font-family: TOBESTRIPPEDOpen SansTOBESTRIPPED, verdana, arial, sans-serif; font-size: 12px; fill: rgb(68, 68, 68); fill-opacity: 1; white-space: pre; opacity: 1; --darkreader-inline-fill: #bdb7af;" transform="translate(1023,0)" data-darkreader-inline-fill="">6k</text></g><g class="xtick"><text text-anchor="middle" x="0" y="304" style="font-family: TOBESTRIPPEDOpen SansTOBESTRIPPED, verdana, arial, sans-serif; font-size: 12px; fill: rgb(68, 68, 68); fill-opacity: 1; white-space: pre; opacity: 1; --darkreader-inline-fill: #bdb7af;" transform="translate(1183.5,0)" data-darkreader-inline-fill="">7k</text></g><g class="xtick"><text text-anchor="middle" x="0" y="304" style="font-family: TOBESTRIPPEDOpen SansTOBESTRIPPED, verdana, arial, sans-serif; font-size: 12px; fill: rgb(68, 68, 68); fill-opacity: 1; white-space: pre; opacity: 1; --darkreader-inline-fill: #bdb7af;" transform="translate(1344,0)" data-darkreader-inline-fill="">8k</text></g><g class="xtick"><text text-anchor="middle" x="0" y="304" style="font-family: TOBESTRIPPEDOpen SansTOBESTRIPPED, verdana, arial, sans-serif; font-size: 12px; fill: rgb(68, 68, 68); fill-opacity: 1; white-space: pre; opacity: 1; --darkreader-inline-fill: #bdb7af;" transform="translate(1504.5,0)" data-darkreader-inline-fill="">9k</text></g><g class="xtick"><text text-anchor="middle" x="0" y="304" style="font-family: TOBESTRIPPEDOpen SansTOBESTRIPPED, verdana, arial, sans-serif; font-size: 12px; fill: rgb(68, 68, 68); fill-opacity: 1; white-space: pre; opacity: 1; --darkreader-inline-fill: #bdb7af;" transform="translate(1665,0)" data-darkreader-inline-fill="">10k</text></g></g><g class="yaxislayer-above"><g class="ytick"><text text-anchor="end" x="59" y="4.199999999999999" style="font-family: TOBESTRIPPEDOpen SansTOBESTRIPPED, verdana, arial, sans-serif; font-size: 12px; fill: rgb(68, 68, 68); fill-opacity: 1; white-space: pre; opacity: 1; --darkreader-inline-fill: #bdb7af;" transform="translate(0,279.45)" data-darkreader-inline-fill="">0</text></g><g class="ytick"><text text-anchor="end" x="59" y="4.199999999999999" style="font-family: TOBESTRIPPEDOpen SansTOBESTRIPPED, verdana, arial, sans-serif; font-size: 12px; fill: rgb(68, 68, 68); fill-opacity: 1; white-space: pre; opacity: 1; --darkreader-inline-fill: #bdb7af;" transform="translate(0,237.87)" data-darkreader-inline-fill="">20</text></g><g class="ytick"><text text-anchor="end" x="59" y="4.199999999999999" style="font-family: TOBESTRIPPEDOpen SansTOBESTRIPPED, verdana, arial, sans-serif; font-size: 12px; fill: rgb(68, 68, 68); fill-opacity: 1; white-space: pre; opacity: 1; --darkreader-inline-fill: #bdb7af;" transform="translate(0,196.29)" data-darkreader-inline-fill="">40</text></g><g class="ytick"><text text-anchor="end" x="59" y="4.199999999999999" style="font-family: TOBESTRIPPEDOpen SansTOBESTRIPPED, verdana, arial, sans-serif; font-size: 12px; fill: rgb(68, 68, 68); fill-opacity: 1; white-space: pre; opacity: 1; --darkreader-inline-fill: #bdb7af;" transform="translate(0,154.70999999999998)" data-darkreader-inline-fill="">60</text></g><g class="ytick"><text text-anchor="end" x="59" y="4.199999999999999" style="font-family: TOBESTRIPPEDOpen SansTOBESTRIPPED, verdana, arial, sans-serif; font-size: 12px; fill: rgb(68, 68, 68); fill-opacity: 1; white-space: pre; opacity: 1; --darkreader-inline-fill: #bdb7af;" transform="translate(0,113.13)" data-darkreader-inline-fill="">80</text></g><g class="ytick"><text text-anchor="end" x="59" y="4.199999999999999" style="font-family: TOBESTRIPPEDOpen SansTOBESTRIPPED, verdana, arial, sans-serif; font-size: 12px; fill: rgb(68, 68, 68); fill-opacity: 1; white-space: pre; opacity: 1; --darkreader-inline-fill: #bdb7af;" transform="translate(0,71.55)" data-darkreader-inline-fill="">100</text></g></g><g class="overaxes-above"/></g></g><g class="polarlayer"/><g class="smithlayer"/><g class="ternarylayer"/><g class="geolayer"/><g class="funnelarealayer"/><g class="pielayer"/><g class="iciclelayer"/><g class="treemaplayer"/><g class="sunburstlayer"/><g class="glimages"/><defs id="topdefs-69ba69"><g class="clips"/><clipPath id="legend69ba69"><rect width="166" height="29" x="0" y="0"/></clipPath></defs><g class="layer-above"><g class="imagelayer"/><g class="shapelayer"/></g><g class="infolayer"><g class="legend" pointer-events="all" transform="translate(1697.1000000000001,60)"><rect class="bg" shape-rendering="crispEdges" style="stroke: rgb(68, 68, 68); stroke-opacity: 1; fill: rgb(255, 255, 255); fill-opacity: 1; stroke-width: 0px; --darkreader-inline-stroke: #bdb7af; --darkreader-inline-fill: #e8e6e3;" width="166" height="29" x="0" y="0" data-darkreader-inline-stroke="" data-darkreader-inline-fill=""/><g class="scrollbox" transform="" clip-path="url(#legend69ba69)"><g class="groups"><g class="traces" style="opacity: 1;" transform="translate(0,14.5)"><text class="legendtext" text-anchor="start" style="font-family: TOBESTRIPPEDOpen SansTOBESTRIPPED, verdana, arial, sans-serif; font-size: 12px; fill: rgb(68, 68, 68); fill-opacity: 1; white-space: pre; --darkreader-inline-fill: #bdb7af;" x="40" y="4.680000000000001" data-darkreader-inline-fill="">meta_training_acc</text><g class="layers" style="opacity: 1;"><g class="legendfill"/><g class="legendlines"><path class="js-line" d="M5,0h30" style="fill: none; stroke: rgb(31, 119, 180); stroke-opacity: 1; stroke-width: 2px; --darkreader-inline-fill: none; --darkreader-inline-stroke: #55a8e2;" data-darkreader-inline-fill="" data-darkreader-inline-stroke=""/></g><g class="legendsymbols"><g class="legendpoints"/></g></g><rect class="legendtoggle" style="fill: rgb(0, 0, 0); fill-opacity: 0; --darkreader-inline-fill: #e8e6e3;" x="0" y="-9.5" width="161" height="19" data-darkreader-inline-fill=""/></g></g></g><rect class="scrollbar" rx="20" ry="3" width="0" height="0" style="fill: rgb(128, 139, 164); fill-opacity: 1; --darkreader-inline-fill: #a39b8f;" x="0" y="0" data-darkreader-inline-fill=""/></g><g class="g-gtitle"><text class="gtitle" style="font-family: TOBESTRIPPEDOpen SansTOBESTRIPPED, verdana, arial, sans-serif; font-size: 17px; fill: rgb(68, 68, 68); opacity: 1; font-weight: normal; white-space: pre; --darkreader-inline-fill: #bdb7af;" x="937.5" y="30" text-anchor="middle" dy="0em" data-darkreader-inline-fill="">meta_training_acc</text></g><g class="g-xtitle"/><g class="g-ytitle"/></g></svg>