<svg class="main-svg" xmlns="http://www.w3.org/2000/svg" xmlns:xlink="http://www.w3.org/1999/xlink" width="1887" height="276" style="--darkreader-inline-bgcolor: #181a1b; --darkreader-inline-bgimage: none;" data-darkreader-inline-bgcolor="" data-darkreader-inline-bgimage="" viewBox="0 0 1887 276"><rect x="0" y="0" width="1887" height="276" style="fill: rgb(255, 255, 255); fill-opacity: 1;"/><defs id="defs-70c14d"><g class="clips"><clipPath id="clip70c14dxyplot" class="plotclip"><rect width="1612" height="156"/></clipPath><clipPath class="axesclip" id="clip70c14dx"><rect x="60" y="0" width="1612" height="276"/></clipPath><clipPath class="axesclip" id="clip70c14dy"><rect x="0" y="60" width="1887" height="156"/></clipPath><clipPath class="axesclip" id="clip70c14dxy"><rect x="60" y="60" width="1612" height="156"/></clipPath></g><g class="gradients"/><g class="patterns"/></defs><g class="bglayer"/><g class="layer-below"><g class="imagelayer"/><g class="shapelayer"/></g><g class="cartesianlayer"><g class="subplot xy"><g class="layer-subplot"><g class="shapelayer"/><g class="imagelayer"/></g><g class="gridlayer"><g class="x"><path class="xgrid crisp" transform="translate(221.2,0)" d="M0,60v156" style="stroke: rgb(238, 238, 238); stroke-opacity: 1; stroke-width: 1px; --darkreader-inline-stroke: #dddad6;" data-darkreader-inline-stroke=""/><path class="xgrid crisp" transform="translate(382.4,0)" d="M0,60v156" style="stroke: rgb(238, 238, 238); stroke-opacity: 1; stroke-width: 1px; --darkreader-inline-stroke: #dddad6;" data-darkreader-inline-stroke=""/><path class="xgrid crisp" transform="translate(543.6,0)" d="M0,60v156" style="stroke: rgb(238, 238, 238); stroke-opacity: 1; stroke-width: 1px; --darkreader-inline-stroke: #dddad6;" data-darkreader-inline-stroke=""/><path class="xgrid crisp" transform="translate(704.8,0)" d="M0,60v156" style="stroke: rgb(238, 238, 238); stroke-opacity: 1; stroke-width: 1px; --darkreader-inline-stroke: #dddad6;" data-darkreader-inline-stroke=""/><path class="xgrid crisp" transform="translate(866,0)" d="M0,60v156" style="stroke: rgb(238, 238, 238); stroke-opacity: 1; stroke-width: 1px; --darkreader-inline-stroke: #dddad6;" data-darkreader-inline-stroke=""/><path class="xgrid crisp" transform="translate(1027.2,0)" d="M0,60v156" style="stroke: rgb(238, 238, 238); stroke-opacity: 1; stroke-width: 1px; --darkreader-inline-stroke: #dddad6;" data-darkreader-inline-stroke=""/><path class="xgrid crisp" transform="translate(1188.4,0)" d="M0,60v156" style="stroke: rgb(238, 238, 238); stroke-opacity: 1; stroke-width: 1px; --darkreader-inline-stroke: #dddad6;" data-darkreader-inline-stroke=""/><path class="xgrid crisp" transform="translate(1349.6,0)" d="M0,60v156" style="stroke: rgb(238, 238, 238); stroke-opacity: 1; stroke-width: 1px; --darkreader-inline-stroke: #dddad6;" data-darkreader-inline-stroke=""/><path class="xgrid crisp" transform="translate(1510.8,0)" d="M0,60v156" style="stroke: rgb(238, 238, 238); stroke-opacity: 1; stroke-width: 1px; --darkreader-inline-stroke: #dddad6;" data-darkreader-inline-stroke=""/></g><g class="y"><path class="ygrid crisp" transform="translate(0,152.11)" d="M60,0h1612" style="stroke: rgb(238, 238, 238); stroke-opacity: 1; stroke-width: 1px; --darkreader-inline-stroke: #dddad6;" data-darkreader-inline-stroke=""/><path class="ygrid crisp" transform="translate(0,95.9)" d="M60,0h1612" style="stroke: rgb(238, 238, 238); stroke-opacity: 1; stroke-width: 1px; --darkreader-inline-stroke: #dddad6;" data-darkreader-inline-stroke=""/></g></g><g class="zerolinelayer"><path class="xzl zl crisp" transform="translate(60,0)" d="M0,60v156" style="stroke: rgb(68, 68, 68); stroke-opacity: 1; stroke-width: 1px; --darkreader-inline-stroke: #bdb7af;" data-darkreader-inline-stroke=""/><path class="yzl zl crisp" transform="translate(0,208.31)" d="M60,0h1612" style="stroke: rgb(68, 68, 68); stroke-opacity: 1; stroke-width: 1px; --darkreader-inline-stroke: #bdb7af;" data-darkreader-inline-stroke=""/></g><path class="xlines-below"/><path class="ylines-below"/><g class="overlines-below"/><g class="xaxislayer-below"/><g class="yaxislayer-below"/><g class="overaxes-below"/><g class="plot" transform="translate(60,60)" clip-path="url(#clip70c14dxyplot)"><g class="scatterlayer mlayer"><g class="trace scatter trace91920a" style="stroke-miterlimit: 2; opacity: 1;"><g class="fills"/><g class="errorbars"/><g class="lines"><path class="js-line" style="vector-effect: non-scaling-stroke; fill: none; stroke: rgb(31, 119, 180); stroke-opacity: 1; stroke-width: 2px; opacity: 1; --darkreader-inline-fill: none; --darkreader-inline-stroke: #55a8e2;" d="M0,7.8L3.22,84.99L6.45,133.35L12.9,134.34L16.12,134.6L25.79,135.42L29.02,136.32L32.24,136.42L35.46,137.64L38.69,137.23L41.91,137.98L48.36,138.92L51.58,139.73L54.81,138.71L58.03,139.57L61.26,138.87L64.48,139.15L70.93,141.1L74.15,138.78L77.38,138.54L80.6,140.85L90.27,140.35L93.5,141.95L99.94,140.38L103.17,141.96L106.39,142.18L109.62,141.6L112.84,142.14L116.06,141.63L119.29,141.16L122.51,143.64L125.74,140.9L128.96,142.43L132.18,140.9L135.41,143.64L138.63,143.43L141.86,142.12L145.08,144.43L148.3,142.17L151.53,143.26L154.75,142.3L157.98,142.37L161.2,140.58L164.42,141.74L167.65,142.03L170.87,143.15L174.1,142.34L177.32,143.13L180.54,144.88L183.77,144.32L186.99,142.95L193.44,144.38L196.66,142.92L209.56,143.86L212.78,142.82L216.01,144.67L219.23,144.13L225.68,143.93L228.9,143.46L232.13,143.1L235.35,144.44L238.58,142.16L241.8,143.19L248.25,145.24L251.47,144.22L257.92,143.82L261.14,144.58L264.37,145.04L267.59,143.07L274.04,145.18L277.26,143.76L280.49,145.37L283.71,143.87L290.16,146.06L293.38,143.48L296.61,146.04L299.83,142.78L306.28,145.91L309.5,145.68L312.73,142.71L315.95,146.04L319.18,145.84L322.4,144.21L325.62,144.07L328.85,145.81L332.07,144.05L335.3,145.22L338.52,142.05L341.74,144.85L348.19,145.06L351.42,144.52L357.86,146.2L361.09,145.32L364.31,145.19L367.54,146L370.76,144.46L373.98,144.93L380.43,146.2L383.66,146.97L386.88,145.5L390.1,145.78L393.33,145.42L396.55,146.52L403,144.83L406.22,144.64L412.67,145.55L415.9,144.2L419.12,145.73L422.34,145.47L425.57,143.66L428.79,144.48L432.02,145.99L435.24,144.86L438.46,146.8L441.69,145.13L451.36,145.39L454.58,145.5L457.81,146.05L461.03,145.34L464.26,146.3L467.48,144.58L470.7,146.04L473.93,144.76L477.15,145.15L480.38,144.64L483.6,145.61L486.82,145.31L493.27,145.5L496.5,146.8L512.62,146.56L515.84,145.99L525.51,145.92L528.74,144.86L531.96,146.1L535.18,145.29L544.86,145.46L548.08,146.25L551.3,145.73L554.53,146.24L560.98,146.37L564.2,145.24L567.42,147.13L570.65,146.06L577.1,144.44L580.32,144.53L586.77,145.3L589.99,143.67L593.22,145.76L596.44,145.63L599.66,146.31L602.89,145.28L606.11,147.56L609.34,146.05L612.56,144.6L615.78,146.95L619.01,145.06L622.23,147.25L625.46,146.04L628.68,146.3L631.9,145.81L635.13,146.66L638.35,145.07L641.58,147.28L651.25,145.78L654.47,146.32L657.7,147.51L660.92,145.72L664.14,146.41L667.37,143.36L670.59,146.34L673.82,145.95L677.04,142.47L680.26,143.79L686.71,147.67L689.94,146.77L696.38,147.15L699.61,146.34L706.06,145.98L709.28,147.32L712.5,146.39L715.73,146.56L718.95,145.25L722.18,146.84L725.4,145.04L728.62,146.9L731.85,146.09L735.07,146.58L738.3,144.58L741.52,146.29L744.74,147.05L747.97,146.02L757.64,146.71L760.86,146.62L764.09,145.48L767.31,146.54L770.54,147.68L773.76,146.37L776.98,143.47L780.21,147.03L793.1,147.4L796.33,146.37L799.55,146.9L802.78,146.61L806,147.46L809.22,146.35L812.45,144.43L815.67,146.54L818.9,146.73L822.12,145.84L828.57,147.32L831.79,145.2L835.02,147.65L838.24,146.46L841.46,145.95L844.69,146.65L847.91,147.73L851.14,146.58L857.58,147.38L860.81,147.33L867.26,146.71L870.48,146.22L873.7,147.63L876.93,146.49L880.15,144.37L883.38,146.94L886.6,146.4L889.82,147.69L893.05,146.32L896.27,147.81L899.5,146.62L902.72,147.14L912.39,145.19L915.62,147.37L918.84,146.07L922.06,147.19L928.51,146.98L931.74,146.44L934.96,146.19L938.18,147.48L941.41,145.91L944.63,146.83L947.86,145.66L951.08,147.22L954.3,147.45L957.53,146.12L960.75,146.97L963.98,146.29L967.2,147.6L970.42,147.61L976.87,146.87L980.1,147.62L986.54,146.83L989.77,146.49L992.99,146.7L996.22,145.58L999.44,146.94L1002.66,144.74L1005.89,146.85L1009.11,146.77L1015.56,146.77L1018.78,143.58L1022.01,146.93L1025.23,146.23L1028.46,146.24L1031.68,145.49L1034.9,147.46L1038.13,147.06L1047.8,147.59L1051.02,145.21L1054.25,147.17L1057.47,146.51L1067.14,145.59L1070.37,147.07L1073.59,146.76L1076.82,147.73L1080.04,146.26L1083.26,147.83L1092.94,147.35L1096.16,145.78L1102.61,147.28L1105.83,146.27L1115.5,146.81L1118.73,146.67L1121.95,145.1L1125.18,147.71L1128.4,147.78L1131.62,146.23L1134.85,147.04L1138.07,145.47L1147.74,146.07L1150.97,147.53L1157.42,147.58L1160.64,144.84L1163.86,146.3L1167.09,146.8L1170.31,146.03L1173.54,147.8L1176.76,146.47L1179.98,147.44L1183.21,145.96L1186.43,147.09L1189.66,145.28L1192.88,147.46L1196.1,146.92L1199.33,147.34L1202.55,147.12L1205.78,147.72L1209,145.17L1212.22,148.07L1225.12,146.36L1228.34,146.89L1231.57,145.69L1234.79,147.34L1241.24,145.51L1244.46,146.49L1250.91,146.77L1254.14,147.25L1257.36,146.09L1260.58,147.87L1263.81,146.62L1267.03,147.16L1270.26,146.65L1273.48,144.51L1276.7,146.41L1279.93,146.62L1283.15,147.74L1286.38,147.88L1289.6,146.62L1292.82,147.89L1296.05,147.92L1299.27,145.2L1305.72,146.9L1308.94,146.88L1315.39,146.4L1318.62,147.27L1325.06,147.58L1328.29,146.55L1337.96,147.04L1341.18,146.75L1344.41,145.96L1347.63,147.07L1363.75,148.03L1366.98,146.54L1370.2,147.39L1373.42,146.95L1376.65,147.66L1379.87,147.07L1383.1,145.05L1386.32,146.68L1392.77,147.35L1395.99,146.14L1399.22,147.39L1402.44,147.47L1405.66,147.96L1408.89,147.5L1428.23,147.45L1431.46,146.82L1437.9,147.19L1441.13,145.69L1444.35,147.92L1447.58,148.05L1463.7,146.96L1466.92,148.11L1470.14,146.87L1473.37,147.52L1476.59,145.79L1479.82,146.4L1486.26,147.4L1489.49,145.86L1492.71,147.52L1495.94,146.73L1502.38,147.96L1505.61,147.54L1508.83,146.69L1512.06,147.21L1515.28,148.09L1518.5,147.38L1521.73,148.16L1524.95,148.07L1528.18,148.2L1531.4,146.87L1534.62,147.34L1537.85,146.79L1544.3,146.59L1547.52,147.66L1550.74,146.69L1553.97,148.01L1557.19,146.7L1560.42,147.17L1563.64,148.2L1566.86,148.03L1570.09,147.42L1573.31,147.75L1589.43,147.28L1592.66,147.98L1595.88,148.09L1599.1,146.38L1602.33,147.69L1605.55,147.85L1608.78,146.24L1612,148.14" data-darkreader-inline-fill="" data-darkreader-inline-stroke=""/></g><g class="points"/><g class="text"/></g></g></g><g class="overplot"/><path class="xlines-above crisp" style="fill: none; --darkreader-inline-fill: none;" d="M0,0" data-darkreader-inline-fill=""/><path class="ylines-above crisp" style="fill: none; --darkreader-inline-fill: none;" d="M0,0" data-darkreader-inline-fill=""/><g class="overlines-above"/><g class="xaxislayer-above"><g class="xtick"><text text-anchor="middle" x="0" y="229" style="font-family: TOBESTRIPPEDOpen SansTOBESTRIPPED, verdana, arial, sans-serif; font-size: 12px; fill: rgb(68, 68, 68); fill-opacity: 1; white-space: pre; opacity: 1; --darkreader-inline-fill: #bdb7af;" transform="translate(60,0)" data-darkreader-inline-fill="">0</text></g><g class="xtick"><text text-anchor="middle" x="0" y="229" style="font-family: TOBESTRIPPEDOpen SansTOBESTRIPPED, verdana, arial, sans-serif; font-size: 12px; fill: rgb(68, 68, 68); fill-opacity: 1; white-space: pre; opacity: 1; --darkreader-inline-fill: #bdb7af;" transform="translate(221.2,0)" data-darkreader-inline-fill="">1k</text></g><g class="xtick"><text text-anchor="middle" x="0" y="229" style="font-family: TOBESTRIPPEDOpen SansTOBESTRIPPED, verdana, arial, sans-serif; font-size: 12px; fill: rgb(68, 68, 68); fill-opacity: 1; white-space: pre; opacity: 1; --darkreader-inline-fill: #bdb7af;" transform="translate(382.4,0)" data-darkreader-inline-fill="">2k</text></g><g class="xtick"><text text-anchor="middle" x="0" y="229" style="font-family: TOBESTRIPPEDOpen SansTOBESTRIPPED, verdana, arial, sans-serif; font-size: 12px; fill: rgb(68, 68, 68); fill-opacity: 1; white-space: pre; opacity: 1; --darkreader-inline-fill: #bdb7af;" transform="translate(543.6,0)" data-darkreader-inline-fill="">3k</text></g><g class="xtick"><text text-anchor="middle" x="0" y="229" style="font-family: TOBESTRIPPEDOpen SansTOBESTRIPPED, verdana, arial, sans-serif; font-size: 12px; fill: rgb(68, 68, 68); fill-opacity: 1; white-space: pre; opacity: 1; --darkreader-inline-fill: #bdb7af;" transform="translate(704.8,0)" data-darkreader-inline-fill="">4k</text></g><g class="xtick"><text text-anchor="middle" x="0" y="229" style="font-family: TOBESTRIPPEDOpen SansTOBESTRIPPED, verdana, arial, sans-serif; font-size: 12px; fill: rgb(68, 68, 68); fill-opacity: 1; white-space: pre; opacity: 1; --darkreader-inline-fill: #bdb7af;" transform="translate(866,0)" data-darkreader-inline-fill="">5k</text></g><g class="xtick"><text text-anchor="middle" x="0" y="229" style="font-family: TOBESTRIPPEDOpen SansTOBESTRIPPED, verdana, arial, sans-serif; font-size: 12px; fill: rgb(68, 68, 68); fill-opacity: 1; white-space: pre; opacity: 1; --darkreader-inline-fill: #bdb7af;" transform="translate(1027.2,0)" data-darkreader-inline-fill="">6k</text></g><g class="xtick"><text text-anchor="middle" x="0" y="229" style="font-family: TOBESTRIPPEDOpen SansTOBESTRIPPED, verdana, arial, sans-serif; font-size: 12px; fill: rgb(68, 68, 68); fill-opacity: 1; white-space: pre; opacity: 1; --darkreader-inline-fill: #bdb7af;" transform="translate(1188.4,0)" data-darkreader-inline-fill="">7k</text></g><g class="xtick"><text text-anchor="middle" x="0" y="229" style="font-family: TOBESTRIPPEDOpen SansTOBESTRIPPED, verdana, arial, sans-serif; font-size: 12px; fill: rgb(68, 68, 68); fill-opacity: 1; white-space: pre; opacity: 1; --darkreader-inline-fill: #bdb7af;" transform="translate(1349.6,0)" data-darkreader-inline-fill="">8k</text></g><g class="xtick"><text text-anchor="middle" x="0" y="229" style="font-family: TOBESTRIPPEDOpen SansTOBESTRIPPED, verdana, arial, sans-serif; font-size: 12px; fill: rgb(68, 68, 68); fill-opacity: 1; white-space: pre; opacity: 1; --darkreader-inline-fill: #bdb7af;" transform="translate(1510.8,0)" data-darkreader-inline-fill="">9k</text></g><g class="xtick"><text text-anchor="middle" x="0" y="229" style="font-family: TOBESTRIPPEDOpen SansTOBESTRIPPED, verdana, arial, sans-serif; font-size: 12px; fill: rgb(68, 68, 68); fill-opacity: 1; white-space: pre; opacity: 1; --darkreader-inline-fill: #bdb7af;" transform="translate(1672,0)" data-darkreader-inline-fill="">10k</text></g></g><g class="yaxislayer-above"><g class="ytick"><text text-anchor="end" x="59" y="4.199999999999999" style="font-family: TOBESTRIPPEDOpen SansTOBESTRIPPED, verdana, arial, sans-serif; font-size: 12px; fill: rgb(68, 68, 68); fill-opacity: 1; white-space: pre; opacity: 1; --darkreader-inline-fill: #bdb7af;" transform="translate(0,208.31)" data-darkreader-inline-fill="">0</text></g><g class="ytick"><text text-anchor="end" x="59" y="4.199999999999999" style="font-family: TOBESTRIPPEDOpen SansTOBESTRIPPED, verdana, arial, sans-serif; font-size: 12px; fill: rgb(68, 68, 68); fill-opacity: 1; white-space: pre; opacity: 1; --darkreader-inline-fill: #bdb7af;" transform="translate(0,152.11)" data-darkreader-inline-fill="">0.2</text></g><g class="ytick"><text text-anchor="end" x="59" y="4.199999999999999" style="font-family: TOBESTRIPPEDOpen SansTOBESTRIPPED, verdana, arial, sans-serif; font-size: 12px; fill: rgb(68, 68, 68); fill-opacity: 1; white-space: pre; opacity: 1; --darkreader-inline-fill: #bdb7af;" transform="translate(0,95.9)" data-darkreader-inline-fill="">0.4</text></g></g><g class="overaxes-above"/></g></g><g class="polarlayer"/><g class="smithlayer"/><g class="ternarylayer"/><g class="geolayer"/><g class="funnelarealayer"/><g class="pielayer"/><g class="iciclelayer"/><g class="treemaplayer"/><g class="sunburstlayer"/><g class="glimages"/><defs id="topdefs-70c14d"><g class="clips"/><clipPath id="legend70c14d"><rect width="171" height="29" x="0" y="0"/></clipPath></defs><g class="layer-above"><g class="imagelayer"/><g class="shapelayer"/></g><g class="infolayer"><g class="legend" pointer-events="all" transform="translate(1704.24,60)"><rect class="bg" shape-rendering="crispEdges" style="stroke: rgb(68, 68, 68); stroke-opacity: 1; fill: rgb(255, 255, 255); fill-opacity: 1; stroke-width: 0px; --darkreader-inline-stroke: #bdb7af; --darkreader-inline-fill: #e8e6e3;" width="171" height="29" x="0" y="0" data-darkreader-inline-stroke="" data-darkreader-inline-fill=""/><g class="scrollbox" transform="" clip-path="url(#legend70c14d)"><g class="groups"><g class="traces" style="opacity: 1;" transform="translate(0,14.5)"><text class="legendtext" text-anchor="start" style="font-family: TOBESTRIPPEDOpen SansTOBESTRIPPED, verdana, arial, sans-serif; font-size: 12px; fill: rgb(68, 68, 68); fill-opacity: 1; white-space: pre; --darkreader-inline-fill: #bdb7af;" x="40" y="4.680000000000001" data-darkreader-inline-fill="">meta_training_loss</text><g class="layers" style="opacity: 1;"><g class="legendfill"/><g class="legendlines"><path class="js-line" d="M5,0h30" style="fill: none; stroke: rgb(31, 119, 180); stroke-opacity: 1; stroke-width: 2px; --darkreader-inline-fill: none; --darkreader-inline-stroke: #55a8e2;" data-darkreader-inline-fill="" data-darkreader-inline-stroke=""/></g><g class="legendsymbols"><g class="legendpoints"/></g></g><rect class="legendtoggle" style="fill: rgb(0, 0, 0); fill-opacity: 0; --darkreader-inline-fill: #e8e6e3;" x="0" y="-9.5" width="166" height="19" data-darkreader-inline-fill=""/></g></g></g><rect class="scrollbar" rx="20" ry="3" width="0" height="0" style="fill: rgb(128, 139, 164); fill-opacity: 1; --darkreader-inline-fill: #a39b8f;" x="0" y="0" data-darkreader-inline-fill=""/></g><g class="g-gtitle"><text class="gtitle" style="font-family: TOBESTRIPPEDOpen SansTOBESTRIPPED, verdana, arial, sans-serif; font-size: 17px; fill: rgb(68, 68, 68); opacity: 1; font-weight: normal; white-space: pre; --darkreader-inline-fill: #bdb7af;" x="943.5" y="30" text-anchor="middle" dy="0em" data-darkreader-inline-fill="">meta_training_loss</text></g><g class="g-xtitle"/><g class="g-ytitle"/></g></svg>