<svg class="main-svg" xmlns="http://www.w3.org/2000/svg" xmlns:xlink="http://www.w3.org/1999/xlink" width="1747" height="306" style="--darkreader-inline-bgcolor: #181a1b; --darkreader-inline-bgimage: none;" data-darkreader-inline-bgcolor="" data-darkreader-inline-bgimage="" viewBox="0 0 1747 306"><rect x="0" y="0" width="1747" height="306" style="fill: rgb(255, 255, 255); fill-opacity: 1;"/><defs id="defs-3117d9"><g class="clips"><clipPath id="clip3117d9xyplot" class="plotclip"><rect width="1475" height="186"/></clipPath><clipPath class="axesclip" id="clip3117d9x"><rect x="60" y="0" width="1475" height="306"/></clipPath><clipPath class="axesclip" id="clip3117d9y"><rect x="0" y="60" width="1747" height="186"/></clipPath><clipPath class="axesclip" id="clip3117d9xy"><rect x="60" y="60" width="1475" height="186"/></clipPath></g><g class="gradients"/><g class="patterns"/></defs><g class="bglayer"/><g class="layer-below"><g class="imagelayer"/><g class="shapelayer"/></g><g class="cartesianlayer"><g class="subplot xy"><g class="layer-subplot"><g class="shapelayer"/><g class="imagelayer"/></g><g class="gridlayer"><g class="x"><path class="xgrid crisp" transform="translate(207.5,0)" d="M0,60v186" style="stroke: rgb(238, 238, 238); stroke-opacity: 1; stroke-width: 1px; --darkreader-inline-stroke: #dddad6;" data-darkreader-inline-stroke=""/><path class="xgrid crisp" transform="translate(355,0)" d="M0,60v186" style="stroke: rgb(238, 238, 238); stroke-opacity: 1; stroke-width: 1px; --darkreader-inline-stroke: #dddad6;" data-darkreader-inline-stroke=""/><path class="xgrid crisp" transform="translate(502.5,0)" d="M0,60v186" style="stroke: rgb(238, 238, 238); stroke-opacity: 1; stroke-width: 1px; --darkreader-inline-stroke: #dddad6;" data-darkreader-inline-stroke=""/><path class="xgrid crisp" transform="translate(650,0)" d="M0,60v186" style="stroke: rgb(238, 238, 238); stroke-opacity: 1; stroke-width: 1px; --darkreader-inline-stroke: #dddad6;" data-darkreader-inline-stroke=""/><path class="xgrid crisp" transform="translate(797.5,0)" d="M0,60v186" style="stroke: rgb(238, 238, 238); stroke-opacity: 1; stroke-width: 1px; --darkreader-inline-stroke: #dddad6;" data-darkreader-inline-stroke=""/><path class="xgrid crisp" transform="translate(945,0)" d="M0,60v186" style="stroke: rgb(238, 238, 238); stroke-opacity: 1; stroke-width: 1px; --darkreader-inline-stroke: #dddad6;" data-darkreader-inline-stroke=""/><path class="xgrid crisp" transform="translate(1092.5,0)" d="M0,60v186" style="stroke: rgb(238, 238, 238); stroke-opacity: 1; stroke-width: 1px; --darkreader-inline-stroke: #dddad6;" data-darkreader-inline-stroke=""/><path class="xgrid crisp" transform="translate(1240,0)" d="M0,60v186" style="stroke: rgb(238, 238, 238); stroke-opacity: 1; stroke-width: 1px; --darkreader-inline-stroke: #dddad6;" data-darkreader-inline-stroke=""/><path class="xgrid crisp" transform="translate(1387.5,0)" d="M0,60v186" style="stroke: rgb(238, 238, 238); stroke-opacity: 1; stroke-width: 1px; --darkreader-inline-stroke: #dddad6;" data-darkreader-inline-stroke=""/></g><g class="y"><path class="ygrid crisp" transform="translate(0,205.42)" d="M60,0h1475" style="stroke: rgb(238, 238, 238); stroke-opacity: 1; stroke-width: 1px; --darkreader-inline-stroke: #dddad6;" data-darkreader-inline-stroke=""/><path class="ygrid crisp" transform="translate(0,171.39)" d="M60,0h1475" style="stroke: rgb(238, 238, 238); stroke-opacity: 1; stroke-width: 1px; --darkreader-inline-stroke: #dddad6;" data-darkreader-inline-stroke=""/><path class="ygrid crisp" transform="translate(0,137.36)" d="M60,0h1475" style="stroke: rgb(238, 238, 238); stroke-opacity: 1; stroke-width: 1px; --darkreader-inline-stroke: #dddad6;" data-darkreader-inline-stroke=""/><path class="ygrid crisp" transform="translate(0,103.33)" d="M60,0h1475" style="stroke: rgb(238, 238, 238); stroke-opacity: 1; stroke-width: 1px; --darkreader-inline-stroke: #dddad6;" data-darkreader-inline-stroke=""/><path class="ygrid crisp" transform="translate(0,69.3)" d="M60,0h1475" style="stroke: rgb(238, 238, 238); stroke-opacity: 1; stroke-width: 1px; --darkreader-inline-stroke: #dddad6;" data-darkreader-inline-stroke=""/></g></g><g class="zerolinelayer"><path class="xzl zl crisp" transform="translate(60,0)" d="M0,60v186" style="stroke: rgb(68, 68, 68); stroke-opacity: 1; stroke-width: 1px; --darkreader-inline-stroke: #bdb7af;" data-darkreader-inline-stroke=""/><path class="yzl zl crisp" transform="translate(0,239.45)" d="M60,0h1475" style="stroke: rgb(68, 68, 68); stroke-opacity: 1; stroke-width: 1px; --darkreader-inline-stroke: #bdb7af;" data-darkreader-inline-stroke=""/></g><path class="xlines-below"/><path class="ylines-below"/><g class="overlines-below"/><g class="xaxislayer-below"/><g class="yaxislayer-below"/><g class="overaxes-below"/><g class="plot" transform="translate(60,60)" clip-path="url(#clip3117d9xyplot)"><g class="scatterlayer mlayer"><g class="trace scatter trace610fc7" style="stroke-miterlimit: 2; opacity: 1;"><g class="fills"/><g class="errorbars"/><g class="lines"><path class="js-line" style="vector-effect: non-scaling-stroke; fill: none; stroke: rgb(31, 119, 180); stroke-opacity: 1; stroke-width: 2px; opacity: 1; --darkreader-inline-fill: none; --darkreader-inline-stroke: #55a8e2;" d="M0,9.3L2.95,13.19L5.9,19.44L11.8,36.4L14.75,49.11L20.65,80.36L23.6,95.8L29.5,125.75L32.45,137.97L38.35,152.01L41.3,155.86L44.25,158.54L47.2,159.71L56.05,161.38L59,161.21L67.85,161.93L70.8,161.93L106.2,163.08L109.15,163.34L112.1,162.96L115.05,163.65L150.45,165.02L153.4,165.99L168.15,165.96L171.1,165.7L177,167.31L179.95,167.41L182.9,166.27L185.85,167.04L191.75,168.04L194.7,166.12L197.65,167.16L200.6,167.15L209.45,167.7L212.4,168.26L224.2,167.43L227.15,168.58L233.05,167.57L236,168.78L238.95,167.65L241.9,167.93L244.85,168.11L247.8,169.67L259.6,167.59L262.55,166.57L265.5,169.48L268.45,168.7L271.4,169.24L274.35,168.69L277.3,167.76L280.25,168.92L289.1,168.65L292.05,169.35L303.85,170.04L306.8,168.88L312.7,167.76L315.65,168.07L318.6,169.15L321.55,168.31L324.5,169.93L327.45,169.92L330.4,167.98L333.35,167.08L336.3,169.87L339.25,169.87L345.15,169.65L348.1,169.4L351.05,170.34L354,169.07L356.95,166.8L359.9,169.37L362.85,170.64L365.8,168.81L368.75,167.39L371.7,169.31L374.65,171.43L377.6,170.78L380.55,171.21L383.5,170.45L386.45,170.63L389.4,169.05L392.35,170.65L395.3,169.07L401.2,168.93L404.15,171.26L407.1,168.74L410.05,169.35L413,171.32L415.95,168.3L418.9,171.66L421.85,170.19L424.8,169.02L427.75,171.73L430.7,168.96L433.65,170.98L436.6,171.84L439.55,171.1L442.5,171.04L445.45,171.74L451.35,170.33L454.3,171.08L457.25,169.46L460.2,171.15L463.15,170.29L466.1,171.9L469.05,172.24L472,169.44L477.9,171.57L480.85,171.23L486.75,169.99L489.7,170.28L492.65,167.2L495.6,169.79L498.55,171.75L501.5,171.71L504.45,170.54L507.4,167.64L510.35,172.34L513.3,170.3L516.25,168.9L519.2,171.39L525.1,169.51L528.05,170.26L531,172.04L533.95,170.12L536.9,171.84L539.85,171.36L542.8,172.24L545.75,170.29L548.7,171.55L551.65,170.8L557.55,171.38L560.5,170.35L563.45,169.28L566.4,171.5L569.35,171.19L572.3,172.83L575.25,170.5L578.2,170.6L584.1,172.59L587.05,170.77L590,173.08L592.95,170.35L598.85,172.24L601.8,170.53L610.65,172.63L613.6,171.02L616.55,172.77L619.5,172.76L622.45,172.66L625.4,170.69L628.35,169.09L631.3,171.81L634.25,171.51L637.2,173.15L640.15,171.45L643.1,172.29L646.05,172.71L649,171.33L651.95,171.14L654.9,173.59L657.85,172.51L660.8,172.71L663.75,170.3L666.7,173.08L672.6,173.69L675.55,172.98L678.5,173L681.45,172.21L684.4,173.22L687.35,168.5L690.3,172.67L693.25,174.92L696.2,172.32L699.15,173.12L705.05,172.29L708,173.18L710.95,169.83L713.9,173.12L716.85,170.81L719.8,173.5L722.75,170.34L725.7,171.19L728.65,171.78L731.6,171.45L737.5,170.22L740.45,172.53L749.3,172.89L752.25,175.04L755.2,172.22L758.15,172.15L761.1,174.17L764.05,172.84L767,174.71L769.95,173.47L772.9,170.86L775.85,173.09L778.8,171.64L781.75,173.4L787.65,172.65L790.6,171.04L796.5,173.22L799.45,171.02L802.4,173.85L805.35,172.37L808.3,173.43L811.25,171.52L814.2,172.6L817.15,171.9L820.1,172.38L823.05,170.12L826,174.94L828.95,171.62L831.9,169.17L834.85,172.24L837.8,173.28L840.75,172.2L843.7,173.67L846.65,172.59L849.6,173.53L852.55,172.99L855.5,174.21L858.45,173.92L864.35,173.3L867.3,171.54L873.2,171.63L876.15,173.49L879.1,172.06L882.05,172.25L885,171.78L887.95,172.82L890.9,173.3L893.85,170.92L896.8,169.45L899.75,171.89L902.7,172.18L905.65,173.71L908.6,175.64L911.55,171.62L914.5,172.83L917.45,171.57L920.4,172.52L923.35,172.41L926.3,174.62L929.25,170.72L935.15,173.19L938.1,171.95L941.05,173.84L944,171.52L946.95,172.16L949.9,170.19L952.85,173.49L955.8,173.5L958.75,172.23L961.7,174.99L964.65,172.95L967.6,174.77L970.55,173.53L973.5,174.56L979.4,169.6L982.35,173.91L988.25,171.13L991.2,173.34L994.15,172.23L997.1,172.78L1000.05,172.7L1003,173.52L1005.95,171.72L1008.9,173.77L1011.85,171.27L1014.8,172.51L1017.75,173.85L1020.7,171.79L1023.65,173.46L1026.6,171.06L1029.55,174.39L1032.5,174.76L1038.4,172.93L1041.35,172.34L1044.3,172.77L1047.25,170.86L1053.15,173.93L1056.1,173.39L1059.05,173.81L1062,171.92L1064.95,170.65L1067.9,173.2L1070.85,173.83L1073.8,173.12L1076.75,174.07L1079.7,172.99L1082.65,172.62L1085.6,175.05L1094.45,171.98L1097.4,172.94L1100.35,173.69L1103.3,171.66L1106.25,175.63L1109.2,172.34L1112.15,171.68L1115.1,172.82L1121,172.9L1123.95,171.16L1126.9,175.17L1129.85,173.51L1132.8,174.45L1135.75,172.08L1138.7,169.15L1141.65,173.7L1144.6,173.86L1147.55,170.28L1150.5,172.41L1153.45,173.17L1156.4,173.9L1159.35,173.68L1165.25,172.67L1168.2,173.86L1171.15,171.19L1174.1,172.48L1177.05,174.03L1180,173.91L1182.95,175.01L1185.9,175.06L1188.85,175.18L1191.8,172.4L1194.75,171.49L1197.7,172.39L1200.65,172.95L1203.6,172.65L1206.55,174.06L1209.5,172.74L1212.45,175.28L1215.4,175.64L1218.35,173.77L1221.3,167.7L1224.25,172.41L1227.2,172.59L1230.15,173.74L1233.1,173.51L1236.05,172.3L1239,172.41L1241.95,175.3L1244.9,173.19L1247.85,175.98L1250.8,173L1253.75,173.69L1256.7,171.17L1259.65,173.02L1262.6,172.1L1268.5,172.95L1271.45,172.4L1274.4,172.22L1277.35,169.2L1280.3,169.69L1283.25,175.52L1286.2,173.29L1289.15,176.7L1292.1,172.16L1295.05,174.79L1303.9,172.28L1306.85,173.83L1309.8,175.1L1312.75,172.92L1315.7,172.45L1318.65,175.47L1321.6,176.66L1324.55,175.15L1327.5,174.17L1330.45,176.46L1333.4,173.31L1336.35,173.27L1339.3,172.62L1342.25,173.16L1345.2,173.46L1348.15,172.13L1351.1,171.58L1354.05,174.37L1359.95,173.76L1362.9,175.1L1365.85,173.99L1368.8,174.81L1371.75,170.95L1374.7,172.14L1377.65,174.36L1380.6,173.48L1383.55,172.62L1386.5,175.1L1389.45,173.77L1392.4,173.46L1395.35,171.62L1398.3,175.09L1401.25,172.01L1404.2,175.37L1407.15,174.67L1410.1,172.73L1413.05,173.92L1416,172.23L1418.95,171.92L1421.9,172.64L1424.85,173.57L1427.8,173.13L1430.75,171.7L1433.7,173.11L1442.55,173.39L1445.5,173.42L1448.45,173.86L1451.4,175.22L1454.35,174.22L1457.3,174.31L1460.25,175.81L1463.2,172.56L1466.15,174.36L1469.1,174.68L1472.05,174.79L1475,171.53" data-darkreader-inline-fill="" data-darkreader-inline-stroke=""/></g><g class="points"/><g class="text"/></g></g></g><g class="overplot"/><path class="xlines-above crisp" style="fill: none; --darkreader-inline-fill: none;" d="M0,0" data-darkreader-inline-fill=""/><path class="ylines-above crisp" style="fill: none; --darkreader-inline-fill: none;" d="M0,0" data-darkreader-inline-fill=""/><g class="overlines-above"/><g class="xaxislayer-above"><g class="xtick"><text text-anchor="middle" x="0" y="259" style="font-family: TOBESTRIPPEDOpen SansTOBESTRIPPED, verdana, arial, sans-serif; font-size: 12px; fill: rgb(68, 68, 68); fill-opacity: 1; white-space: pre; opacity: 1; --darkreader-inline-fill: #bdb7af;" transform="translate(60,0)" data-darkreader-inline-fill="">0</text></g><g class="xtick"><text text-anchor="middle" x="0" y="259" style="font-family: TOBESTRIPPEDOpen SansTOBESTRIPPED, verdana, arial, sans-serif; font-size: 12px; fill: rgb(68, 68, 68); fill-opacity: 1; white-space: pre; opacity: 1; --darkreader-inline-fill: #bdb7af;" transform="translate(207.5,0)" data-darkreader-inline-fill="">1k</text></g><g class="xtick"><text text-anchor="middle" x="0" y="259" style="font-family: TOBESTRIPPEDOpen SansTOBESTRIPPED, verdana, arial, sans-serif; font-size: 12px; fill: rgb(68, 68, 68); fill-opacity: 1; white-space: pre; opacity: 1; --darkreader-inline-fill: #bdb7af;" transform="translate(355,0)" data-darkreader-inline-fill="">2k</text></g><g class="xtick"><text text-anchor="middle" x="0" y="259" style="font-family: TOBESTRIPPEDOpen SansTOBESTRIPPED, verdana, arial, sans-serif; font-size: 12px; fill: rgb(68, 68, 68); fill-opacity: 1; white-space: pre; opacity: 1; --darkreader-inline-fill: #bdb7af;" transform="translate(502.5,0)" data-darkreader-inline-fill="">3k</text></g><g class="xtick"><text text-anchor="middle" x="0" y="259" style="font-family: TOBESTRIPPEDOpen SansTOBESTRIPPED, verdana, arial, sans-serif; font-size: 12px; fill: rgb(68, 68, 68); fill-opacity: 1; white-space: pre; opacity: 1; --darkreader-inline-fill: #bdb7af;" transform="translate(650,0)" data-darkreader-inline-fill="">4k</text></g><g class="xtick"><text text-anchor="middle" x="0" y="259" style="font-family: TOBESTRIPPEDOpen SansTOBESTRIPPED, verdana, arial, sans-serif; font-size: 12px; fill: rgb(68, 68, 68); fill-opacity: 1; white-space: pre; opacity: 1; --darkreader-inline-fill: #bdb7af;" transform="translate(797.5,0)" data-darkreader-inline-fill="">5k</text></g><g class="xtick"><text text-anchor="middle" x="0" y="259" style="font-family: TOBESTRIPPEDOpen SansTOBESTRIPPED, verdana, arial, sans-serif; font-size: 12px; fill: rgb(68, 68, 68); fill-opacity: 1; white-space: pre; opacity: 1; --darkreader-inline-fill: #bdb7af;" transform="translate(945,0)" data-darkreader-inline-fill="">6k</text></g><g class="xtick"><text text-anchor="middle" x="0" y="259" style="font-family: TOBESTRIPPEDOpen SansTOBESTRIPPED, verdana, arial, sans-serif; font-size: 12px; fill: rgb(68, 68, 68); fill-opacity: 1; white-space: pre; opacity: 1; --darkreader-inline-fill: #bdb7af;" transform="translate(1092.5,0)" data-darkreader-inline-fill="">7k</text></g><g class="xtick"><text text-anchor="middle" x="0" y="259" style="font-family: TOBESTRIPPEDOpen SansTOBESTRIPPED, verdana, arial, sans-serif; font-size: 12px; fill: rgb(68, 68, 68); fill-opacity: 1; white-space: pre; opacity: 1; --darkreader-inline-fill: #bdb7af;" transform="translate(1240,0)" data-darkreader-inline-fill="">8k</text></g><g class="xtick"><text text-anchor="middle" x="0" y="259" style="font-family: TOBESTRIPPEDOpen SansTOBESTRIPPED, verdana, arial, sans-serif; font-size: 12px; fill: rgb(68, 68, 68); fill-opacity: 1; white-space: pre; opacity: 1; --darkreader-inline-fill: #bdb7af;" transform="translate(1387.5,0)" data-darkreader-inline-fill="">9k</text></g><g class="xtick"><text text-anchor="middle" x="0" y="259" style="font-family: TOBESTRIPPEDOpen SansTOBESTRIPPED, verdana, arial, sans-serif; font-size: 12px; fill: rgb(68, 68, 68); fill-opacity: 1; white-space: pre; opacity: 1; --darkreader-inline-fill: #bdb7af;" transform="translate(1535,0)" data-darkreader-inline-fill="">10k</text></g></g><g class="yaxislayer-above"><g class="ytick"><text text-anchor="end" x="59" y="4.199999999999999" style="font-family: TOBESTRIPPEDOpen SansTOBESTRIPPED, verdana, arial, sans-serif; font-size: 12px; fill: rgb(68, 68, 68); fill-opacity: 1; white-space: pre; opacity: 1; --darkreader-inline-fill: #bdb7af;" transform="translate(0,239.45)" data-darkreader-inline-fill="">0</text></g><g class="ytick"><text text-anchor="end" x="59" y="4.199999999999999" style="font-family: TOBESTRIPPEDOpen SansTOBESTRIPPED, verdana, arial, sans-serif; font-size: 12px; fill: rgb(68, 68, 68); fill-opacity: 1; white-space: pre; opacity: 1; --darkreader-inline-fill: #bdb7af;" transform="translate(0,205.42)" data-darkreader-inline-fill="">0.1</text></g><g class="ytick"><text text-anchor="end" x="59" y="4.199999999999999" style="font-family: TOBESTRIPPEDOpen SansTOBESTRIPPED, verdana, arial, sans-serif; font-size: 12px; fill: rgb(68, 68, 68); fill-opacity: 1; white-space: pre; opacity: 1; --darkreader-inline-fill: #bdb7af;" transform="translate(0,171.39)" data-darkreader-inline-fill="">0.2</text></g><g class="ytick"><text text-anchor="end" x="59" y="4.199999999999999" style="font-family: TOBESTRIPPEDOpen SansTOBESTRIPPED, verdana, arial, sans-serif; font-size: 12px; fill: rgb(68, 68, 68); fill-opacity: 1; white-space: pre; opacity: 1; --darkreader-inline-fill: #bdb7af;" transform="translate(0,137.36)" data-darkreader-inline-fill="">0.3</text></g><g class="ytick"><text text-anchor="end" x="59" y="4.199999999999999" style="font-family: TOBESTRIPPEDOpen SansTOBESTRIPPED, verdana, arial, sans-serif; font-size: 12px; fill: rgb(68, 68, 68); fill-opacity: 1; white-space: pre; opacity: 1; --darkreader-inline-fill: #bdb7af;" transform="translate(0,103.33)" data-darkreader-inline-fill="">0.4</text></g><g class="ytick"><text text-anchor="end" x="59" y="4.199999999999999" style="font-family: TOBESTRIPPEDOpen SansTOBESTRIPPED, verdana, arial, sans-serif; font-size: 12px; fill: rgb(68, 68, 68); fill-opacity: 1; white-space: pre; opacity: 1; --darkreader-inline-fill: #bdb7af;" transform="translate(0,69.3)" data-darkreader-inline-fill="">0.5</text></g></g><g class="overaxes-above"/></g></g><g class="polarlayer"/><g class="smithlayer"/><g class="ternarylayer"/><g class="geolayer"/><g class="funnelarealayer"/><g class="pielayer"/><g class="iciclelayer"/><g class="treemaplayer"/><g class="sunburstlayer"/><g class="glimages"/><defs id="topdefs-3117d9"><g class="clips"/><clipPath id="legend3117d9"><rect width="171" height="29" x="0" y="0"/></clipPath></defs><g class="layer-above"><g class="imagelayer"/><g class="shapelayer"/></g><g class="infolayer"><g class="legend" pointer-events="all" transform="translate(1564.5,60)"><rect class="bg" shape-rendering="crispEdges" style="stroke: rgb(68, 68, 68); stroke-opacity: 1; fill: rgb(255, 255, 255); fill-opacity: 1; stroke-width: 0px; --darkreader-inline-stroke: #bdb7af; --darkreader-inline-fill: #e8e6e3;" width="171" height="29" x="0" y="0" data-darkreader-inline-stroke="" data-darkreader-inline-fill=""/><g class="scrollbox" transform="" clip-path="url(#legend3117d9)"><g class="groups"><g class="traces" style="opacity: 1;" transform="translate(0,14.5)"><text class="legendtext" text-anchor="start" style="font-family: TOBESTRIPPEDOpen SansTOBESTRIPPED, verdana, arial, sans-serif; font-size: 12px; fill: rgb(68, 68, 68); fill-opacity: 1; white-space: pre; --darkreader-inline-fill: #bdb7af;" x="40" y="4.680000000000001" data-darkreader-inline-fill="">meta_training_loss</text><g class="layers" style="opacity: 1;"><g class="legendfill"/><g class="legendlines"><path class="js-line" d="M5,0h30" style="fill: none; stroke: rgb(31, 119, 180); stroke-opacity: 1; stroke-width: 2px; --darkreader-inline-fill: none; --darkreader-inline-stroke: #55a8e2;" data-darkreader-inline-fill="" data-darkreader-inline-stroke=""/></g><g class="legendsymbols"><g class="legendpoints"/></g></g><rect class="legendtoggle" style="fill: rgb(0, 0, 0); fill-opacity: 0; --darkreader-inline-fill: #e8e6e3;" x="0" y="-9.5" width="166" height="19" data-darkreader-inline-fill=""/></g></g></g><rect class="scrollbar" rx="20" ry="3" width="0" height="0" style="fill: rgb(128, 139, 164); fill-opacity: 1; --darkreader-inline-fill: #a39b8f;" x="0" y="0" data-darkreader-inline-fill=""/></g><g class="g-gtitle"><text class="gtitle" style="font-family: TOBESTRIPPEDOpen SansTOBESTRIPPED, verdana, arial, sans-serif; font-size: 17px; fill: rgb(68, 68, 68); opacity: 1; font-weight: normal; white-space: pre; --darkreader-inline-fill: #bdb7af;" x="873.5" y="30" text-anchor="middle" dy="0em" data-darkreader-inline-fill="">meta_training_loss</text></g><g class="g-xtitle"/><g class="g-ytitle"/></g></svg>