<svg class="main-svg" xmlns="http://www.w3.org/2000/svg" xmlns:xlink="http://www.w3.org/1999/xlink" width="1747" height="306" style="--darkreader-inline-bgcolor: #181a1b; --darkreader-inline-bgimage: none;" data-darkreader-inline-bgcolor="" data-darkreader-inline-bgimage="" viewBox="0 0 1747 306"><rect x="0" y="0" width="1747" height="306" style="fill: rgb(255, 255, 255); fill-opacity: 1;"/><defs id="defs-75b770"><g class="clips"><clipPath id="clip75b770xyplot" class="plotclip"><rect width="1475" height="186"/></clipPath><clipPath class="axesclip" id="clip75b770x"><rect x="60" y="0" width="1475" height="306"/></clipPath><clipPath class="axesclip" id="clip75b770y"><rect x="0" y="60" width="1747" height="186"/></clipPath><clipPath class="axesclip" id="clip75b770xy"><rect x="60" y="60" width="1475" height="186"/></clipPath></g><g class="gradients"/><g class="patterns"/></defs><g class="bglayer"/><g class="layer-below"><g class="imagelayer"/><g class="shapelayer"/></g><g class="cartesianlayer"><g class="subplot xy"><g class="layer-subplot"><g class="shapelayer"/><g class="imagelayer"/></g><g class="gridlayer"><g class="x"><path class="xgrid crisp" transform="translate(207.5,0)" d="M0,60v186" style="stroke: rgb(238, 238, 238); stroke-opacity: 1; stroke-width: 1px; --darkreader-inline-stroke: #dddad6;" data-darkreader-inline-stroke=""/><path class="xgrid crisp" transform="translate(355,0)" d="M0,60v186" style="stroke: rgb(238, 238, 238); stroke-opacity: 1; stroke-width: 1px; --darkreader-inline-stroke: #dddad6;" data-darkreader-inline-stroke=""/><path class="xgrid crisp" transform="translate(502.5,0)" d="M0,60v186" style="stroke: rgb(238, 238, 238); stroke-opacity: 1; stroke-width: 1px; --darkreader-inline-stroke: #dddad6;" data-darkreader-inline-stroke=""/><path class="xgrid crisp" transform="translate(650,0)" d="M0,60v186" style="stroke: rgb(238, 238, 238); stroke-opacity: 1; stroke-width: 1px; --darkreader-inline-stroke: #dddad6;" data-darkreader-inline-stroke=""/><path class="xgrid crisp" transform="translate(797.5,0)" d="M0,60v186" style="stroke: rgb(238, 238, 238); stroke-opacity: 1; stroke-width: 1px; --darkreader-inline-stroke: #dddad6;" data-darkreader-inline-stroke=""/><path class="xgrid crisp" transform="translate(945,0)" d="M0,60v186" style="stroke: rgb(238, 238, 238); stroke-opacity: 1; stroke-width: 1px; --darkreader-inline-stroke: #dddad6;" data-darkreader-inline-stroke=""/><path class="xgrid crisp" transform="translate(1092.5,0)" d="M0,60v186" style="stroke: rgb(238, 238, 238); stroke-opacity: 1; stroke-width: 1px; --darkreader-inline-stroke: #dddad6;" data-darkreader-inline-stroke=""/><path class="xgrid crisp" transform="translate(1240,0)" d="M0,60v186" style="stroke: rgb(238, 238, 238); stroke-opacity: 1; stroke-width: 1px; --darkreader-inline-stroke: #dddad6;" data-darkreader-inline-stroke=""/><path class="xgrid crisp" transform="translate(1387.5,0)" d="M0,60v186" style="stroke: rgb(238, 238, 238); stroke-opacity: 1; stroke-width: 1px; --darkreader-inline-stroke: #dddad6;" data-darkreader-inline-stroke=""/></g><g class="y"><path class="ygrid crisp" transform="translate(0,203.27)" d="M60,0h1475" style="stroke: rgb(238, 238, 238); stroke-opacity: 1; stroke-width: 1px; --darkreader-inline-stroke: #dddad6;" data-darkreader-inline-stroke=""/><path class="ygrid crisp" transform="translate(0,169.78)" d="M60,0h1475" style="stroke: rgb(238, 238, 238); stroke-opacity: 1; stroke-width: 1px; --darkreader-inline-stroke: #dddad6;" data-darkreader-inline-stroke=""/><path class="ygrid crisp" transform="translate(0,136.29000000000002)" d="M60,0h1475" style="stroke: rgb(238, 238, 238); stroke-opacity: 1; stroke-width: 1px; --darkreader-inline-stroke: #dddad6;" data-darkreader-inline-stroke=""/><path class="ygrid crisp" transform="translate(0,102.78999999999999)" d="M60,0h1475" style="stroke: rgb(238, 238, 238); stroke-opacity: 1; stroke-width: 1px; --darkreader-inline-stroke: #dddad6;" data-darkreader-inline-stroke=""/><path class="ygrid crisp" transform="translate(0,69.3)" d="M60,0h1475" style="stroke: rgb(238, 238, 238); stroke-opacity: 1; stroke-width: 1px; --darkreader-inline-stroke: #dddad6;" data-darkreader-inline-stroke=""/></g></g><g class="zerolinelayer"><path class="xzl zl crisp" transform="translate(60,0)" d="M0,60v186" style="stroke: rgb(68, 68, 68); stroke-opacity: 1; stroke-width: 1px; --darkreader-inline-stroke: #bdb7af;" data-darkreader-inline-stroke=""/><path class="yzl zl crisp" transform="translate(0,236.76)" d="M60,0h1475" style="stroke: rgb(68, 68, 68); stroke-opacity: 1; stroke-width: 1px; --darkreader-inline-stroke: #bdb7af;" data-darkreader-inline-stroke=""/></g><path class="xlines-below"/><path class="ylines-below"/><g class="overlines-below"/><g class="xaxislayer-below"/><g class="yaxislayer-below"/><g class="overaxes-below"/><g class="plot" transform="translate(60,60)" clip-path="url(#clip75b770xyplot)"><g class="scatterlayer mlayer"><g class="trace scatter trace65c7d7" style="stroke-miterlimit: 2; opacity: 1;"><g class="fills"/><g class="errorbars"/><g class="lines"><path class="js-line" style="vector-effect: non-scaling-stroke; fill: none; stroke: rgb(31, 119, 180); stroke-opacity: 1; stroke-width: 2px; opacity: 1; --darkreader-inline-fill: none; --darkreader-inline-stroke: #55a8e2;" d="M0,9.3L2.95,159.98L5.9,160.45L11.8,160.3L14.75,160.56L44.25,160.68L47.2,160.75L64.9,160.52L67.85,160.15L73.75,163.33L76.7,164.45L79.65,163.64L82.6,164.86L85.55,165.15L88.5,163.95L91.45,165.92L94.4,165.16L97.35,166.96L100.3,166.88L103.25,166.71L106.2,167.56L109.15,167.61L112.1,169.71L115.05,167.19L118,168.22L120.95,167.04L123.9,167.7L126.85,168.48L129.8,167.01L132.75,170.51L135.7,169.06L138.65,168.05L141.6,170.03L147.5,170.04L150.45,166.47L153.4,170.26L156.35,170.23L162.25,168.57L165.2,170.07L171.1,172.92L174.05,171.59L177,171.85L179.95,168.28L182.9,172.37L185.85,170.65L191.75,170.82L194.7,169.97L197.65,172.37L200.6,172.3L203.55,173.37L206.5,171.64L209.45,173.16L212.4,173.6L215.35,170.51L218.3,174.2L221.25,172.97L224.2,173.07L227.15,169.6L230.1,172.98L233.05,172.12L236,170.27L238.95,172.66L241.9,170.9L244.85,172.47L247.8,171.38L250.75,173.37L253.7,171.69L256.65,170.32L259.6,173.3L262.55,172.6L265.5,173.03L271.4,172.87L274.35,173.66L280.25,170.06L283.2,174.69L286.15,174.09L289.1,172.65L292.05,174.04L295,173.07L297.95,174.15L300.9,172.4L306.8,173.32L309.75,170.88L312.7,175.21L315.65,168.57L318.6,174.21L321.55,173.49L327.45,174.74L330.4,173.15L333.35,175.07L336.3,174.16L339.25,175.99L342.2,175.32L345.15,171.86L348.1,171.97L351.05,174.13L354,174.5L356.95,173.27L359.9,174.89L362.85,170.6L365.8,171.57L371.7,173.28L374.65,172.42L377.6,172.24L380.55,173.64L383.5,171.82L386.45,174.37L392.35,174.78L395.3,173.52L398.25,175.08L401.2,173.87L407.1,174.6L410.05,172.91L413,172.91L415.95,174.35L418.9,172.15L421.85,173.43L424.8,174.15L427.75,172.95L430.7,175.05L433.65,173.08L439.55,173.99L442.5,173.1L448.4,173.38L451.35,175.64L454.3,175.09L457.25,175.38L466.1,174.44L469.05,175.56L472,174.04L474.95,174.08L477.9,172.03L480.85,175.49L483.8,173.39L486.75,174.61L489.7,174.88L492.65,172.92L498.55,174.78L501.5,173.76L507.4,172.63L510.35,173.97L516.25,172.76L519.2,175.22L525.1,174.63L528.05,174.74L536.9,174.41L539.85,172.22L542.8,175.16L545.75,174.21L548.7,173.64L551.65,175.27L554.6,173.46L557.55,174.06L563.45,175.83L566.4,174.51L569.35,175.71L572.3,173.76L575.25,174.45L578.2,173.83L584.1,174.42L587.05,175.71L592.95,173L595.9,173.96L601.8,175.69L604.75,174.84L613.6,174.59L616.55,176.05L619.5,174.3L622.45,174.49L625.4,174.54L628.35,175.51L634.25,175.48L637.2,174.37L640.15,174.95L643.1,174.56L646.05,175.1L649,174.77L654.9,175.6L657.85,172.63L660.8,174.45L663.75,173.86L666.7,176.17L669.65,175.09L672.6,176.12L675.55,172.66L681.45,175.37L684.4,175.14L687.35,173.15L690.3,175.72L699.15,174.35L702.1,175.12L710.95,175.25L713.9,173.98L722.75,173.93L725.7,174.86L731.6,175.53L734.55,175.05L740.45,175.84L743.4,174.52L746.35,176.2L749.3,174.5L752.25,175.73L755.2,176.1L761.1,174.63L764.05,175.09L767,174.44L769.95,174.65L772.9,173.86L775.85,174.28L778.8,172.76L781.75,175.59L784.7,176.09L787.65,175.36L790.6,175.93L793.55,174.22L799.45,175.86L802.4,174.59L808.3,175.59L811.25,175.3L814.2,176.52L817.15,175.32L820.1,175.77L823.05,174.74L826,175.91L828.95,176.15L831.9,174.83L834.85,175.79L837.8,176.4L840.75,175.83L849.6,174.24L852.55,175.35L855.5,175.24L858.45,176.15L861.4,174.94L864.35,175.51L870.25,174.93L873.2,175.89L882.05,175.67L885,175.6L887.95,176.63L890.9,176.39L896.8,176.02L899.75,173.86L902.7,176.01L905.65,175.47L908.6,176.27L911.55,174.54L914.5,176.02L917.45,174.65L920.4,176.04L923.35,176.31L926.3,174.96L929.25,175.64L935.15,175.44L938.1,175.53L946.95,175.64L949.9,172.77L952.85,175.12L955.8,176.4L958.75,176.24L961.7,175.17L970.55,175.27L973.5,176.22L979.4,175.76L982.35,175.34L985.3,176.17L988.25,174.56L991.2,175.9L994.15,176.18L997.1,173.64L1000.05,174.4L1003,176.13L1005.95,176.36L1008.9,174.91L1011.85,175.58L1014.8,176.19L1017.75,175.71L1029.55,176.16L1032.5,175.41L1035.45,175.07L1038.4,175.69L1041.35,176.64L1044.3,175.62L1047.25,174.02L1050.2,176.31L1056.1,175.51L1059.05,175.94L1062,175.18L1064.95,175.29L1070.85,175.19L1073.8,176.23L1076.75,175.6L1079.7,175.83L1088.55,176.29L1091.5,175.59L1109.2,175.91L1112.15,176.57L1115.1,175.23L1118.05,175.92L1121,175.49L1123.95,176.08L1126.9,175.75L1129.85,176.5L1141.65,175.89L1144.6,174.83L1147.55,176.1L1150.5,175.9L1156.4,175.62L1159.35,176.13L1162.3,174.22L1165.25,176.14L1168.2,175.61L1171.15,176.26L1174.1,176.14L1177.05,174.95L1180,175.5L1182.95,171.33L1185.9,175.2L1188.85,175.4L1191.8,176.08L1194.75,175.47L1197.7,176.57L1200.65,176.05L1206.55,175.92L1209.5,175.24L1212.45,175.39L1215.4,176.6L1218.35,175.72L1221.3,176.62L1224.25,176.7L1227.2,175.56L1230.15,174.84L1233.1,176.12L1241.95,176.27L1244.9,175.42L1247.85,174.38L1250.8,175.92L1256.7,175.72L1259.65,175.66L1262.6,176.23L1265.55,174.87L1274.4,176.31L1277.35,175.29L1280.3,174.6L1283.25,176.54L1286.2,175.37L1289.15,175.34L1292.1,176.31L1295.05,175.84L1298,176.65L1300.95,174.2L1306.85,176.44L1309.8,176.15L1312.75,175.11L1315.7,175.18L1327.5,175.45L1330.45,176.66L1333.4,174.61L1336.35,175.87L1339.3,176.13L1342.25,174.2L1345.2,174.25L1348.15,175.99L1354.05,176.41L1357,173.98L1359.95,176.48L1362.9,175.12L1365.85,176.3L1368.8,176.39L1377.65,175.3L1380.6,176.43L1383.55,172.43L1386.5,175.15L1389.45,174.91L1392.4,176.37L1395.35,175.3L1398.3,176.29L1404.2,176.39L1407.15,175.28L1410.1,176.38L1413.05,175.79L1418.95,175.4L1421.9,173.45L1424.85,175.79L1427.8,175.89L1430.75,175.67L1433.7,174.66L1436.65,176.47L1439.6,175.22L1442.55,176.38L1445.5,176.24L1448.45,175.37L1451.4,176.61L1454.35,175.19L1457.3,175.81L1463.2,176.49L1466.15,174.6L1469.1,175.95L1472.05,175.58L1475,175.44" data-darkreader-inline-fill="" data-darkreader-inline-stroke=""/></g><g class="points"/><g class="text"/></g></g></g><g class="overplot"/><path class="xlines-above crisp" style="fill: none; --darkreader-inline-fill: none;" d="M0,0" data-darkreader-inline-fill=""/><path class="ylines-above crisp" style="fill: none; --darkreader-inline-fill: none;" d="M0,0" data-darkreader-inline-fill=""/><g class="overlines-above"/><g class="xaxislayer-above"><g class="xtick"><text text-anchor="middle" x="0" y="259" style="font-family: TOBESTRIPPEDOpen SansTOBESTRIPPED, verdana, arial, sans-serif; font-size: 12px; fill: rgb(68, 68, 68); fill-opacity: 1; white-space: pre; opacity: 1; --darkreader-inline-fill: #bdb7af;" transform="translate(60,0)" data-darkreader-inline-fill="">0</text></g><g class="xtick"><text text-anchor="middle" x="0" y="259" style="font-family: TOBESTRIPPEDOpen SansTOBESTRIPPED, verdana, arial, sans-serif; font-size: 12px; fill: rgb(68, 68, 68); fill-opacity: 1; white-space: pre; opacity: 1; --darkreader-inline-fill: #bdb7af;" transform="translate(207.5,0)" data-darkreader-inline-fill="">1k</text></g><g class="xtick"><text text-anchor="middle" x="0" y="259" style="font-family: TOBESTRIPPEDOpen SansTOBESTRIPPED, verdana, arial, sans-serif; font-size: 12px; fill: rgb(68, 68, 68); fill-opacity: 1; white-space: pre; opacity: 1; --darkreader-inline-fill: #bdb7af;" transform="translate(355,0)" data-darkreader-inline-fill="">2k</text></g><g class="xtick"><text text-anchor="middle" x="0" y="259" style="font-family: TOBESTRIPPEDOpen SansTOBESTRIPPED, verdana, arial, sans-serif; font-size: 12px; fill: rgb(68, 68, 68); fill-opacity: 1; white-space: pre; opacity: 1; --darkreader-inline-fill: #bdb7af;" transform="translate(502.5,0)" data-darkreader-inline-fill="">3k</text></g><g class="xtick"><text text-anchor="middle" x="0" y="259" style="font-family: TOBESTRIPPEDOpen SansTOBESTRIPPED, verdana, arial, sans-serif; font-size: 12px; fill: rgb(68, 68, 68); fill-opacity: 1; white-space: pre; opacity: 1; --darkreader-inline-fill: #bdb7af;" transform="translate(650,0)" data-darkreader-inline-fill="">4k</text></g><g class="xtick"><text text-anchor="middle" x="0" y="259" style="font-family: TOBESTRIPPEDOpen SansTOBESTRIPPED, verdana, arial, sans-serif; font-size: 12px; fill: rgb(68, 68, 68); fill-opacity: 1; white-space: pre; opacity: 1; --darkreader-inline-fill: #bdb7af;" transform="translate(797.5,0)" data-darkreader-inline-fill="">5k</text></g><g class="xtick"><text text-anchor="middle" x="0" y="259" style="font-family: TOBESTRIPPEDOpen SansTOBESTRIPPED, verdana, arial, sans-serif; font-size: 12px; fill: rgb(68, 68, 68); fill-opacity: 1; white-space: pre; opacity: 1; --darkreader-inline-fill: #bdb7af;" transform="translate(945,0)" data-darkreader-inline-fill="">6k</text></g><g class="xtick"><text text-anchor="middle" x="0" y="259" style="font-family: TOBESTRIPPEDOpen SansTOBESTRIPPED, verdana, arial, sans-serif; font-size: 12px; fill: rgb(68, 68, 68); fill-opacity: 1; white-space: pre; opacity: 1; --darkreader-inline-fill: #bdb7af;" transform="translate(1092.5,0)" data-darkreader-inline-fill="">7k</text></g><g class="xtick"><text text-anchor="middle" x="0" y="259" style="font-family: TOBESTRIPPEDOpen SansTOBESTRIPPED, verdana, arial, sans-serif; font-size: 12px; fill: rgb(68, 68, 68); fill-opacity: 1; white-space: pre; opacity: 1; --darkreader-inline-fill: #bdb7af;" transform="translate(1240,0)" data-darkreader-inline-fill="">8k</text></g><g class="xtick"><text text-anchor="middle" x="0" y="259" style="font-family: TOBESTRIPPEDOpen SansTOBESTRIPPED, verdana, arial, sans-serif; font-size: 12px; fill: rgb(68, 68, 68); fill-opacity: 1; white-space: pre; opacity: 1; --darkreader-inline-fill: #bdb7af;" transform="translate(1387.5,0)" data-darkreader-inline-fill="">9k</text></g><g class="xtick"><text text-anchor="middle" x="0" y="259" style="font-family: TOBESTRIPPEDOpen SansTOBESTRIPPED, verdana, arial, sans-serif; font-size: 12px; fill: rgb(68, 68, 68); fill-opacity: 1; white-space: pre; opacity: 1; --darkreader-inline-fill: #bdb7af;" transform="translate(1535,0)" data-darkreader-inline-fill="">10k</text></g></g><g class="yaxislayer-above"><g class="ytick"><text text-anchor="end" x="59" y="4.199999999999999" style="font-family: TOBESTRIPPEDOpen SansTOBESTRIPPED, verdana, arial, sans-serif; font-size: 12px; fill: rgb(68, 68, 68); fill-opacity: 1; white-space: pre; opacity: 1; --darkreader-inline-fill: #bdb7af;" transform="translate(0,236.76)" data-darkreader-inline-fill="">0</text></g><g class="ytick"><text text-anchor="end" x="59" y="4.199999999999999" style="font-family: TOBESTRIPPEDOpen SansTOBESTRIPPED, verdana, arial, sans-serif; font-size: 12px; fill: rgb(68, 68, 68); fill-opacity: 1; white-space: pre; opacity: 1; --darkreader-inline-fill: #bdb7af;" transform="translate(0,203.27)" data-darkreader-inline-fill="">0.1</text></g><g class="ytick"><text text-anchor="end" x="59" y="4.199999999999999" style="font-family: TOBESTRIPPEDOpen SansTOBESTRIPPED, verdana, arial, sans-serif; font-size: 12px; fill: rgb(68, 68, 68); fill-opacity: 1; white-space: pre; opacity: 1; --darkreader-inline-fill: #bdb7af;" transform="translate(0,169.78)" data-darkreader-inline-fill="">0.2</text></g><g class="ytick"><text text-anchor="end" x="59" y="4.199999999999999" style="font-family: TOBESTRIPPEDOpen SansTOBESTRIPPED, verdana, arial, sans-serif; font-size: 12px; fill: rgb(68, 68, 68); fill-opacity: 1; white-space: pre; opacity: 1; --darkreader-inline-fill: #bdb7af;" transform="translate(0,136.29000000000002)" data-darkreader-inline-fill="">0.3</text></g><g class="ytick"><text text-anchor="end" x="59" y="4.199999999999999" style="font-family: TOBESTRIPPEDOpen SansTOBESTRIPPED, verdana, arial, sans-serif; font-size: 12px; fill: rgb(68, 68, 68); fill-opacity: 1; white-space: pre; opacity: 1; --darkreader-inline-fill: #bdb7af;" transform="translate(0,102.78999999999999)" data-darkreader-inline-fill="">0.4</text></g><g class="ytick"><text text-anchor="end" x="59" y="4.199999999999999" style="font-family: TOBESTRIPPEDOpen SansTOBESTRIPPED, verdana, arial, sans-serif; font-size: 12px; fill: rgb(68, 68, 68); fill-opacity: 1; white-space: pre; opacity: 1; --darkreader-inline-fill: #bdb7af;" transform="translate(0,69.3)" data-darkreader-inline-fill="">0.5</text></g></g><g class="overaxes-above"/></g></g><g class="polarlayer"/><g class="smithlayer"/><g class="ternarylayer"/><g class="geolayer"/><g class="funnelarealayer"/><g class="pielayer"/><g class="iciclelayer"/><g class="treemaplayer"/><g class="sunburstlayer"/><g class="glimages"/><defs id="topdefs-75b770"><g class="clips"/><clipPath id="legend75b770"><rect width="171" height="29" x="0" y="0"/></clipPath></defs><g class="layer-above"><g class="imagelayer"/><g class="shapelayer"/></g><g class="infolayer"><g class="legend" pointer-events="all" transform="translate(1564.5,60)"><rect class="bg" shape-rendering="crispEdges" style="stroke: rgb(68, 68, 68); stroke-opacity: 1; fill: rgb(255, 255, 255); fill-opacity: 1; stroke-width: 0px; --darkreader-inline-stroke: #bdb7af; --darkreader-inline-fill: #e8e6e3;" width="171" height="29" x="0" y="0" data-darkreader-inline-stroke="" data-darkreader-inline-fill=""/><g class="scrollbox" transform="" clip-path="url(#legend75b770)"><g class="groups"><g class="traces" style="opacity: 1;" transform="translate(0,14.5)"><text class="legendtext" text-anchor="start" style="font-family: TOBESTRIPPEDOpen SansTOBESTRIPPED, verdana, arial, sans-serif; font-size: 12px; fill: rgb(68, 68, 68); fill-opacity: 1; white-space: pre; --darkreader-inline-fill: #bdb7af;" x="40" y="4.680000000000001" data-darkreader-inline-fill="">meta_training_loss</text><g class="layers" style="opacity: 1;"><g class="legendfill"/><g class="legendlines"><path class="js-line" d="M5,0h30" style="fill: none; stroke: rgb(31, 119, 180); stroke-opacity: 1; stroke-width: 2px; --darkreader-inline-fill: none; --darkreader-inline-stroke: #55a8e2;" data-darkreader-inline-fill="" data-darkreader-inline-stroke=""/></g><g class="legendsymbols"><g class="legendpoints"/></g></g><rect class="legendtoggle" style="fill: rgb(0, 0, 0); fill-opacity: 0; --darkreader-inline-fill: #e8e6e3;" x="0" y="-9.5" width="166" height="19" data-darkreader-inline-fill=""/></g></g></g><rect class="scrollbar" rx="20" ry="3" width="0" height="0" style="fill: rgb(128, 139, 164); fill-opacity: 1; --darkreader-inline-fill: #a39b8f;" x="0" y="0" data-darkreader-inline-fill=""/></g><g class="g-gtitle"><text class="gtitle" style="font-family: TOBESTRIPPEDOpen SansTOBESTRIPPED, verdana, arial, sans-serif; font-size: 17px; fill: rgb(68, 68, 68); opacity: 1; font-weight: normal; white-space: pre; --darkreader-inline-fill: #bdb7af;" x="873.5" y="30" text-anchor="middle" dy="0em" data-darkreader-inline-fill="">meta_training_loss</text></g><g class="g-xtitle"/><g class="g-ytitle"/></g></svg>