<svg class="main-svg" xmlns="http://www.w3.org/2000/svg" xmlns:xlink="http://www.w3.org/1999/xlink" width="1747" height="366" style="--darkreader-inline-bgcolor: #181a1b; --darkreader-inline-bgimage: none;" data-darkreader-inline-bgcolor="" data-darkreader-inline-bgimage="" viewBox="0 0 1747 366"><rect x="0" y="0" width="1747" height="366" style="fill: rgb(255, 255, 255); fill-opacity: 1;"/><defs id="defs-1ae6f7"><g class="clips"><clipPath id="clip1ae6f7xyplot" class="plotclip"><rect width="1479" height="246"/></clipPath><clipPath class="axesclip" id="clip1ae6f7x"><rect x="60" y="0" width="1479" height="366"/></clipPath><clipPath class="axesclip" id="clip1ae6f7y"><rect x="0" y="60" width="1747" height="246"/></clipPath><clipPath class="axesclip" id="clip1ae6f7xy"><rect x="60" y="60" width="1479" height="246"/></clipPath></g><g class="gradients"/><g class="patterns"/></defs><g class="bglayer"/><g class="layer-below"><g class="imagelayer"/><g class="shapelayer"/></g><g class="cartesianlayer"><g class="subplot xy"><g class="layer-subplot"><g class="shapelayer"/><g class="imagelayer"/></g><g class="gridlayer"><g class="x"><path class="xgrid crisp" transform="translate(207.9,0)" d="M0,60v246" style="stroke: rgb(238, 238, 238); stroke-opacity: 1; stroke-width: 1px; --darkreader-inline-stroke: #dddad6;" data-darkreader-inline-stroke=""/><path class="xgrid crisp" transform="translate(355.8,0)" d="M0,60v246" style="stroke: rgb(238, 238, 238); stroke-opacity: 1; stroke-width: 1px; --darkreader-inline-stroke: #dddad6;" data-darkreader-inline-stroke=""/><path class="xgrid crisp" transform="translate(503.7,0)" d="M0,60v246" style="stroke: rgb(238, 238, 238); stroke-opacity: 1; stroke-width: 1px; --darkreader-inline-stroke: #dddad6;" data-darkreader-inline-stroke=""/><path class="xgrid crisp" transform="translate(651.6,0)" d="M0,60v246" style="stroke: rgb(238, 238, 238); stroke-opacity: 1; stroke-width: 1px; --darkreader-inline-stroke: #dddad6;" data-darkreader-inline-stroke=""/><path class="xgrid crisp" transform="translate(799.5,0)" d="M0,60v246" style="stroke: rgb(238, 238, 238); stroke-opacity: 1; stroke-width: 1px; --darkreader-inline-stroke: #dddad6;" data-darkreader-inline-stroke=""/><path class="xgrid crisp" transform="translate(947.4,0)" d="M0,60v246" style="stroke: rgb(238, 238, 238); stroke-opacity: 1; stroke-width: 1px; --darkreader-inline-stroke: #dddad6;" data-darkreader-inline-stroke=""/><path class="xgrid crisp" transform="translate(1095.3,0)" d="M0,60v246" style="stroke: rgb(238, 238, 238); stroke-opacity: 1; stroke-width: 1px; --darkreader-inline-stroke: #dddad6;" data-darkreader-inline-stroke=""/><path class="xgrid crisp" transform="translate(1243.2,0)" d="M0,60v246" style="stroke: rgb(238, 238, 238); stroke-opacity: 1; stroke-width: 1px; --darkreader-inline-stroke: #dddad6;" data-darkreader-inline-stroke=""/><path class="xgrid crisp" transform="translate(1391.1,0)" d="M0,60v246" style="stroke: rgb(238, 238, 238); stroke-opacity: 1; stroke-width: 1px; --darkreader-inline-stroke: #dddad6;" data-darkreader-inline-stroke=""/></g><g class="y"><path class="ygrid crisp" transform="translate(0,249.42)" d="M60,0h1479" style="stroke: rgb(238, 238, 238); stroke-opacity: 1; stroke-width: 1px; --darkreader-inline-stroke: #dddad6;" data-darkreader-inline-stroke=""/><path class="ygrid crisp" transform="translate(0,205.14)" d="M60,0h1479" style="stroke: rgb(238, 238, 238); stroke-opacity: 1; stroke-width: 1px; --darkreader-inline-stroke: #dddad6;" data-darkreader-inline-stroke=""/><path class="ygrid crisp" transform="translate(0,160.86)" d="M60,0h1479" style="stroke: rgb(238, 238, 238); stroke-opacity: 1; stroke-width: 1px; --darkreader-inline-stroke: #dddad6;" data-darkreader-inline-stroke=""/><path class="ygrid crisp" transform="translate(0,116.58)" d="M60,0h1479" style="stroke: rgb(238, 238, 238); stroke-opacity: 1; stroke-width: 1px; --darkreader-inline-stroke: #dddad6;" data-darkreader-inline-stroke=""/><path class="ygrid crisp" transform="translate(0,72.3)" d="M60,0h1479" style="stroke: rgb(238, 238, 238); stroke-opacity: 1; stroke-width: 1px; --darkreader-inline-stroke: #dddad6;" data-darkreader-inline-stroke=""/></g></g><g class="zerolinelayer"><path class="xzl zl crisp" transform="translate(60,0)" d="M0,60v246" style="stroke: rgb(68, 68, 68); stroke-opacity: 1; stroke-width: 1px; --darkreader-inline-stroke: #bdb7af;" data-darkreader-inline-stroke=""/><path class="yzl zl crisp" transform="translate(0,293.7)" d="M60,0h1479" style="stroke: rgb(68, 68, 68); stroke-opacity: 1; stroke-width: 1px; --darkreader-inline-stroke: #bdb7af;" data-darkreader-inline-stroke=""/></g><path class="xlines-below"/><path class="ylines-below"/><g class="overlines-below"/><g class="xaxislayer-below"/><g class="yaxislayer-below"/><g class="overaxes-below"/><g class="plot" transform="translate(60,60)" clip-path="url(#clip1ae6f7xyplot)"><g class="scatterlayer mlayer"><g class="trace scatter trace9f8609" style="stroke-miterlimit: 2; opacity: 1;"><g class="fills"/><g class="errorbars"/><g class="lines"><path class="js-line" style="vector-effect: non-scaling-stroke; fill: none; stroke: rgb(31, 119, 180); stroke-opacity: 1; stroke-width: 2px; opacity: 1; --darkreader-inline-fill: none; --darkreader-inline-stroke: #55a8e2;" d="M0,233.7L2.96,224.38L5.92,222.63L8.87,224.96L11.83,222.63L17.75,216.22L20.71,218.55L23.66,203.4L26.62,206.9L32.54,187.67L35.5,177.77L38.45,142.23L41.41,149.22L44.37,131.74L47.33,120.09L50.29,124.75L53.24,123L56.2,107.85L59.16,128.83L62.12,102.61L65.08,88.04L68.03,85.71L70.99,105.52L73.95,93.87L76.91,93.29L79.87,114.84L82.82,97.95L85.78,116.01L88.74,54.83L94.66,102.03L97.61,70.56L100.57,88.62L103.53,95.03L106.49,88.04L109.45,89.21L112.4,60.08L115.36,47.26L118.32,67.07L121.28,80.47L124.24,37.35L127.19,76.97L130.15,69.4L133.11,52.5L136.07,43.18L139.03,81.05L141.98,68.23L144.94,40.85L147.9,76.97L150.86,70.56L153.82,68.23L156.77,41.43L159.73,43.18L162.69,61.82L165.65,37.94L168.61,30.94L174.52,84.55L177.48,55.41L180.44,62.41L183.4,43.76L189.31,58.91L192.27,90.37L195.23,39.68L198.19,44.93L201.14,57.75L204.1,52.5L207.06,55.41L210.02,39.68L212.98,41.43L215.93,69.4L218.89,48.42L221.85,42.01L224.81,58.33L227.77,42.01L230.72,34.44L233.68,48.42L236.64,74.06L239.6,41.43L242.56,44.34L245.51,38.52L248.47,36.19L251.43,41.43L254.39,19.29L257.35,72.31L260.3,38.52L263.26,49.59L266.22,39.1L269.18,40.27L272.14,47.26L275.09,44.34L281.01,35.61L283.97,37.94L286.93,47.26L289.88,49.59L292.84,39.68L295.8,50.17L298.76,60.08L301.72,32.11L304.67,19.87L307.63,31.53L310.59,44.93L313.55,42.01L316.51,22.79L319.46,49.01L322.42,50.75L325.38,40.85L328.34,51.34L331.3,24.54L337.21,49.01L340.17,52.5L343.13,45.51L346.09,28.03L349.04,33.86L352,36.19L354.96,63.57L357.92,39.68L360.88,60.08L363.83,47.84L366.79,65.9L369.75,44.93L372.71,50.75L375.67,50.17L378.62,47.26L381.58,31.53L384.54,30.36L387.5,49.59L390.46,68.23L393.41,53.08L396.37,43.18L399.33,25.12L402.29,53.08L405.25,44.34L408.2,25.12L411.16,46.09L414.12,33.86L417.08,42.01L420.04,41.43L422.99,38.52L425.95,29.2L428.91,32.11L431.87,29.2L434.83,30.36L437.78,67.07L440.74,33.86L443.7,46.09L446.66,62.99L449.62,39.1L452.57,33.86L455.53,24.54L458.49,40.85L461.45,50.17L464.41,56.58L467.36,22.2L470.32,44.34L473.28,29.2L476.24,75.81L479.2,45.51L482.15,46.09L485.11,43.76L488.07,57.16L491.03,32.69L493.99,28.03L496.94,33.27L499.9,33.27L502.86,41.43L505.82,20.46L508.78,30.36L511.73,30.94L514.69,18.13L517.65,22.2L520.61,43.76L523.57,44.34L526.52,43.18L529.48,29.78L532.44,21.62L535.4,36.77L538.36,44.93L541.31,56.58L544.27,28.03L547.23,33.86L550.19,32.11L553.15,44.93L556.1,33.86L559.06,36.77L564.98,16.38L567.94,35.02L570.89,50.75L573.85,60.08L576.81,61.24L579.77,28.03L582.73,40.27L585.68,40.85L588.64,25.7L591.6,26.28L594.56,30.36L597.52,23.37L600.47,40.27L603.43,35.61L606.39,35.02L609.35,13.47L612.31,45.51L615.26,36.77L618.22,57.75L621.18,22.79L624.14,35.02L627.1,37.35L630.05,30.36L633.01,45.51L635.97,31.53L638.93,29.2L641.89,40.27L644.84,35.61L647.8,21.62L650.76,19.29L653.72,20.46L656.68,33.27L659.63,29.2L662.59,29.78L665.55,23.37L668.51,31.53L671.47,26.28L674.42,51.92L677.38,51.92L680.34,37.94L683.3,22.79L686.26,25.12L689.21,37.94L692.17,35.02L695.13,44.34L698.09,19.29L701.05,19.87L704,25.7L706.96,32.11L709.92,25.7L712.88,46.68L715.84,33.27L718.79,64.74L721.75,23.95L724.71,27.45L727.67,34.44L733.58,57.75L736.54,35.61L739.5,42.01L742.46,28.03L745.42,28.03L748.37,32.69L751.33,22.79L754.29,20.46L757.25,25.12L760.21,23.37L763.16,44.34L766.12,30.36L769.08,18.13L772.04,23.37L775,27.45L777.95,16.38L783.87,19.29L786.83,43.76L789.79,34.44L792.74,21.04L795.7,20.46L798.66,32.69L801.62,18.71L804.58,39.1L807.53,15.8L810.49,37.94L813.45,39.68L816.41,28.61L819.37,37.94L822.32,25.12L825.28,25.7L828.24,42.6L831.2,31.53L834.16,35.61L837.11,18.71L840.07,36.19L843.03,36.19L845.99,26.87L848.95,29.2L851.9,28.61L854.86,20.46L857.82,15.8L860.78,24.54L863.74,17.54L866.69,21.62L869.65,30.36L872.61,31.53L875.57,15.21L878.53,16.38L881.48,23.95L884.44,25.12L887.4,15.21L890.36,58.91L893.32,12.3L896.27,47.26L899.23,33.86L902.19,14.63L905.15,28.61L908.11,17.54L911.06,23.95L914.02,18.13L916.98,15.8L919.94,21.04L922.9,40.85L925.85,22.79L928.81,22.79L931.77,25.12L934.73,19.87L937.69,32.11L940.64,36.77L943.6,15.21L946.56,28.61L949.52,27.45L952.48,44.93L955.43,21.04L958.39,29.78L961.35,25.7L964.31,26.87L967.27,16.38L970.22,21.62L973.18,18.13L976.14,41.43L979.1,22.79L982.06,21.04L987.97,20.46L990.93,44.93L993.89,16.38L996.85,51.92L999.8,15.21L1002.76,21.62L1005.72,34.44L1008.68,17.54L1011.64,14.05L1014.59,24.54L1020.51,15.8L1023.47,23.37L1026.43,43.18L1029.38,29.78L1032.34,26.28L1035.3,27.45L1038.26,12.3L1041.22,20.46L1044.17,32.69L1047.13,17.54L1050.09,24.54L1053.05,23.37L1056.01,12.3L1058.96,26.28L1061.92,21.62L1064.88,23.95L1067.84,20.46L1070.8,22.79L1073.75,28.03L1076.71,28.03L1079.67,14.63L1082.63,23.95L1085.59,15.8L1088.54,19.87L1091.5,28.61L1094.46,12.88L1097.42,39.68L1100.38,25.7L1103.33,12.3L1106.29,12.3L1109.25,20.46L1112.21,18.13L1115.17,16.96L1118.12,16.96L1121.08,17.54L1124.04,28.03L1127,22.2L1129.96,28.61L1135.87,15.21L1138.83,37.94L1141.79,13.47L1144.75,18.71L1150.66,30.94L1153.62,22.79L1156.58,16.96L1159.54,26.87L1162.49,36.77L1165.45,29.2L1171.37,14.05L1174.33,23.95L1177.28,35.02L1180.24,28.61L1183.2,15.21L1186.16,15.21L1189.12,35.61L1192.07,22.2L1195.03,18.13L1197.99,16.38L1200.95,21.62L1203.91,22.79L1206.86,23.37L1209.82,25.12L1212.78,16.96L1215.74,16.96L1218.7,21.04L1221.65,15.8L1224.61,15.21L1227.57,28.61L1230.53,22.79L1233.49,32.69L1236.44,19.87L1239.4,18.71L1242.36,16.96L1245.32,25.7L1248.28,14.05L1251.23,33.27L1254.19,16.96L1257.15,12.3L1260.11,34.44L1263.07,33.27L1266.02,24.54L1268.98,26.87L1271.94,19.87L1274.9,15.8L1277.86,30.36L1280.81,12.88L1283.77,12.3L1286.73,23.37L1289.69,29.2L1292.65,29.78L1295.6,23.37L1298.56,22.2L1301.52,27.45L1304.48,35.61L1307.44,21.04L1310.39,19.29L1313.35,20.46L1316.31,15.21L1319.27,16.38L1322.23,21.62L1325.18,25.12L1328.14,21.04L1331.1,21.62L1334.06,19.29L1337.02,18.13L1339.97,26.28L1342.93,21.04L1345.89,24.54L1348.85,28.03L1351.81,25.12L1354.76,17.54L1357.72,33.27L1360.68,19.29L1363.64,12.3L1366.6,12.3L1369.55,26.28L1372.51,17.54L1375.47,18.13L1378.43,17.54L1381.39,18.13L1387.3,20.46L1390.26,19.29L1393.22,21.04L1396.18,25.7L1399.13,25.12L1402.09,19.87L1405.05,21.62L1408.01,16.38L1410.97,14.05L1413.92,24.54L1416.88,17.54L1419.84,15.8L1422.8,31.53L1425.76,28.61L1428.71,15.21L1431.67,14.05L1434.63,21.62L1437.59,22.79L1440.55,16.38L1443.5,15.8L1446.46,16.38L1449.42,26.87L1452.38,12.3L1455.34,17.54L1458.29,20.46L1461.25,15.21L1464.21,20.46L1467.17,22.2L1470.13,15.8L1473.08,16.38L1476.04,26.87L1479,16.38" data-darkreader-inline-fill="" data-darkreader-inline-stroke=""/></g><g class="points"/><g class="text"/></g></g></g><g class="overplot"/><path class="xlines-above crisp" style="fill: none; --darkreader-inline-fill: none;" d="M0,0" data-darkreader-inline-fill=""/><path class="ylines-above crisp" style="fill: none; --darkreader-inline-fill: none;" d="M0,0" data-darkreader-inline-fill=""/><g class="overlines-above"/><g class="xaxislayer-above"><g class="xtick"><text text-anchor="middle" x="0" y="319" style="font-family: TOBESTRIPPEDOpen SansTOBESTRIPPED, verdana, arial, sans-serif; font-size: 12px; fill: rgb(68, 68, 68); fill-opacity: 1; white-space: pre; opacity: 1; --darkreader-inline-fill: #bdb7af;" transform="translate(60,0)" data-darkreader-inline-fill="">0</text></g><g class="xtick"><text text-anchor="middle" x="0" y="319" style="font-family: TOBESTRIPPEDOpen SansTOBESTRIPPED, verdana, arial, sans-serif; font-size: 12px; fill: rgb(68, 68, 68); fill-opacity: 1; white-space: pre; opacity: 1; --darkreader-inline-fill: #bdb7af;" transform="translate(207.9,0)" data-darkreader-inline-fill="">1k</text></g><g class="xtick"><text text-anchor="middle" x="0" y="319" style="font-family: TOBESTRIPPEDOpen SansTOBESTRIPPED, verdana, arial, sans-serif; font-size: 12px; fill: rgb(68, 68, 68); fill-opacity: 1; white-space: pre; opacity: 1; --darkreader-inline-fill: #bdb7af;" transform="translate(355.8,0)" data-darkreader-inline-fill="">2k</text></g><g class="xtick"><text text-anchor="middle" x="0" y="319" style="font-family: TOBESTRIPPEDOpen SansTOBESTRIPPED, verdana, arial, sans-serif; font-size: 12px; fill: rgb(68, 68, 68); fill-opacity: 1; white-space: pre; opacity: 1; --darkreader-inline-fill: #bdb7af;" transform="translate(503.7,0)" data-darkreader-inline-fill="">3k</text></g><g class="xtick"><text text-anchor="middle" x="0" y="319" style="font-family: TOBESTRIPPEDOpen SansTOBESTRIPPED, verdana, arial, sans-serif; font-size: 12px; fill: rgb(68, 68, 68); fill-opacity: 1; white-space: pre; opacity: 1; --darkreader-inline-fill: #bdb7af;" transform="translate(651.6,0)" data-darkreader-inline-fill="">4k</text></g><g class="xtick"><text text-anchor="middle" x="0" y="319" style="font-family: TOBESTRIPPEDOpen SansTOBESTRIPPED, verdana, arial, sans-serif; font-size: 12px; fill: rgb(68, 68, 68); fill-opacity: 1; white-space: pre; opacity: 1; --darkreader-inline-fill: #bdb7af;" transform="translate(799.5,0)" data-darkreader-inline-fill="">5k</text></g><g class="xtick"><text text-anchor="middle" x="0" y="319" style="font-family: TOBESTRIPPEDOpen SansTOBESTRIPPED, verdana, arial, sans-serif; font-size: 12px; fill: rgb(68, 68, 68); fill-opacity: 1; white-space: pre; opacity: 1; --darkreader-inline-fill: #bdb7af;" transform="translate(947.4,0)" data-darkreader-inline-fill="">6k</text></g><g class="xtick"><text text-anchor="middle" x="0" y="319" style="font-family: TOBESTRIPPEDOpen SansTOBESTRIPPED, verdana, arial, sans-serif; font-size: 12px; fill: rgb(68, 68, 68); fill-opacity: 1; white-space: pre; opacity: 1; --darkreader-inline-fill: #bdb7af;" transform="translate(1095.3,0)" data-darkreader-inline-fill="">7k</text></g><g class="xtick"><text text-anchor="middle" x="0" y="319" style="font-family: TOBESTRIPPEDOpen SansTOBESTRIPPED, verdana, arial, sans-serif; font-size: 12px; fill: rgb(68, 68, 68); fill-opacity: 1; white-space: pre; opacity: 1; --darkreader-inline-fill: #bdb7af;" transform="translate(1243.2,0)" data-darkreader-inline-fill="">8k</text></g><g class="xtick"><text text-anchor="middle" x="0" y="319" style="font-family: TOBESTRIPPEDOpen SansTOBESTRIPPED, verdana, arial, sans-serif; font-size: 12px; fill: rgb(68, 68, 68); fill-opacity: 1; white-space: pre; opacity: 1; --darkreader-inline-fill: #bdb7af;" transform="translate(1391.1,0)" data-darkreader-inline-fill="">9k</text></g><g class="xtick"><text text-anchor="middle" x="0" y="319" style="font-family: TOBESTRIPPEDOpen SansTOBESTRIPPED, verdana, arial, sans-serif; font-size: 12px; fill: rgb(68, 68, 68); fill-opacity: 1; white-space: pre; opacity: 1; --darkreader-inline-fill: #bdb7af;" transform="translate(1539,0)" data-darkreader-inline-fill="">10k</text></g></g><g class="yaxislayer-above"><g class="ytick"><text text-anchor="end" x="59" y="4.199999999999999" style="font-family: TOBESTRIPPEDOpen SansTOBESTRIPPED, verdana, arial, sans-serif; font-size: 12px; fill: rgb(68, 68, 68); fill-opacity: 1; white-space: pre; opacity: 1; --darkreader-inline-fill: #bdb7af;" transform="translate(0,293.7)" data-darkreader-inline-fill="">0</text></g><g class="ytick"><text text-anchor="end" x="59" y="4.199999999999999" style="font-family: TOBESTRIPPEDOpen SansTOBESTRIPPED, verdana, arial, sans-serif; font-size: 12px; fill: rgb(68, 68, 68); fill-opacity: 1; white-space: pre; opacity: 1; --darkreader-inline-fill: #bdb7af;" transform="translate(0,249.42)" data-darkreader-inline-fill="">20</text></g><g class="ytick"><text text-anchor="end" x="59" y="4.199999999999999" style="font-family: TOBESTRIPPEDOpen SansTOBESTRIPPED, verdana, arial, sans-serif; font-size: 12px; fill: rgb(68, 68, 68); fill-opacity: 1; white-space: pre; opacity: 1; --darkreader-inline-fill: #bdb7af;" transform="translate(0,205.14)" data-darkreader-inline-fill="">40</text></g><g class="ytick"><text text-anchor="end" x="59" y="4.199999999999999" style="font-family: TOBESTRIPPEDOpen SansTOBESTRIPPED, verdana, arial, sans-serif; font-size: 12px; fill: rgb(68, 68, 68); fill-opacity: 1; white-space: pre; opacity: 1; --darkreader-inline-fill: #bdb7af;" transform="translate(0,160.86)" data-darkreader-inline-fill="">60</text></g><g class="ytick"><text text-anchor="end" x="59" y="4.199999999999999" style="font-family: TOBESTRIPPEDOpen SansTOBESTRIPPED, verdana, arial, sans-serif; font-size: 12px; fill: rgb(68, 68, 68); fill-opacity: 1; white-space: pre; opacity: 1; --darkreader-inline-fill: #bdb7af;" transform="translate(0,116.58)" data-darkreader-inline-fill="">80</text></g><g class="ytick"><text text-anchor="end" x="59" y="4.199999999999999" style="font-family: TOBESTRIPPEDOpen SansTOBESTRIPPED, verdana, arial, sans-serif; font-size: 12px; fill: rgb(68, 68, 68); fill-opacity: 1; white-space: pre; opacity: 1; --darkreader-inline-fill: #bdb7af;" transform="translate(0,72.3)" data-darkreader-inline-fill="">100</text></g></g><g class="overaxes-above"/></g></g><g class="polarlayer"/><g class="smithlayer"/><g class="ternarylayer"/><g class="geolayer"/><g class="funnelarealayer"/><g class="pielayer"/><g class="iciclelayer"/><g class="treemaplayer"/><g class="sunburstlayer"/><g class="glimages"/><defs id="topdefs-1ae6f7"><g class="clips"/><clipPath id="legend1ae6f7"><rect width="166" height="29" x="0" y="0"/></clipPath></defs><g class="layer-above"><g class="imagelayer"/><g class="shapelayer"/></g><g class="infolayer"><g class="legend" pointer-events="all" transform="translate(1568.58,60)"><rect class="bg" shape-rendering="crispEdges" style="stroke: rgb(68, 68, 68); stroke-opacity: 1; fill: rgb(255, 255, 255); fill-opacity: 1; stroke-width: 0px; --darkreader-inline-stroke: #bdb7af; --darkreader-inline-fill: #e8e6e3;" width="166" height="29" x="0" y="0" data-darkreader-inline-stroke="" data-darkreader-inline-fill=""/><g class="scrollbox" transform="" clip-path="url(#legend1ae6f7)"><g class="groups"><g class="traces" style="opacity: 1;" transform="translate(0,14.5)"><text class="legendtext" text-anchor="start" style="font-family: TOBESTRIPPEDOpen SansTOBESTRIPPED, verdana, arial, sans-serif; font-size: 12px; fill: rgb(68, 68, 68); fill-opacity: 1; white-space: pre; --darkreader-inline-fill: #bdb7af;" x="40" y="4.680000000000001" data-darkreader-inline-fill="">meta_training_acc</text><g class="layers" style="opacity: 1;"><g class="legendfill"/><g class="legendlines"><path class="js-line" d="M5,0h30" style="fill: none; stroke: rgb(31, 119, 180); stroke-opacity: 1; stroke-width: 2px; --darkreader-inline-fill: none; --darkreader-inline-stroke: #55a8e2;" data-darkreader-inline-fill="" data-darkreader-inline-stroke=""/></g><g class="legendsymbols"><g class="legendpoints"/></g></g><rect class="legendtoggle" style="fill: rgb(0, 0, 0); fill-opacity: 0; --darkreader-inline-fill: #e8e6e3;" x="0" y="-9.5" width="161" height="19" data-darkreader-inline-fill=""/></g></g></g><rect class="scrollbar" rx="20" ry="3" width="0" height="0" style="fill: rgb(128, 139, 164); fill-opacity: 1; --darkreader-inline-fill: #a39b8f;" x="0" y="0" data-darkreader-inline-fill=""/></g><g class="g-gtitle"><text class="gtitle" style="font-family: TOBESTRIPPEDOpen SansTOBESTRIPPED, verdana, arial, sans-serif; font-size: 17px; fill: rgb(68, 68, 68); opacity: 1; font-weight: normal; white-space: pre; --darkreader-inline-fill: #bdb7af;" x="873.5" y="30" text-anchor="middle" dy="0em" data-darkreader-inline-fill="">meta_training_acc</text></g><g class="g-xtitle"/><g class="g-ytitle"/></g></svg>