<svg class="main-svg" xmlns="http://www.w3.org/2000/svg" xmlns:xlink="http://www.w3.org/1999/xlink" width="1747" height="366" style="--darkreader-inline-bgcolor: #181a1b; --darkreader-inline-bgimage: none;" data-darkreader-inline-bgcolor="" data-darkreader-inline-bgimage="" viewBox="0 0 1747 366"><rect x="0" y="0" width="1747" height="366" style="fill: rgb(255, 255, 255); fill-opacity: 1;"/><defs id="defs-6d9112"><g class="clips"><clipPath id="clip6d9112xyplot" class="plotclip"><rect width="1479" height="246"/></clipPath><clipPath class="axesclip" id="clip6d9112x"><rect x="60" y="0" width="1479" height="366"/></clipPath><clipPath class="axesclip" id="clip6d9112y"><rect x="0" y="60" width="1747" height="246"/></clipPath><clipPath class="axesclip" id="clip6d9112xy"><rect x="60" y="60" width="1479" height="246"/></clipPath></g><g class="gradients"/><g class="patterns"/></defs><g class="bglayer"/><g class="layer-below"><g class="imagelayer"/><g class="shapelayer"/></g><g class="cartesianlayer"><g class="subplot xy"><g class="layer-subplot"><g class="shapelayer"/><g class="imagelayer"/></g><g class="gridlayer"><g class="x"><path class="xgrid crisp" transform="translate(207.9,0)" d="M0,60v246" style="stroke: rgb(238, 238, 238); stroke-opacity: 1; stroke-width: 1px; --darkreader-inline-stroke: #dddad6;" data-darkreader-inline-stroke=""/><path class="xgrid crisp" transform="translate(355.8,0)" d="M0,60v246" style="stroke: rgb(238, 238, 238); stroke-opacity: 1; stroke-width: 1px; --darkreader-inline-stroke: #dddad6;" data-darkreader-inline-stroke=""/><path class="xgrid crisp" transform="translate(503.7,0)" d="M0,60v246" style="stroke: rgb(238, 238, 238); stroke-opacity: 1; stroke-width: 1px; --darkreader-inline-stroke: #dddad6;" data-darkreader-inline-stroke=""/><path class="xgrid crisp" transform="translate(651.6,0)" d="M0,60v246" style="stroke: rgb(238, 238, 238); stroke-opacity: 1; stroke-width: 1px; --darkreader-inline-stroke: #dddad6;" data-darkreader-inline-stroke=""/><path class="xgrid crisp" transform="translate(799.5,0)" d="M0,60v246" style="stroke: rgb(238, 238, 238); stroke-opacity: 1; stroke-width: 1px; --darkreader-inline-stroke: #dddad6;" data-darkreader-inline-stroke=""/><path class="xgrid crisp" transform="translate(947.4,0)" d="M0,60v246" style="stroke: rgb(238, 238, 238); stroke-opacity: 1; stroke-width: 1px; --darkreader-inline-stroke: #dddad6;" data-darkreader-inline-stroke=""/><path class="xgrid crisp" transform="translate(1095.3,0)" d="M0,60v246" style="stroke: rgb(238, 238, 238); stroke-opacity: 1; stroke-width: 1px; --darkreader-inline-stroke: #dddad6;" data-darkreader-inline-stroke=""/><path class="xgrid crisp" transform="translate(1243.2,0)" d="M0,60v246" style="stroke: rgb(238, 238, 238); stroke-opacity: 1; stroke-width: 1px; --darkreader-inline-stroke: #dddad6;" data-darkreader-inline-stroke=""/><path class="xgrid crisp" transform="translate(1391.1,0)" d="M0,60v246" style="stroke: rgb(238, 238, 238); stroke-opacity: 1; stroke-width: 1px; --darkreader-inline-stroke: #dddad6;" data-darkreader-inline-stroke=""/></g><g class="y"><path class="ygrid crisp" transform="translate(0,233.61)" d="M60,0h1479" style="stroke: rgb(238, 238, 238); stroke-opacity: 1; stroke-width: 1px; --darkreader-inline-stroke: #dddad6;" data-darkreader-inline-stroke=""/><path class="ygrid crisp" transform="translate(0,173.51)" d="M60,0h1479" style="stroke: rgb(238, 238, 238); stroke-opacity: 1; stroke-width: 1px; --darkreader-inline-stroke: #dddad6;" data-darkreader-inline-stroke=""/><path class="ygrid crisp" transform="translate(0,113.42)" d="M60,0h1479" style="stroke: rgb(238, 238, 238); stroke-opacity: 1; stroke-width: 1px; --darkreader-inline-stroke: #dddad6;" data-darkreader-inline-stroke=""/></g></g><g class="zerolinelayer"><path class="xzl zl crisp" transform="translate(60,0)" d="M0,60v246" style="stroke: rgb(68, 68, 68); stroke-opacity: 1; stroke-width: 1px; --darkreader-inline-stroke: #bdb7af;" data-darkreader-inline-stroke=""/><path class="yzl zl crisp" transform="translate(0,293.7)" d="M60,0h1479" style="stroke: rgb(68, 68, 68); stroke-opacity: 1; stroke-width: 1px; --darkreader-inline-stroke: #bdb7af;" data-darkreader-inline-stroke=""/></g><path class="xlines-below"/><path class="ylines-below"/><g class="overlines-below"/><g class="xaxislayer-below"/><g class="yaxislayer-below"/><g class="overaxes-below"/><g class="plot" transform="translate(60,60)" clip-path="url(#clip6d9112xyplot)"><g class="scatterlayer mlayer"><g class="trace scatter traceda72cf" style="stroke-miterlimit: 2; opacity: 1;"><g class="fills"/><g class="errorbars"/><g class="lines"><path class="js-line" style="vector-effect: non-scaling-stroke; fill: none; stroke: rgb(31, 119, 180); stroke-opacity: 1; stroke-width: 2px; opacity: 1; --darkreader-inline-fill: none; --darkreader-inline-stroke: #55a8e2;" d="M0,233.7L2.96,12.3L5.92,123L8.87,75.56L11.83,91.37L14.79,91.37L17.75,75.56L23.66,91.37L26.62,91.37L29.58,75.56L32.54,107.19L35.5,59.74L38.45,123L41.41,83.46L44.37,83.46L47.33,51.84L50.29,83.46L56.2,83.46L59.16,67.65L62.12,107.19L65.08,107.19L68.03,99.28L70.99,75.56L73.95,91.37L76.91,83.46L79.87,67.65L82.82,83.46L85.78,91.37L88.74,83.46L91.7,75.56L94.66,91.37L97.61,107.19L100.57,67.65L103.53,99.28L106.49,83.46L109.45,83.46L112.4,91.37L115.36,83.46L118.32,67.65L121.28,83.46L124.24,91.37L127.19,59.74L130.15,138.81L133.11,91.37L136.07,83.46L139.03,59.74L141.98,59.74L147.9,91.37L150.86,83.46L153.82,99.28L156.77,83.46L159.73,91.37L162.69,51.84L165.65,83.46L168.61,83.46L171.56,67.65L174.52,59.74L177.48,91.37L180.44,107.19L183.4,51.84L186.35,75.56L189.31,107.19L192.27,99.28L195.23,75.56L198.19,75.56L201.14,75.56L204.1,67.65L207.06,91.37L210.02,107.19L212.98,130.91L215.93,59.74L218.89,67.65L221.85,67.65L224.81,91.37L227.77,83.46L230.72,91.37L233.68,123L236.64,51.84L239.6,75.56L242.56,75.56L245.51,83.46L248.47,115.09L251.43,83.46L254.39,91.37L257.35,83.46L260.3,107.19L263.26,83.46L266.22,75.56L269.18,91.37L272.14,83.46L275.09,99.28L278.05,75.56L281.01,107.19L289.88,59.74L292.84,107.19L295.8,59.74L298.76,107.19L301.72,59.74L304.67,107.19L307.63,99.28L310.59,83.46L313.55,99.28L316.51,59.74L319.46,83.46L322.42,75.56L325.38,67.65L328.34,67.65L331.3,99.28L334.25,75.56L340.17,91.37L343.13,75.56L346.09,91.37L349.04,83.46L352,59.74L354.96,83.46L357.92,115.09L360.88,75.56L363.83,99.28L366.79,91.37L369.75,123L372.71,99.28L375.67,91.37L378.62,115.09L381.58,67.65L384.54,67.65L387.5,107.19L390.46,83.46L393.41,83.46L396.37,107.19L399.33,99.28L402.29,83.46L405.25,91.37L408.2,67.65L411.16,107.19L414.12,75.56L417.08,115.09L420.04,115.09L422.99,123L425.95,91.37L428.91,75.56L431.87,99.28L434.83,83.46L437.78,107.19L440.74,107.19L443.7,59.74L446.66,67.65L449.62,99.28L452.57,59.74L455.53,83.46L458.49,83.46L461.45,91.37L464.41,91.37L467.36,99.28L470.32,99.28L473.28,91.37L476.24,107.19L479.2,75.56L482.15,67.65L485.11,83.46L488.07,91.37L491.03,75.56L493.99,107.19L496.94,75.56L499.9,91.37L502.86,51.84L505.82,107.19L508.78,59.74L511.73,83.46L514.69,75.56L517.65,51.84L520.61,83.46L523.57,91.37L526.52,36.02L529.48,83.46L532.44,75.56L535.4,59.74L538.36,75.56L541.31,99.28L544.27,115.09L547.23,91.37L550.19,115.09L553.15,130.91L556.1,99.28L559.06,83.46L562.02,99.28L564.98,75.56L567.94,91.37L570.89,91.37L573.85,99.28L576.81,75.56L579.77,99.28L582.73,115.09L585.68,83.46L588.64,91.37L591.6,107.19L594.56,107.19L597.52,67.65L600.47,91.37L603.43,75.56L606.39,91.37L609.35,123L612.31,99.28L615.26,115.09L618.22,59.74L621.18,91.37L624.14,91.37L627.1,99.28L630.05,75.56L633.01,67.65L635.97,83.46L638.93,67.65L641.89,83.46L644.84,75.56L647.8,75.56L650.76,51.84L653.72,91.37L656.68,75.56L659.63,83.46L662.59,107.19L665.55,83.46L668.51,115.09L671.47,99.28L674.42,91.37L677.38,91.37L680.34,67.65L683.3,99.28L686.26,83.46L689.21,67.65L692.17,67.65L695.13,83.46L698.09,91.37L704,75.56L706.96,123L709.92,67.65L712.88,83.46L715.84,59.74L718.79,83.46L721.75,67.65L724.71,91.37L727.67,75.56L730.63,91.37L733.58,91.37L736.54,115.09L739.5,59.74L742.46,91.37L745.42,99.28L748.37,67.65L751.33,91.37L754.29,59.74L757.25,115.09L760.21,36.02L763.16,67.65L766.12,59.74L769.08,99.28L772.04,67.65L775,115.09L777.95,83.46L780.91,67.65L783.87,107.19L786.83,75.56L789.79,99.28L792.74,83.46L795.7,99.28L798.66,130.91L801.62,91.37L804.58,107.19L807.53,83.46L810.49,83.46L813.45,67.65L816.41,99.28L819.37,91.37L822.32,67.65L825.28,75.56L828.24,83.46L831.2,99.28L834.16,59.74L837.11,75.56L840.07,28.11L843.03,67.65L845.99,99.28L848.95,59.74L851.9,75.56L854.86,75.56L857.82,115.09L860.78,83.46L863.74,36.02L866.69,115.09L872.61,67.65L875.57,75.56L878.53,75.56L881.48,83.46L884.44,107.19L887.4,123L890.36,67.65L893.32,99.28L896.27,107.19L899.23,83.46L902.19,99.28L905.15,75.56L908.11,75.56L911.06,51.84L914.02,99.28L916.98,115.09L919.94,83.46L922.9,123L925.85,99.28L928.81,99.28L931.77,75.56L934.73,43.93L937.69,91.37L940.64,99.28L943.6,91.37L946.56,91.37L949.52,91.37L952.48,59.74L955.43,123L958.39,59.74L961.35,67.65L964.31,91.37L967.27,83.46L970.22,83.46L973.18,91.37L976.14,83.46L979.1,75.56L982.06,75.56L985.01,99.28L987.97,99.28L990.93,67.65L993.89,107.19L996.85,83.46L999.8,75.56L1005.72,107.19L1008.68,130.91L1011.64,83.46L1014.59,99.28L1020.51,99.28L1023.47,83.46L1026.43,67.65L1029.38,99.28L1032.34,75.56L1035.3,91.37L1038.26,115.09L1041.22,107.19L1044.17,75.56L1047.13,83.46L1050.09,75.56L1053.05,99.28L1056.01,107.19L1058.96,91.37L1061.92,99.28L1064.88,67.65L1067.84,75.56L1070.8,130.91L1073.75,83.46L1076.71,59.74L1079.67,67.65L1082.63,107.19L1085.59,107.19L1088.54,75.56L1091.5,107.19L1094.46,91.37L1097.42,75.56L1100.38,75.56L1103.33,83.46L1106.29,59.74L1109.25,99.28L1112.21,99.28L1115.17,99.28L1118.12,91.37L1121.08,67.65L1124.04,67.65L1127,83.46L1129.96,115.09L1132.91,99.28L1135.87,67.65L1138.83,83.46L1141.79,123L1144.75,75.56L1147.7,115.09L1150.66,75.56L1153.62,83.46L1156.58,91.37L1159.54,43.93L1162.49,107.19L1165.45,99.28L1168.41,83.46L1171.37,99.28L1174.33,99.28L1177.28,91.37L1180.24,83.46L1183.2,99.28L1186.16,59.74L1189.12,91.37L1192.07,83.46L1195.03,123L1197.99,83.46L1200.95,99.28L1203.91,75.56L1206.86,99.28L1209.82,91.37L1212.78,43.93L1215.74,91.37L1218.7,83.46L1221.65,83.46L1224.61,91.37L1227.57,91.37L1230.53,107.19L1233.49,75.56L1236.44,83.46L1239.4,83.46L1242.36,91.37L1245.32,99.28L1248.28,115.09L1251.23,67.65L1254.19,83.46L1257.15,107.19L1260.11,36.02L1263.07,99.28L1266.02,115.09L1268.98,36.02L1271.94,59.74L1274.9,67.65L1277.86,67.65L1280.81,83.46L1283.77,59.74L1286.73,75.56L1289.69,75.56L1292.65,115.09L1295.6,123L1298.56,83.46L1301.52,83.46L1304.48,99.28L1307.44,43.93L1310.39,107.19L1313.35,59.74L1316.31,51.84L1319.27,99.28L1322.23,59.74L1325.18,67.65L1328.14,83.46L1331.1,67.65L1334.06,115.09L1337.02,91.37L1339.97,43.93L1342.93,91.37L1345.89,67.65L1348.85,75.56L1351.81,83.46L1354.76,83.46L1357.72,91.37L1360.68,83.46L1363.64,83.46L1366.6,99.28L1369.55,75.56L1372.51,43.93L1375.47,83.46L1378.43,99.28L1381.39,99.28L1384.34,91.37L1387.3,130.91L1390.26,91.37L1393.22,51.84L1396.18,75.56L1399.13,91.37L1402.09,123L1405.05,91.37L1408.01,75.56L1410.97,75.56L1413.92,67.65L1416.88,99.28L1419.84,83.46L1422.8,83.46L1425.76,75.56L1428.71,51.84L1431.67,107.19L1434.63,130.91L1437.59,107.19L1440.55,107.19L1443.5,83.46L1446.46,75.56L1449.42,91.37L1452.38,107.19L1455.34,115.09L1461.25,59.74L1464.21,91.37L1467.17,91.37L1470.13,115.09L1473.08,99.28L1476.04,75.56L1479,83.46" data-darkreader-inline-fill="" data-darkreader-inline-stroke=""/></g><g class="points"/><g class="text"/></g></g></g><g class="overplot"/><path class="xlines-above crisp" style="fill: none; --darkreader-inline-fill: none;" d="M0,0" data-darkreader-inline-fill=""/><path class="ylines-above crisp" style="fill: none; --darkreader-inline-fill: none;" d="M0,0" data-darkreader-inline-fill=""/><g class="overlines-above"/><g class="xaxislayer-above"><g class="xtick"><text text-anchor="middle" x="0" y="319" style="font-family: TOBESTRIPPEDOpen SansTOBESTRIPPED, verdana, arial, sans-serif; font-size: 12px; fill: rgb(68, 68, 68); fill-opacity: 1; white-space: pre; opacity: 1; --darkreader-inline-fill: #bdb7af;" transform="translate(60,0)" data-darkreader-inline-fill="">0</text></g><g class="xtick"><text text-anchor="middle" x="0" y="319" style="font-family: TOBESTRIPPEDOpen SansTOBESTRIPPED, verdana, arial, sans-serif; font-size: 12px; fill: rgb(68, 68, 68); fill-opacity: 1; white-space: pre; opacity: 1; --darkreader-inline-fill: #bdb7af;" transform="translate(207.9,0)" data-darkreader-inline-fill="">1k</text></g><g class="xtick"><text text-anchor="middle" x="0" y="319" style="font-family: TOBESTRIPPEDOpen SansTOBESTRIPPED, verdana, arial, sans-serif; font-size: 12px; fill: rgb(68, 68, 68); fill-opacity: 1; white-space: pre; opacity: 1; --darkreader-inline-fill: #bdb7af;" transform="translate(355.8,0)" data-darkreader-inline-fill="">2k</text></g><g class="xtick"><text text-anchor="middle" x="0" y="319" style="font-family: TOBESTRIPPEDOpen SansTOBESTRIPPED, verdana, arial, sans-serif; font-size: 12px; fill: rgb(68, 68, 68); fill-opacity: 1; white-space: pre; opacity: 1; --darkreader-inline-fill: #bdb7af;" transform="translate(503.7,0)" data-darkreader-inline-fill="">3k</text></g><g class="xtick"><text text-anchor="middle" x="0" y="319" style="font-family: TOBESTRIPPEDOpen SansTOBESTRIPPED, verdana, arial, sans-serif; font-size: 12px; fill: rgb(68, 68, 68); fill-opacity: 1; white-space: pre; opacity: 1; --darkreader-inline-fill: #bdb7af;" transform="translate(651.6,0)" data-darkreader-inline-fill="">4k</text></g><g class="xtick"><text text-anchor="middle" x="0" y="319" style="font-family: TOBESTRIPPEDOpen SansTOBESTRIPPED, verdana, arial, sans-serif; font-size: 12px; fill: rgb(68, 68, 68); fill-opacity: 1; white-space: pre; opacity: 1; --darkreader-inline-fill: #bdb7af;" transform="translate(799.5,0)" data-darkreader-inline-fill="">5k</text></g><g class="xtick"><text text-anchor="middle" x="0" y="319" style="font-family: TOBESTRIPPEDOpen SansTOBESTRIPPED, verdana, arial, sans-serif; font-size: 12px; fill: rgb(68, 68, 68); fill-opacity: 1; white-space: pre; opacity: 1; --darkreader-inline-fill: #bdb7af;" transform="translate(947.4,0)" data-darkreader-inline-fill="">6k</text></g><g class="xtick"><text text-anchor="middle" x="0" y="319" style="font-family: TOBESTRIPPEDOpen SansTOBESTRIPPED, verdana, arial, sans-serif; font-size: 12px; fill: rgb(68, 68, 68); fill-opacity: 1; white-space: pre; opacity: 1; --darkreader-inline-fill: #bdb7af;" transform="translate(1095.3,0)" data-darkreader-inline-fill="">7k</text></g><g class="xtick"><text text-anchor="middle" x="0" y="319" style="font-family: TOBESTRIPPEDOpen SansTOBESTRIPPED, verdana, arial, sans-serif; font-size: 12px; fill: rgb(68, 68, 68); fill-opacity: 1; white-space: pre; opacity: 1; --darkreader-inline-fill: #bdb7af;" transform="translate(1243.2,0)" data-darkreader-inline-fill="">8k</text></g><g class="xtick"><text text-anchor="middle" x="0" y="319" style="font-family: TOBESTRIPPEDOpen SansTOBESTRIPPED, verdana, arial, sans-serif; font-size: 12px; fill: rgb(68, 68, 68); fill-opacity: 1; white-space: pre; opacity: 1; --darkreader-inline-fill: #bdb7af;" transform="translate(1391.1,0)" data-darkreader-inline-fill="">9k</text></g><g class="xtick"><text text-anchor="middle" x="0" y="319" style="font-family: TOBESTRIPPEDOpen SansTOBESTRIPPED, verdana, arial, sans-serif; font-size: 12px; fill: rgb(68, 68, 68); fill-opacity: 1; white-space: pre; opacity: 1; --darkreader-inline-fill: #bdb7af;" transform="translate(1539,0)" data-darkreader-inline-fill="">10k</text></g></g><g class="yaxislayer-above"><g class="ytick"><text text-anchor="end" x="59" y="4.199999999999999" style="font-family: TOBESTRIPPEDOpen SansTOBESTRIPPED, verdana, arial, sans-serif; font-size: 12px; fill: rgb(68, 68, 68); fill-opacity: 1; white-space: pre; opacity: 1; --darkreader-inline-fill: #bdb7af;" transform="translate(0,293.7)" data-darkreader-inline-fill="">0</text></g><g class="ytick"><text text-anchor="end" x="59" y="4.199999999999999" style="font-family: TOBESTRIPPEDOpen SansTOBESTRIPPED, verdana, arial, sans-serif; font-size: 12px; fill: rgb(68, 68, 68); fill-opacity: 1; white-space: pre; opacity: 1; --darkreader-inline-fill: #bdb7af;" transform="translate(0,233.61)" data-darkreader-inline-fill="">2</text></g><g class="ytick"><text text-anchor="end" x="59" y="4.199999999999999" style="font-family: TOBESTRIPPEDOpen SansTOBESTRIPPED, verdana, arial, sans-serif; font-size: 12px; fill: rgb(68, 68, 68); fill-opacity: 1; white-space: pre; opacity: 1; --darkreader-inline-fill: #bdb7af;" transform="translate(0,173.51)" data-darkreader-inline-fill="">4</text></g><g class="ytick"><text text-anchor="end" x="59" y="4.199999999999999" style="font-family: TOBESTRIPPEDOpen SansTOBESTRIPPED, verdana, arial, sans-serif; font-size: 12px; fill: rgb(68, 68, 68); fill-opacity: 1; white-space: pre; opacity: 1; --darkreader-inline-fill: #bdb7af;" transform="translate(0,113.42)" data-darkreader-inline-fill="">6</text></g></g><g class="overaxes-above"/></g></g><g class="polarlayer"/><g class="smithlayer"/><g class="ternarylayer"/><g class="geolayer"/><g class="funnelarealayer"/><g class="pielayer"/><g class="iciclelayer"/><g class="treemaplayer"/><g class="sunburstlayer"/><g class="glimages"/><defs id="topdefs-6d9112"><g class="clips"/><clipPath id="legend6d9112"><rect width="166" height="29" x="0" y="0"/></clipPath></defs><g class="layer-above"><g class="imagelayer"/><g class="shapelayer"/></g><g class="infolayer"><g class="legend" pointer-events="all" transform="translate(1568.58,60)"><rect class="bg" shape-rendering="crispEdges" style="stroke: rgb(68, 68, 68); stroke-opacity: 1; fill: rgb(255, 255, 255); fill-opacity: 1; stroke-width: 0px; --darkreader-inline-stroke: #bdb7af; --darkreader-inline-fill: #e8e6e3;" width="166" height="29" x="0" y="0" data-darkreader-inline-stroke="" data-darkreader-inline-fill=""/><g class="scrollbox" transform="" clip-path="url(#legend6d9112)"><g class="groups"><g class="traces" style="opacity: 1;" transform="translate(0,14.5)"><text class="legendtext" text-anchor="start" style="font-family: TOBESTRIPPEDOpen SansTOBESTRIPPED, verdana, arial, sans-serif; font-size: 12px; fill: rgb(68, 68, 68); fill-opacity: 1; white-space: pre; --darkreader-inline-fill: #bdb7af;" x="40" y="4.680000000000001" data-darkreader-inline-fill="">meta_training_acc</text><g class="layers" style="opacity: 1;"><g class="legendfill"/><g class="legendlines"><path class="js-line" d="M5,0h30" style="fill: none; stroke: rgb(31, 119, 180); stroke-opacity: 1; stroke-width: 2px; --darkreader-inline-fill: none; --darkreader-inline-stroke: #55a8e2;" data-darkreader-inline-fill="" data-darkreader-inline-stroke=""/></g><g class="legendsymbols"><g class="legendpoints"/></g></g><rect class="legendtoggle" style="fill: rgb(0, 0, 0); fill-opacity: 0; --darkreader-inline-fill: #e8e6e3;" x="0" y="-9.5" width="161" height="19" data-darkreader-inline-fill=""/></g></g></g><rect class="scrollbar" rx="20" ry="3" width="0" height="0" style="fill: rgb(128, 139, 164); fill-opacity: 1; --darkreader-inline-fill: #a39b8f;" x="0" y="0" data-darkreader-inline-fill=""/></g><g class="g-gtitle"><text class="gtitle" style="font-family: TOBESTRIPPEDOpen SansTOBESTRIPPED, verdana, arial, sans-serif; font-size: 17px; fill: rgb(68, 68, 68); opacity: 1; font-weight: normal; white-space: pre; --darkreader-inline-fill: #bdb7af;" x="873.5" y="30" text-anchor="middle" dy="0em" data-darkreader-inline-fill="">meta_training_acc</text></g><g class="g-xtitle"/><g class="g-ytitle"/></g></svg>