<svg class="main-svg" xmlns="http://www.w3.org/2000/svg" xmlns:xlink="http://www.w3.org/1999/xlink" width="1747" height="366" style="--darkreader-inline-bgcolor: #181a1b; --darkreader-inline-bgimage: none;" data-darkreader-inline-bgcolor="" data-darkreader-inline-bgimage="" viewBox="0 0 1747 366"><rect x="0" y="0" width="1747" height="366" style="fill: rgb(255, 255, 255); fill-opacity: 1;"/><defs id="defs-2abf45"><g class="clips"><clipPath id="clip2abf45xyplot" class="plotclip"><rect width="1479" height="246"/></clipPath><clipPath class="axesclip" id="clip2abf45x"><rect x="60" y="0" width="1479" height="366"/></clipPath><clipPath class="axesclip" id="clip2abf45y"><rect x="0" y="60" width="1747" height="246"/></clipPath><clipPath class="axesclip" id="clip2abf45xy"><rect x="60" y="60" width="1479" height="246"/></clipPath></g><g class="gradients"/><g class="patterns"/></defs><g class="bglayer"/><g class="layer-below"><g class="imagelayer"/><g class="shapelayer"/></g><g class="cartesianlayer"><g class="subplot xy"><g class="layer-subplot"><g class="shapelayer"/><g class="imagelayer"/></g><g class="gridlayer"><g class="x"><path class="xgrid crisp" transform="translate(207.9,0)" d="M0,60v246" style="stroke: rgb(238, 238, 238); stroke-opacity: 1; stroke-width: 1px; --darkreader-inline-stroke: #dddad6;" data-darkreader-inline-stroke=""/><path class="xgrid crisp" transform="translate(355.8,0)" d="M0,60v246" style="stroke: rgb(238, 238, 238); stroke-opacity: 1; stroke-width: 1px; --darkreader-inline-stroke: #dddad6;" data-darkreader-inline-stroke=""/><path class="xgrid crisp" transform="translate(503.7,0)" d="M0,60v246" style="stroke: rgb(238, 238, 238); stroke-opacity: 1; stroke-width: 1px; --darkreader-inline-stroke: #dddad6;" data-darkreader-inline-stroke=""/><path class="xgrid crisp" transform="translate(651.6,0)" d="M0,60v246" style="stroke: rgb(238, 238, 238); stroke-opacity: 1; stroke-width: 1px; --darkreader-inline-stroke: #dddad6;" data-darkreader-inline-stroke=""/><path class="xgrid crisp" transform="translate(799.5,0)" d="M0,60v246" style="stroke: rgb(238, 238, 238); stroke-opacity: 1; stroke-width: 1px; --darkreader-inline-stroke: #dddad6;" data-darkreader-inline-stroke=""/><path class="xgrid crisp" transform="translate(947.4,0)" d="M0,60v246" style="stroke: rgb(238, 238, 238); stroke-opacity: 1; stroke-width: 1px; --darkreader-inline-stroke: #dddad6;" data-darkreader-inline-stroke=""/><path class="xgrid crisp" transform="translate(1095.3,0)" d="M0,60v246" style="stroke: rgb(238, 238, 238); stroke-opacity: 1; stroke-width: 1px; --darkreader-inline-stroke: #dddad6;" data-darkreader-inline-stroke=""/><path class="xgrid crisp" transform="translate(1243.2,0)" d="M0,60v246" style="stroke: rgb(238, 238, 238); stroke-opacity: 1; stroke-width: 1px; --darkreader-inline-stroke: #dddad6;" data-darkreader-inline-stroke=""/><path class="xgrid crisp" transform="translate(1391.1,0)" d="M0,60v246" style="stroke: rgb(238, 238, 238); stroke-opacity: 1; stroke-width: 1px; --darkreader-inline-stroke: #dddad6;" data-darkreader-inline-stroke=""/></g><g class="y"><path class="ygrid crisp" transform="translate(0,249.42)" d="M60,0h1479" style="stroke: rgb(238, 238, 238); stroke-opacity: 1; stroke-width: 1px; --darkreader-inline-stroke: #dddad6;" data-darkreader-inline-stroke=""/><path class="ygrid crisp" transform="translate(0,205.14)" d="M60,0h1479" style="stroke: rgb(238, 238, 238); stroke-opacity: 1; stroke-width: 1px; --darkreader-inline-stroke: #dddad6;" data-darkreader-inline-stroke=""/><path class="ygrid crisp" transform="translate(0,160.86)" d="M60,0h1479" style="stroke: rgb(238, 238, 238); stroke-opacity: 1; stroke-width: 1px; --darkreader-inline-stroke: #dddad6;" data-darkreader-inline-stroke=""/><path class="ygrid crisp" transform="translate(0,116.58)" d="M60,0h1479" style="stroke: rgb(238, 238, 238); stroke-opacity: 1; stroke-width: 1px; --darkreader-inline-stroke: #dddad6;" data-darkreader-inline-stroke=""/><path class="ygrid crisp" transform="translate(0,72.3)" d="M60,0h1479" style="stroke: rgb(238, 238, 238); stroke-opacity: 1; stroke-width: 1px; --darkreader-inline-stroke: #dddad6;" data-darkreader-inline-stroke=""/></g></g><g class="zerolinelayer"><path class="xzl zl crisp" transform="translate(60,0)" d="M0,60v246" style="stroke: rgb(68, 68, 68); stroke-opacity: 1; stroke-width: 1px; --darkreader-inline-stroke: #bdb7af;" data-darkreader-inline-stroke=""/><path class="yzl zl crisp" transform="translate(0,293.7)" d="M60,0h1479" style="stroke: rgb(68, 68, 68); stroke-opacity: 1; stroke-width: 1px; --darkreader-inline-stroke: #bdb7af;" data-darkreader-inline-stroke=""/></g><path class="xlines-below"/><path class="ylines-below"/><g class="overlines-below"/><g class="xaxislayer-below"/><g class="yaxislayer-below"/><g class="overaxes-below"/><g class="plot" transform="translate(60,60)" clip-path="url(#clip2abf45xyplot)"><g class="scatterlayer mlayer"><g class="trace scatter trace6bf9e6" style="stroke-miterlimit: 2; opacity: 1;"><g class="fills"/><g class="errorbars"/><g class="lines"><path class="js-line" style="vector-effect: non-scaling-stroke; fill: none; stroke: rgb(31, 119, 180); stroke-opacity: 1; stroke-width: 2px; opacity: 1; --darkreader-inline-fill: none; --darkreader-inline-stroke: #55a8e2;" d="M0,233.7L2.96,217.39L5.92,220.88L8.87,218.55L11.83,217.39L14.79,216.22L17.75,217.97L20.71,217.97L23.66,219.72L26.62,217.97L29.58,217.39L32.54,215.64L35.5,217.97L38.45,219.13L41.41,216.22L47.33,212.73L50.29,217.97L53.24,200.49L56.2,208.65L59.16,208.06L62.12,209.81L65.08,213.31L68.03,209.81L70.99,169.61L73.95,164.37L76.91,132.9L79.87,137.57L82.82,121.83L85.78,116.59L88.74,143.97L91.7,109.02L94.66,120.67L97.61,88.62L100.57,103.19L103.53,101.44L106.49,82.8L109.45,78.72L112.4,63.57L115.36,81.05L118.32,69.98L121.28,99.69L127.19,77.55L130.15,96.2L133.11,58.91L136.07,58.33L139.03,93.87L141.98,53.67L144.94,59.49L147.9,68.82L150.86,79.3L153.82,59.49L156.77,58.91L159.73,76.97L162.69,77.55L165.65,46.09L168.61,39.68L171.56,40.85L174.52,43.76L177.48,39.1L180.44,79.89L183.4,36.19L186.35,61.24L189.31,42.01L192.27,50.75L195.23,42.6L198.19,37.94L201.14,36.19L204.1,27.45L207.06,47.84L212.98,23.37L215.93,53.08L218.89,33.27L221.85,29.78L224.81,26.87L227.77,61.24L230.72,34.44L233.68,35.02L236.64,54.83L239.6,39.1L242.56,55.41L245.51,27.45L248.47,38.52L251.43,34.44L257.35,61.24L260.3,29.78L269.18,31.53L272.14,29.78L275.09,26.28L278.05,33.86L281.01,61.82L283.97,22.79L286.93,30.36L289.88,25.12L292.84,24.54L295.8,26.87L298.76,24.54L301.72,44.93L304.67,39.68L307.63,36.77L310.59,42.6L313.55,15.8L316.51,70.56L319.46,26.28L322.42,35.02L325.38,21.04L328.34,22.79L331.3,36.77L334.25,17.54L337.21,26.87L340.17,14.05L343.13,16.96L346.09,49.01L349.04,47.26L352,22.2L354.96,29.78L357.92,37.35L360.88,23.95L363.83,51.34L366.79,43.76L369.75,37.94L372.71,30.36L375.67,39.68L378.62,39.1L381.58,30.36L384.54,33.86L387.5,21.04L390.46,18.13L393.41,22.2L396.37,28.03L399.33,20.46L402.29,32.11L405.25,30.36L408.2,21.62L411.16,36.19L414.12,34.44L417.08,28.03L420.04,37.35L422.99,39.1L425.95,29.78L428.91,35.61L431.87,16.38L434.83,27.45L437.78,23.37L440.74,30.36L443.7,27.45L446.66,34.44L449.62,37.94L452.57,18.13L455.53,19.87L458.49,14.63L461.45,22.2L464.41,29.2L467.36,28.03L470.32,18.13L473.28,20.46L476.24,31.53L479.2,33.27L482.15,18.71L485.11,31.53L488.07,22.79L491.03,19.87L493.99,41.43L496.94,34.44L499.9,26.87L502.86,21.62L505.82,36.77L508.78,28.61L511.73,31.53L514.69,35.61L517.65,30.94L520.61,24.54L523.57,28.03L526.52,23.37L532.44,22.79L535.4,22.2L538.36,26.87L541.31,35.02L544.27,18.71L547.23,23.95L550.19,37.35L553.15,18.13L556.1,39.68L559.06,32.69L562.02,16.38L564.98,14.63L567.94,25.7L570.89,18.13L573.85,33.27L576.81,25.12L579.77,31.53L582.73,30.94L585.68,25.12L588.64,17.54L591.6,22.2L594.56,30.36L597.52,30.94L600.47,22.79L603.43,15.8L606.39,19.87L612.31,19.29L615.26,23.37L618.22,13.47L621.18,19.87L624.14,25.7L627.1,25.12L630.05,17.54L633.01,23.37L635.97,17.54L638.93,22.2L641.89,16.96L644.84,16.96L647.8,14.05L650.76,19.29L653.72,25.7L656.68,15.21L659.63,30.94L662.59,33.86L665.55,37.35L668.51,12.88L671.47,20.46L674.42,14.63L677.38,35.61L680.34,29.2L683.3,19.29L686.26,25.7L689.21,44.93L692.17,18.13L695.13,21.04L698.09,13.47L701.05,23.95L704,23.37L706.96,19.87L709.92,26.28L712.88,22.79L715.84,28.03L718.79,26.87L721.75,23.95L724.71,28.03L727.67,21.04L730.63,24.54L733.58,14.05L736.54,21.04L739.5,18.71L745.42,25.7L748.37,15.8L751.33,23.37L754.29,16.38L757.25,15.8L760.21,18.71L763.16,26.87L766.12,27.45L769.08,29.2L772.04,20.46L775,26.28L777.95,19.29L780.91,36.77L783.87,23.37L786.83,15.8L789.79,16.96L792.74,19.87L795.7,25.7L801.62,17.54L804.58,24.54L807.53,23.95L810.49,18.71L813.45,27.45L816.41,12.3L819.37,18.71L822.32,19.87L825.28,26.28L828.24,18.13L831.2,17.54L834.16,29.2L837.11,19.29L840.07,14.63L843.03,20.46L845.99,23.95L848.95,26.28L851.9,30.36L854.86,23.37L857.82,23.95L860.78,14.63L863.74,22.79L866.69,21.04L869.65,29.78L872.61,16.38L875.57,21.62L878.53,18.71L881.48,22.79L884.44,19.87L887.4,18.71L890.36,12.3L893.32,14.63L899.23,18.13L902.19,25.12L905.15,18.13L908.11,18.13L911.06,13.47L914.02,27.45L916.98,18.13L919.94,30.94L922.9,16.96L925.85,12.88L928.81,23.37L931.77,17.54L934.73,16.96L937.69,26.28L940.64,19.29L943.6,15.8L946.56,21.62L949.52,20.46L952.48,25.12L955.43,25.12L958.39,14.63L961.35,13.47L967.27,24.54L970.22,26.28L973.18,15.21L976.14,14.63L979.1,14.63L982.06,21.62L985.01,26.28L987.97,18.13L990.93,18.71L993.89,21.04L996.85,15.8L999.8,35.61L1002.76,23.37L1005.72,17.54L1008.68,16.96L1011.64,25.12L1014.59,19.29L1017.55,15.21L1020.51,18.13L1023.47,19.87L1026.43,15.8L1029.38,19.87L1032.34,16.96L1035.3,24.54L1038.26,30.36L1041.22,18.71L1044.17,12.3L1047.13,21.04L1050.09,30.36L1053.05,15.21L1056.01,14.63L1058.96,24.54L1061.92,17.54L1064.88,23.95L1067.84,18.71L1070.8,17.54L1073.75,25.12L1076.71,16.38L1079.67,23.95L1082.63,22.2L1085.59,16.38L1088.54,15.21L1091.5,18.13L1094.46,22.79L1097.42,19.87L1100.38,22.79L1103.33,18.71L1106.29,23.95L1115.17,13.47L1118.12,20.46L1121.08,18.13L1124.04,22.2L1127,15.21L1129.96,19.87L1132.91,14.63L1135.87,15.8L1138.83,22.79L1141.79,17.54L1144.75,13.47L1147.7,22.2L1150.66,17.54L1153.62,16.96L1156.58,18.71L1159.54,21.62L1162.49,15.8L1165.45,30.36L1168.41,13.47L1171.37,24.54L1174.33,13.47L1177.28,18.13L1180.24,25.7L1183.2,20.46L1186.16,43.76L1189.12,25.12L1192.07,25.12L1195.03,18.71L1197.99,21.62L1200.95,14.05L1203.91,19.29L1206.86,16.38L1209.82,16.96L1212.78,28.03L1215.74,17.54L1218.7,12.88L1221.65,20.46L1224.61,12.88L1227.57,12.3L1230.53,21.62L1233.49,28.03L1236.44,17.54L1239.4,14.63L1242.36,16.38L1245.32,14.05L1248.28,18.71L1251.23,23.95L1254.19,20.46L1257.15,16.96L1260.11,22.2L1263.07,19.87L1266.02,15.21L1268.98,33.27L1271.94,22.79L1274.9,19.29L1277.86,12.88L1283.77,26.87L1286.73,12.88L1292.65,16.38L1295.6,12.88L1298.56,20.46L1301.52,12.88L1304.48,34.44L1307.44,26.28L1310.39,12.88L1313.35,18.13L1316.31,23.95L1319.27,27.45L1322.23,28.61L1325.18,25.7L1328.14,18.71L1331.1,25.7L1334.06,12.88L1337.02,29.78L1339.97,22.2L1342.93,16.96L1345.89,23.95L1348.85,36.19L1351.81,17.54L1354.76,22.2L1357.72,14.05L1360.68,27.45L1363.64,15.21L1366.6,19.87L1369.55,12.88L1372.51,16.38L1375.47,15.8L1378.43,12.3L1381.39,15.8L1384.34,14.63L1387.3,22.2L1390.26,21.62L1393.22,26.28L1396.18,16.38L1399.13,22.2L1402.09,14.05L1405.05,14.05L1408.01,15.8L1410.97,25.7L1413.92,15.8L1416.88,23.95L1419.84,20.46L1422.8,25.7L1425.76,33.27L1428.71,18.13L1431.67,16.96L1434.63,15.8L1437.59,24.54L1440.55,12.88L1443.5,24.54L1446.46,12.88L1449.42,15.8L1452.38,27.45L1455.34,12.3L1458.29,19.87L1461.25,23.37L1464.21,15.21L1467.17,15.21L1470.13,19.87L1473.08,18.13L1479,16.38" data-darkreader-inline-fill="" data-darkreader-inline-stroke=""/></g><g class="points"/><g class="text"/></g></g></g><g class="overplot"/><path class="xlines-above crisp" style="fill: none; --darkreader-inline-fill: none;" d="M0,0" data-darkreader-inline-fill=""/><path class="ylines-above crisp" style="fill: none; --darkreader-inline-fill: none;" d="M0,0" data-darkreader-inline-fill=""/><g class="overlines-above"/><g class="xaxislayer-above"><g class="xtick"><text text-anchor="middle" x="0" y="319" style="font-family: TOBESTRIPPEDOpen SansTOBESTRIPPED, verdana, arial, sans-serif; font-size: 12px; fill: rgb(68, 68, 68); fill-opacity: 1; white-space: pre; opacity: 1; --darkreader-inline-fill: #bdb7af;" transform="translate(60,0)" data-darkreader-inline-fill="">0</text></g><g class="xtick"><text text-anchor="middle" x="0" y="319" style="font-family: TOBESTRIPPEDOpen SansTOBESTRIPPED, verdana, arial, sans-serif; font-size: 12px; fill: rgb(68, 68, 68); fill-opacity: 1; white-space: pre; opacity: 1; --darkreader-inline-fill: #bdb7af;" transform="translate(207.9,0)" data-darkreader-inline-fill="">1k</text></g><g class="xtick"><text text-anchor="middle" x="0" y="319" style="font-family: TOBESTRIPPEDOpen SansTOBESTRIPPED, verdana, arial, sans-serif; font-size: 12px; fill: rgb(68, 68, 68); fill-opacity: 1; white-space: pre; opacity: 1; --darkreader-inline-fill: #bdb7af;" transform="translate(355.8,0)" data-darkreader-inline-fill="">2k</text></g><g class="xtick"><text text-anchor="middle" x="0" y="319" style="font-family: TOBESTRIPPEDOpen SansTOBESTRIPPED, verdana, arial, sans-serif; font-size: 12px; fill: rgb(68, 68, 68); fill-opacity: 1; white-space: pre; opacity: 1; --darkreader-inline-fill: #bdb7af;" transform="translate(503.7,0)" data-darkreader-inline-fill="">3k</text></g><g class="xtick"><text text-anchor="middle" x="0" y="319" style="font-family: TOBESTRIPPEDOpen SansTOBESTRIPPED, verdana, arial, sans-serif; font-size: 12px; fill: rgb(68, 68, 68); fill-opacity: 1; white-space: pre; opacity: 1; --darkreader-inline-fill: #bdb7af;" transform="translate(651.6,0)" data-darkreader-inline-fill="">4k</text></g><g class="xtick"><text text-anchor="middle" x="0" y="319" style="font-family: TOBESTRIPPEDOpen SansTOBESTRIPPED, verdana, arial, sans-serif; font-size: 12px; fill: rgb(68, 68, 68); fill-opacity: 1; white-space: pre; opacity: 1; --darkreader-inline-fill: #bdb7af;" transform="translate(799.5,0)" data-darkreader-inline-fill="">5k</text></g><g class="xtick"><text text-anchor="middle" x="0" y="319" style="font-family: TOBESTRIPPEDOpen SansTOBESTRIPPED, verdana, arial, sans-serif; font-size: 12px; fill: rgb(68, 68, 68); fill-opacity: 1; white-space: pre; opacity: 1; --darkreader-inline-fill: #bdb7af;" transform="translate(947.4,0)" data-darkreader-inline-fill="">6k</text></g><g class="xtick"><text text-anchor="middle" x="0" y="319" style="font-family: TOBESTRIPPEDOpen SansTOBESTRIPPED, verdana, arial, sans-serif; font-size: 12px; fill: rgb(68, 68, 68); fill-opacity: 1; white-space: pre; opacity: 1; --darkreader-inline-fill: #bdb7af;" transform="translate(1095.3,0)" data-darkreader-inline-fill="">7k</text></g><g class="xtick"><text text-anchor="middle" x="0" y="319" style="font-family: TOBESTRIPPEDOpen SansTOBESTRIPPED, verdana, arial, sans-serif; font-size: 12px; fill: rgb(68, 68, 68); fill-opacity: 1; white-space: pre; opacity: 1; --darkreader-inline-fill: #bdb7af;" transform="translate(1243.2,0)" data-darkreader-inline-fill="">8k</text></g><g class="xtick"><text text-anchor="middle" x="0" y="319" style="font-family: TOBESTRIPPEDOpen SansTOBESTRIPPED, verdana, arial, sans-serif; font-size: 12px; fill: rgb(68, 68, 68); fill-opacity: 1; white-space: pre; opacity: 1; --darkreader-inline-fill: #bdb7af;" transform="translate(1391.1,0)" data-darkreader-inline-fill="">9k</text></g><g class="xtick"><text text-anchor="middle" x="0" y="319" style="font-family: TOBESTRIPPEDOpen SansTOBESTRIPPED, verdana, arial, sans-serif; font-size: 12px; fill: rgb(68, 68, 68); fill-opacity: 1; white-space: pre; opacity: 1; --darkreader-inline-fill: #bdb7af;" transform="translate(1539,0)" data-darkreader-inline-fill="">10k</text></g></g><g class="yaxislayer-above"><g class="ytick"><text text-anchor="end" x="59" y="4.199999999999999" style="font-family: TOBESTRIPPEDOpen SansTOBESTRIPPED, verdana, arial, sans-serif; font-size: 12px; fill: rgb(68, 68, 68); fill-opacity: 1; white-space: pre; opacity: 1; --darkreader-inline-fill: #bdb7af;" transform="translate(0,293.7)" data-darkreader-inline-fill="">0</text></g><g class="ytick"><text text-anchor="end" x="59" y="4.199999999999999" style="font-family: TOBESTRIPPEDOpen SansTOBESTRIPPED, verdana, arial, sans-serif; font-size: 12px; fill: rgb(68, 68, 68); fill-opacity: 1; white-space: pre; opacity: 1; --darkreader-inline-fill: #bdb7af;" transform="translate(0,249.42)" data-darkreader-inline-fill="">20</text></g><g class="ytick"><text text-anchor="end" x="59" y="4.199999999999999" style="font-family: TOBESTRIPPEDOpen SansTOBESTRIPPED, verdana, arial, sans-serif; font-size: 12px; fill: rgb(68, 68, 68); fill-opacity: 1; white-space: pre; opacity: 1; --darkreader-inline-fill: #bdb7af;" transform="translate(0,205.14)" data-darkreader-inline-fill="">40</text></g><g class="ytick"><text text-anchor="end" x="59" y="4.199999999999999" style="font-family: TOBESTRIPPEDOpen SansTOBESTRIPPED, verdana, arial, sans-serif; font-size: 12px; fill: rgb(68, 68, 68); fill-opacity: 1; white-space: pre; opacity: 1; --darkreader-inline-fill: #bdb7af;" transform="translate(0,160.86)" data-darkreader-inline-fill="">60</text></g><g class="ytick"><text text-anchor="end" x="59" y="4.199999999999999" style="font-family: TOBESTRIPPEDOpen SansTOBESTRIPPED, verdana, arial, sans-serif; font-size: 12px; fill: rgb(68, 68, 68); fill-opacity: 1; white-space: pre; opacity: 1; --darkreader-inline-fill: #bdb7af;" transform="translate(0,116.58)" data-darkreader-inline-fill="">80</text></g><g class="ytick"><text text-anchor="end" x="59" y="4.199999999999999" style="font-family: TOBESTRIPPEDOpen SansTOBESTRIPPED, verdana, arial, sans-serif; font-size: 12px; fill: rgb(68, 68, 68); fill-opacity: 1; white-space: pre; opacity: 1; --darkreader-inline-fill: #bdb7af;" transform="translate(0,72.3)" data-darkreader-inline-fill="">100</text></g></g><g class="overaxes-above"/></g></g><g class="polarlayer"/><g class="smithlayer"/><g class="ternarylayer"/><g class="geolayer"/><g class="funnelarealayer"/><g class="pielayer"/><g class="iciclelayer"/><g class="treemaplayer"/><g class="sunburstlayer"/><g class="glimages"/><defs id="topdefs-2abf45"><g class="clips"/><clipPath id="legend2abf45"><rect width="166" height="29" x="0" y="0"/></clipPath></defs><g class="layer-above"><g class="imagelayer"/><g class="shapelayer"/></g><g class="infolayer"><g class="legend" pointer-events="all" transform="translate(1568.58,60)"><rect class="bg" shape-rendering="crispEdges" style="stroke: rgb(68, 68, 68); stroke-opacity: 1; fill: rgb(255, 255, 255); fill-opacity: 1; stroke-width: 0px; --darkreader-inline-stroke: #bdb7af; --darkreader-inline-fill: #e8e6e3;" width="166" height="29" x="0" y="0" data-darkreader-inline-stroke="" data-darkreader-inline-fill=""/><g class="scrollbox" transform="" clip-path="url(#legend2abf45)"><g class="groups"><g class="traces" style="opacity: 1;" transform="translate(0,14.5)"><text class="legendtext" text-anchor="start" style="font-family: TOBESTRIPPEDOpen SansTOBESTRIPPED, verdana, arial, sans-serif; font-size: 12px; fill: rgb(68, 68, 68); fill-opacity: 1; white-space: pre; --darkreader-inline-fill: #bdb7af;" x="40" y="4.680000000000001" data-darkreader-inline-fill="">meta_training_acc</text><g class="layers" style="opacity: 1;"><g class="legendfill"/><g class="legendlines"><path class="js-line" d="M5,0h30" style="fill: none; stroke: rgb(31, 119, 180); stroke-opacity: 1; stroke-width: 2px; --darkreader-inline-fill: none; --darkreader-inline-stroke: #55a8e2;" data-darkreader-inline-fill="" data-darkreader-inline-stroke=""/></g><g class="legendsymbols"><g class="legendpoints"/></g></g><rect class="legendtoggle" style="fill: rgb(0, 0, 0); fill-opacity: 0; --darkreader-inline-fill: #e8e6e3;" x="0" y="-9.5" width="161" height="19" data-darkreader-inline-fill=""/></g></g></g><rect class="scrollbar" rx="20" ry="3" width="0" height="0" style="fill: rgb(128, 139, 164); fill-opacity: 1; --darkreader-inline-fill: #a39b8f;" x="0" y="0" data-darkreader-inline-fill=""/></g><g class="g-gtitle"><text class="gtitle" style="font-family: TOBESTRIPPEDOpen SansTOBESTRIPPED, verdana, arial, sans-serif; font-size: 17px; fill: rgb(68, 68, 68); opacity: 1; font-weight: normal; white-space: pre; --darkreader-inline-fill: #bdb7af;" x="873.5" y="30" text-anchor="middle" dy="0em" data-darkreader-inline-fill="">meta_training_acc</text></g><g class="g-xtitle"/><g class="g-ytitle"/></g></svg>