<svg class="main-svg" xmlns="http://www.w3.org/2000/svg" xmlns:xlink="http://www.w3.org/1999/xlink" width="1747" height="306" style="--darkreader-inline-bgcolor: #181a1b; --darkreader-inline-bgimage: none;" data-darkreader-inline-bgcolor="" data-darkreader-inline-bgimage="" viewBox="0 0 1747 306"><rect x="0" y="0" width="1747" height="306" style="fill: rgb(255, 255, 255); fill-opacity: 1;"/><defs id="defs-0f42a4"><g class="clips"><clipPath id="clip0f42a4xyplot" class="plotclip"><rect width="1475" height="186"/></clipPath><clipPath class="axesclip" id="clip0f42a4x"><rect x="60" y="0" width="1475" height="306"/></clipPath><clipPath class="axesclip" id="clip0f42a4y"><rect x="0" y="60" width="1747" height="186"/></clipPath><clipPath class="axesclip" id="clip0f42a4xy"><rect x="60" y="60" width="1475" height="186"/></clipPath></g><g class="gradients"/><g class="patterns"/></defs><g class="bglayer"/><g class="layer-below"><g class="imagelayer"/><g class="shapelayer"/></g><g class="cartesianlayer"><g class="subplot xy"><g class="layer-subplot"><g class="shapelayer"/><g class="imagelayer"/></g><g class="gridlayer"><g class="x"><path class="xgrid crisp" transform="translate(207.5,0)" d="M0,60v186" style="stroke: rgb(238, 238, 238); stroke-opacity: 1; stroke-width: 1px; --darkreader-inline-stroke: #dddad6;" data-darkreader-inline-stroke=""/><path class="xgrid crisp" transform="translate(355,0)" d="M0,60v186" style="stroke: rgb(238, 238, 238); stroke-opacity: 1; stroke-width: 1px; --darkreader-inline-stroke: #dddad6;" data-darkreader-inline-stroke=""/><path class="xgrid crisp" transform="translate(502.5,0)" d="M0,60v186" style="stroke: rgb(238, 238, 238); stroke-opacity: 1; stroke-width: 1px; --darkreader-inline-stroke: #dddad6;" data-darkreader-inline-stroke=""/><path class="xgrid crisp" transform="translate(650,0)" d="M0,60v186" style="stroke: rgb(238, 238, 238); stroke-opacity: 1; stroke-width: 1px; --darkreader-inline-stroke: #dddad6;" data-darkreader-inline-stroke=""/><path class="xgrid crisp" transform="translate(797.5,0)" d="M0,60v186" style="stroke: rgb(238, 238, 238); stroke-opacity: 1; stroke-width: 1px; --darkreader-inline-stroke: #dddad6;" data-darkreader-inline-stroke=""/><path class="xgrid crisp" transform="translate(945,0)" d="M0,60v186" style="stroke: rgb(238, 238, 238); stroke-opacity: 1; stroke-width: 1px; --darkreader-inline-stroke: #dddad6;" data-darkreader-inline-stroke=""/><path class="xgrid crisp" transform="translate(1092.5,0)" d="M0,60v186" style="stroke: rgb(238, 238, 238); stroke-opacity: 1; stroke-width: 1px; --darkreader-inline-stroke: #dddad6;" data-darkreader-inline-stroke=""/><path class="xgrid crisp" transform="translate(1240,0)" d="M0,60v186" style="stroke: rgb(238, 238, 238); stroke-opacity: 1; stroke-width: 1px; --darkreader-inline-stroke: #dddad6;" data-darkreader-inline-stroke=""/><path class="xgrid crisp" transform="translate(1387.5,0)" d="M0,60v186" style="stroke: rgb(238, 238, 238); stroke-opacity: 1; stroke-width: 1px; --darkreader-inline-stroke: #dddad6;" data-darkreader-inline-stroke=""/></g><g class="y"><path class="ygrid crisp" transform="translate(0,203.38)" d="M60,0h1475" style="stroke: rgb(238, 238, 238); stroke-opacity: 1; stroke-width: 1px; --darkreader-inline-stroke: #dddad6;" data-darkreader-inline-stroke=""/><path class="ygrid crisp" transform="translate(0,169.86)" d="M60,0h1475" style="stroke: rgb(238, 238, 238); stroke-opacity: 1; stroke-width: 1px; --darkreader-inline-stroke: #dddad6;" data-darkreader-inline-stroke=""/><path class="ygrid crisp" transform="translate(0,136.34)" d="M60,0h1475" style="stroke: rgb(238, 238, 238); stroke-opacity: 1; stroke-width: 1px; --darkreader-inline-stroke: #dddad6;" data-darkreader-inline-stroke=""/><path class="ygrid crisp" transform="translate(0,102.82)" d="M60,0h1475" style="stroke: rgb(238, 238, 238); stroke-opacity: 1; stroke-width: 1px; --darkreader-inline-stroke: #dddad6;" data-darkreader-inline-stroke=""/><path class="ygrid crisp" transform="translate(0,69.3)" d="M60,0h1475" style="stroke: rgb(238, 238, 238); stroke-opacity: 1; stroke-width: 1px; --darkreader-inline-stroke: #dddad6;" data-darkreader-inline-stroke=""/></g></g><g class="zerolinelayer"><path class="xzl zl crisp" transform="translate(60,0)" d="M0,60v186" style="stroke: rgb(68, 68, 68); stroke-opacity: 1; stroke-width: 1px; --darkreader-inline-stroke: #bdb7af;" data-darkreader-inline-stroke=""/><path class="yzl zl crisp" transform="translate(0,236.9)" d="M60,0h1475" style="stroke: rgb(68, 68, 68); stroke-opacity: 1; stroke-width: 1px; --darkreader-inline-stroke: #bdb7af;" data-darkreader-inline-stroke=""/></g><path class="xlines-below"/><path class="ylines-below"/><g class="overlines-below"/><g class="xaxislayer-below"/><g class="yaxislayer-below"/><g class="overaxes-below"/><g class="plot" transform="translate(60,60)" clip-path="url(#clip0f42a4xyplot)"><g class="scatterlayer mlayer"><g class="trace scatter trace8d51f5" style="stroke-miterlimit: 2; opacity: 1;"><g class="fills"/><g class="errorbars"/><g class="lines"><path class="js-line" style="vector-effect: non-scaling-stroke; fill: none; stroke: rgb(31, 119, 180); stroke-opacity: 1; stroke-width: 2px; opacity: 1; --darkreader-inline-fill: none; --darkreader-inline-stroke: #55a8e2;" d="M0,9.3L5.9,158.46L8.85,159.84L29.5,161.43L32.45,161.97L35.4,162.16L38.35,163.94L41.3,163.75L44.25,164.62L47.2,165.1L50.15,164.4L53.1,165.05L56.05,166.65L59,164.91L61.95,166.78L67.85,168.13L70.8,166.32L76.7,167.27L79.65,165.61L82.6,166.77L85.55,166.04L88.5,169.92L91.45,169.04L94.4,166.83L97.35,169.29L100.3,167.64L103.25,167.34L106.2,168.39L109.15,168.3L115.05,170.69L118,168.9L120.95,169.52L123.9,171.66L126.85,168.77L129.8,169.57L132.75,170.97L135.7,171.47L138.65,168.21L141.6,169.18L144.55,170.81L147.5,169.43L150.45,169.78L153.4,169.28L156.35,171.97L159.3,171.7L162.25,170.19L165.2,172.65L168.15,173.17L171.1,170.72L174.05,168.73L177,170.64L179.95,169.99L182.9,170.82L185.85,171.57L188.8,171.22L191.75,168.52L194.7,172.4L197.65,172.76L200.6,171.22L206.5,170.99L209.45,172.3L212.4,172.98L215.35,170L218.3,172.16L221.25,172.01L224.2,170.96L227.15,172.49L233.05,172.08L236,169.73L238.95,172.48L241.9,172.06L250.75,172.52L253.7,174.6L256.65,170.52L259.6,172.69L262.55,171.96L265.5,172.91L271.4,172.6L274.35,172.12L277.3,173.44L280.25,173.08L286.15,172.47L289.1,172.16L292.05,173.14L295,171.91L297.95,170.23L300.9,173.45L303.85,174.88L306.8,172.86L309.75,172.39L312.7,172.73L315.65,174L318.6,172.24L324.5,173.8L327.45,172.34L330.4,174.68L333.35,174L336.3,172.06L339.25,172.19L342.2,171.95L345.15,172.96L348.1,174.49L351.05,173.84L354,171.28L356.95,174.11L359.9,171.89L362.85,172.36L365.8,171.22L368.75,173.24L374.65,171.76L377.6,172.85L380.55,172.52L383.5,173.08L389.4,170.87L392.35,171.91L398.25,174.81L401.2,170.83L407.1,174.44L410.05,173.07L421.85,173.44L424.8,174.7L427.75,174.01L430.7,174.45L433.65,174.15L436.6,170.45L439.55,172.71L442.5,173.47L445.45,171.55L448.4,173.58L454.3,174.77L457.25,173.22L460.2,171.91L463.15,171.65L466.1,175.5L469.05,171.59L472,174.21L474.95,170.42L477.9,173.14L480.85,173.07L483.8,171.9L486.75,172.35L489.7,174.18L492.65,174.08L498.55,172.97L501.5,173.68L504.45,174.85L507.4,174.08L510.35,173.91L513.3,175.29L516.25,174.74L519.2,172.22L525.1,173L528.05,174.58L531,175.29L533.95,174.04L539.85,172.68L542.8,174.36L545.75,173.44L548.7,174.74L551.65,173.12L554.6,173.45L557.55,174.4L560.5,174.49L563.45,176.08L566.4,173.93L569.35,172.28L572.3,171.74L575.25,171.48L578.2,174.86L584.1,173.33L587.05,175.2L595.9,174.8L598.85,173.99L604.75,174.15L607.7,176.07L610.65,172.91L613.6,174.5L616.55,171.34L619.5,175.27L625.4,174.14L628.35,174.05L631.3,173.52L634.25,174.52L637.2,174.86L640.15,173.48L643.1,173.59L646.05,175.07L649,175.76L651.95,175.29L654.9,173.97L657.85,175.1L660.8,174.55L663.75,175.24L666.7,174.56L669.65,175.18L672.6,172.37L675.55,171.71L678.5,174.54L681.45,174.86L684.4,175.5L687.35,173.19L693.25,173.4L696.2,175.45L699.15,175.84L702.1,174.78L705.05,174.1L708,174.89L710.95,172.39L713.9,174.44L716.85,171.03L719.8,174.75L728.65,173.76L731.6,171.71L734.55,173.73L737.5,173.55L740.45,174.7L743.4,174.13L752.25,175.92L755.2,175.4L758.15,175.5L761.1,172.76L764.05,174.57L767,175.35L772.9,175.06L775.85,176.11L781.75,175.65L784.7,173.77L790.6,174.96L793.55,175.47L796.5,174.73L799.45,175.69L802.4,173.92L805.35,176.07L811.25,173.75L814.2,174.87L817.15,173.7L820.1,175.43L826,173.86L828.95,174.52L831.9,173.66L834.85,175.96L837.8,173.89L840.75,174.03L843.7,174.69L846.65,174.44L849.6,173.86L852.55,175.51L855.5,175.95L858.45,174.88L861.4,175.9L864.35,174.74L870.25,174.52L873.2,176.23L879.1,175L882.05,175.37L885,175.63L887.95,172.08L890.9,176.61L893.85,173.63L899.75,175.8L902.7,175.08L905.65,176.11L908.6,175.55L914.5,176.12L917.45,174.88L920.4,173.4L923.35,175.17L926.3,175.25L929.25,174.53L932.2,175.96L935.15,174.86L938.1,174.22L941.05,176.12L944,173.95L946.95,175.04L949.9,173.54L952.85,175.41L958.75,174.69L961.7,175.41L964.65,175.53L967.6,174.86L970.55,175.69L973.5,173.38L976.45,175.1L979.4,175.57L985.3,175.33L988.25,173.79L991.2,176.06L994.15,172.25L997.1,175.77L1000.05,174.96L1003,174.48L1005.95,175.89L1008.9,176.39L1011.85,175.38L1017.75,176.03L1020.7,175.27L1023.65,172.75L1026.6,174.49L1032.5,174.71L1035.45,176.46L1041.35,174.64L1044.3,175.86L1047.25,175.17L1050.2,175.36L1053.15,176.26L1056.1,175.14L1062,175.57L1064.95,175.48L1070.85,174.99L1073.8,174.64L1076.75,176.3L1079.7,175.3L1082.65,176.12L1085.6,175.22L1088.55,174.72L1091.5,176.28L1094.45,173.9L1097.4,174.99L1100.35,176.4L1103.3,175.96L1109.2,175.21L1112.15,176.1L1118.05,175.89L1121,174.59L1123.95,175.39L1126.9,174.45L1129.85,175.9L1132.8,176.34L1135.75,174.18L1138.7,176.27L1150.5,174.71L1153.45,175.62L1156.4,173.85L1159.35,173.74L1165.25,175.89L1168.2,175.87L1174.1,174.32L1177.05,175.03L1180,176.1L1182.95,176.12L1185.9,174.21L1188.85,175.58L1191.8,175.53L1194.75,176.32L1203.6,175.65L1206.55,175.41L1209.5,176.02L1212.45,175.79L1218.35,176.4L1221.3,175.5L1224.25,174.8L1227.2,175.6L1230.15,174.6L1233.1,175.87L1239,176.24L1241.95,174.6L1244.9,176.36L1247.85,174.34L1253.75,176.52L1256.7,174.72L1262.6,174.86L1265.55,175.34L1271.45,176.26L1274.4,174.06L1277.35,176.16L1280.3,176.44L1283.25,174.98L1286.2,175.02L1289.15,174.64L1292.1,175.44L1295.05,175.97L1298,174.89L1300.95,173.76L1303.9,175.93L1306.85,175.18L1309.8,175.49L1315.7,176.26L1318.65,175.16L1324.55,175.57L1327.5,175.36L1333.4,175.94L1336.35,175.26L1339.3,175.91L1342.25,175.41L1348.15,175.17L1351.1,176.26L1354.05,174.12L1357,175.49L1359.95,176.53L1362.9,176.56L1365.85,175.18L1368.8,176.21L1374.7,175.01L1377.65,175.9L1383.55,175.7L1386.5,175.88L1395.35,175.29L1398.3,176.05L1401.25,174.98L1404.2,175.45L1407.15,176.3L1410.1,175.21L1413.05,176.21L1416,176.06L1418.95,174.62L1421.9,174.36L1424.85,176.35L1427.8,176.1L1433.7,175.02L1436.65,175.57L1442.55,176.09L1445.5,174.88L1448.45,176.7L1451.4,175.89L1454.35,174.62L1457.3,176.36L1463.2,175.35L1466.15,175.86L1469.1,176.02L1472.05,175.12L1475,174.64" data-darkreader-inline-fill="" data-darkreader-inline-stroke=""/></g><g class="points"/><g class="text"/></g></g></g><g class="overplot"/><path class="xlines-above crisp" style="fill: none; --darkreader-inline-fill: none;" d="M0,0" data-darkreader-inline-fill=""/><path class="ylines-above crisp" style="fill: none; --darkreader-inline-fill: none;" d="M0,0" data-darkreader-inline-fill=""/><g class="overlines-above"/><g class="xaxislayer-above"><g class="xtick"><text text-anchor="middle" x="0" y="259" style="font-family: TOBESTRIPPEDOpen SansTOBESTRIPPED, verdana, arial, sans-serif; font-size: 12px; fill: rgb(68, 68, 68); fill-opacity: 1; white-space: pre; opacity: 1; --darkreader-inline-fill: #bdb7af;" transform="translate(60,0)" data-darkreader-inline-fill="">0</text></g><g class="xtick"><text text-anchor="middle" x="0" y="259" style="font-family: TOBESTRIPPEDOpen SansTOBESTRIPPED, verdana, arial, sans-serif; font-size: 12px; fill: rgb(68, 68, 68); fill-opacity: 1; white-space: pre; opacity: 1; --darkreader-inline-fill: #bdb7af;" transform="translate(207.5,0)" data-darkreader-inline-fill="">1k</text></g><g class="xtick"><text text-anchor="middle" x="0" y="259" style="font-family: TOBESTRIPPEDOpen SansTOBESTRIPPED, verdana, arial, sans-serif; font-size: 12px; fill: rgb(68, 68, 68); fill-opacity: 1; white-space: pre; opacity: 1; --darkreader-inline-fill: #bdb7af;" transform="translate(355,0)" data-darkreader-inline-fill="">2k</text></g><g class="xtick"><text text-anchor="middle" x="0" y="259" style="font-family: TOBESTRIPPEDOpen SansTOBESTRIPPED, verdana, arial, sans-serif; font-size: 12px; fill: rgb(68, 68, 68); fill-opacity: 1; white-space: pre; opacity: 1; --darkreader-inline-fill: #bdb7af;" transform="translate(502.5,0)" data-darkreader-inline-fill="">3k</text></g><g class="xtick"><text text-anchor="middle" x="0" y="259" style="font-family: TOBESTRIPPEDOpen SansTOBESTRIPPED, verdana, arial, sans-serif; font-size: 12px; fill: rgb(68, 68, 68); fill-opacity: 1; white-space: pre; opacity: 1; --darkreader-inline-fill: #bdb7af;" transform="translate(650,0)" data-darkreader-inline-fill="">4k</text></g><g class="xtick"><text text-anchor="middle" x="0" y="259" style="font-family: TOBESTRIPPEDOpen SansTOBESTRIPPED, verdana, arial, sans-serif; font-size: 12px; fill: rgb(68, 68, 68); fill-opacity: 1; white-space: pre; opacity: 1; --darkreader-inline-fill: #bdb7af;" transform="translate(797.5,0)" data-darkreader-inline-fill="">5k</text></g><g class="xtick"><text text-anchor="middle" x="0" y="259" style="font-family: TOBESTRIPPEDOpen SansTOBESTRIPPED, verdana, arial, sans-serif; font-size: 12px; fill: rgb(68, 68, 68); fill-opacity: 1; white-space: pre; opacity: 1; --darkreader-inline-fill: #bdb7af;" transform="translate(945,0)" data-darkreader-inline-fill="">6k</text></g><g class="xtick"><text text-anchor="middle" x="0" y="259" style="font-family: TOBESTRIPPEDOpen SansTOBESTRIPPED, verdana, arial, sans-serif; font-size: 12px; fill: rgb(68, 68, 68); fill-opacity: 1; white-space: pre; opacity: 1; --darkreader-inline-fill: #bdb7af;" transform="translate(1092.5,0)" data-darkreader-inline-fill="">7k</text></g><g class="xtick"><text text-anchor="middle" x="0" y="259" style="font-family: TOBESTRIPPEDOpen SansTOBESTRIPPED, verdana, arial, sans-serif; font-size: 12px; fill: rgb(68, 68, 68); fill-opacity: 1; white-space: pre; opacity: 1; --darkreader-inline-fill: #bdb7af;" transform="translate(1240,0)" data-darkreader-inline-fill="">8k</text></g><g class="xtick"><text text-anchor="middle" x="0" y="259" style="font-family: TOBESTRIPPEDOpen SansTOBESTRIPPED, verdana, arial, sans-serif; font-size: 12px; fill: rgb(68, 68, 68); fill-opacity: 1; white-space: pre; opacity: 1; --darkreader-inline-fill: #bdb7af;" transform="translate(1387.5,0)" data-darkreader-inline-fill="">9k</text></g><g class="xtick"><text text-anchor="middle" x="0" y="259" style="font-family: TOBESTRIPPEDOpen SansTOBESTRIPPED, verdana, arial, sans-serif; font-size: 12px; fill: rgb(68, 68, 68); fill-opacity: 1; white-space: pre; opacity: 1; --darkreader-inline-fill: #bdb7af;" transform="translate(1535,0)" data-darkreader-inline-fill="">10k</text></g></g><g class="yaxislayer-above"><g class="ytick"><text text-anchor="end" x="59" y="4.199999999999999" style="font-family: TOBESTRIPPEDOpen SansTOBESTRIPPED, verdana, arial, sans-serif; font-size: 12px; fill: rgb(68, 68, 68); fill-opacity: 1; white-space: pre; opacity: 1; --darkreader-inline-fill: #bdb7af;" transform="translate(0,236.9)" data-darkreader-inline-fill="">0</text></g><g class="ytick"><text text-anchor="end" x="59" y="4.199999999999999" style="font-family: TOBESTRIPPEDOpen SansTOBESTRIPPED, verdana, arial, sans-serif; font-size: 12px; fill: rgb(68, 68, 68); fill-opacity: 1; white-space: pre; opacity: 1; --darkreader-inline-fill: #bdb7af;" transform="translate(0,203.38)" data-darkreader-inline-fill="">0.1</text></g><g class="ytick"><text text-anchor="end" x="59" y="4.199999999999999" style="font-family: TOBESTRIPPEDOpen SansTOBESTRIPPED, verdana, arial, sans-serif; font-size: 12px; fill: rgb(68, 68, 68); fill-opacity: 1; white-space: pre; opacity: 1; --darkreader-inline-fill: #bdb7af;" transform="translate(0,169.86)" data-darkreader-inline-fill="">0.2</text></g><g class="ytick"><text text-anchor="end" x="59" y="4.199999999999999" style="font-family: TOBESTRIPPEDOpen SansTOBESTRIPPED, verdana, arial, sans-serif; font-size: 12px; fill: rgb(68, 68, 68); fill-opacity: 1; white-space: pre; opacity: 1; --darkreader-inline-fill: #bdb7af;" transform="translate(0,136.34)" data-darkreader-inline-fill="">0.3</text></g><g class="ytick"><text text-anchor="end" x="59" y="4.199999999999999" style="font-family: TOBESTRIPPEDOpen SansTOBESTRIPPED, verdana, arial, sans-serif; font-size: 12px; fill: rgb(68, 68, 68); fill-opacity: 1; white-space: pre; opacity: 1; --darkreader-inline-fill: #bdb7af;" transform="translate(0,102.82)" data-darkreader-inline-fill="">0.4</text></g><g class="ytick"><text text-anchor="end" x="59" y="4.199999999999999" style="font-family: TOBESTRIPPEDOpen SansTOBESTRIPPED, verdana, arial, sans-serif; font-size: 12px; fill: rgb(68, 68, 68); fill-opacity: 1; white-space: pre; opacity: 1; --darkreader-inline-fill: #bdb7af;" transform="translate(0,69.3)" data-darkreader-inline-fill="">0.5</text></g></g><g class="overaxes-above"/></g></g><g class="polarlayer"/><g class="smithlayer"/><g class="ternarylayer"/><g class="geolayer"/><g class="funnelarealayer"/><g class="pielayer"/><g class="iciclelayer"/><g class="treemaplayer"/><g class="sunburstlayer"/><g class="glimages"/><defs id="topdefs-0f42a4"><g class="clips"/><clipPath id="legend0f42a4"><rect width="171" height="29" x="0" y="0"/></clipPath></defs><g class="layer-above"><g class="imagelayer"/><g class="shapelayer"/></g><g class="infolayer"><g class="legend" pointer-events="all" transform="translate(1564.5,60)"><rect class="bg" shape-rendering="crispEdges" style="stroke: rgb(68, 68, 68); stroke-opacity: 1; fill: rgb(255, 255, 255); fill-opacity: 1; stroke-width: 0px; --darkreader-inline-stroke: #bdb7af; --darkreader-inline-fill: #e8e6e3;" width="171" height="29" x="0" y="0" data-darkreader-inline-stroke="" data-darkreader-inline-fill=""/><g class="scrollbox" transform="" clip-path="url(#legend0f42a4)"><g class="groups"><g class="traces" style="opacity: 1;" transform="translate(0,14.5)"><text class="legendtext" text-anchor="start" style="font-family: TOBESTRIPPEDOpen SansTOBESTRIPPED, verdana, arial, sans-serif; font-size: 12px; fill: rgb(68, 68, 68); fill-opacity: 1; white-space: pre; --darkreader-inline-fill: #bdb7af;" x="40" y="4.680000000000001" data-darkreader-inline-fill="">meta_training_loss</text><g class="layers" style="opacity: 1;"><g class="legendfill"/><g class="legendlines"><path class="js-line" d="M5,0h30" style="fill: none; stroke: rgb(31, 119, 180); stroke-opacity: 1; stroke-width: 2px; --darkreader-inline-fill: none; --darkreader-inline-stroke: #55a8e2;" data-darkreader-inline-fill="" data-darkreader-inline-stroke=""/></g><g class="legendsymbols"><g class="legendpoints"/></g></g><rect class="legendtoggle" style="fill: rgb(0, 0, 0); fill-opacity: 0; --darkreader-inline-fill: #e8e6e3;" x="0" y="-9.5" width="166" height="19" data-darkreader-inline-fill=""/></g></g></g><rect class="scrollbar" rx="20" ry="3" width="0" height="0" style="fill: rgb(128, 139, 164); fill-opacity: 1; --darkreader-inline-fill: #a39b8f;" x="0" y="0" data-darkreader-inline-fill=""/></g><g class="g-gtitle"><text class="gtitle" style="font-family: TOBESTRIPPEDOpen SansTOBESTRIPPED, verdana, arial, sans-serif; font-size: 17px; fill: rgb(68, 68, 68); opacity: 1; font-weight: normal; white-space: pre; --darkreader-inline-fill: #bdb7af;" x="873.5" y="30" text-anchor="middle" dy="0em" data-darkreader-inline-fill="">meta_training_loss</text></g><g class="g-xtitle"/><g class="g-ytitle"/></g></svg>