<svg class="main-svg" xmlns="http://www.w3.org/2000/svg" xmlns:xlink="http://www.w3.org/1999/xlink" width="1747" height="366" style="--darkreader-inline-bgcolor: #181a1b; --darkreader-inline-bgimage: none;" data-darkreader-inline-bgcolor="" data-darkreader-inline-bgimage="" viewBox="0 0 1747 366"><rect x="0" y="0" width="1747" height="366" style="fill: rgb(255, 255, 255); fill-opacity: 1;"/><defs id="defs-b1a7e4"><g class="clips"><clipPath id="clipb1a7e4xyplot" class="plotclip"><rect width="1479" height="246"/></clipPath><clipPath class="axesclip" id="clipb1a7e4x"><rect x="60" y="0" width="1479" height="366"/></clipPath><clipPath class="axesclip" id="clipb1a7e4y"><rect x="0" y="60" width="1747" height="246"/></clipPath><clipPath class="axesclip" id="clipb1a7e4xy"><rect x="60" y="60" width="1479" height="246"/></clipPath></g><g class="gradients"/><g class="patterns"/></defs><g class="bglayer"/><g class="layer-below"><g class="imagelayer"/><g class="shapelayer"/></g><g class="cartesianlayer"><g class="subplot xy"><g class="layer-subplot"><g class="shapelayer"/><g class="imagelayer"/></g><g class="gridlayer"><g class="x"><path class="xgrid crisp" transform="translate(207.9,0)" d="M0,60v246" style="stroke: rgb(238, 238, 238); stroke-opacity: 1; stroke-width: 1px; --darkreader-inline-stroke: #dddad6;" data-darkreader-inline-stroke=""/><path class="xgrid crisp" transform="translate(355.8,0)" d="M0,60v246" style="stroke: rgb(238, 238, 238); stroke-opacity: 1; stroke-width: 1px; --darkreader-inline-stroke: #dddad6;" data-darkreader-inline-stroke=""/><path class="xgrid crisp" transform="translate(503.7,0)" d="M0,60v246" style="stroke: rgb(238, 238, 238); stroke-opacity: 1; stroke-width: 1px; --darkreader-inline-stroke: #dddad6;" data-darkreader-inline-stroke=""/><path class="xgrid crisp" transform="translate(651.6,0)" d="M0,60v246" style="stroke: rgb(238, 238, 238); stroke-opacity: 1; stroke-width: 1px; --darkreader-inline-stroke: #dddad6;" data-darkreader-inline-stroke=""/><path class="xgrid crisp" transform="translate(799.5,0)" d="M0,60v246" style="stroke: rgb(238, 238, 238); stroke-opacity: 1; stroke-width: 1px; --darkreader-inline-stroke: #dddad6;" data-darkreader-inline-stroke=""/><path class="xgrid crisp" transform="translate(947.4,0)" d="M0,60v246" style="stroke: rgb(238, 238, 238); stroke-opacity: 1; stroke-width: 1px; --darkreader-inline-stroke: #dddad6;" data-darkreader-inline-stroke=""/><path class="xgrid crisp" transform="translate(1095.3,0)" d="M0,60v246" style="stroke: rgb(238, 238, 238); stroke-opacity: 1; stroke-width: 1px; --darkreader-inline-stroke: #dddad6;" data-darkreader-inline-stroke=""/><path class="xgrid crisp" transform="translate(1243.2,0)" d="M0,60v246" style="stroke: rgb(238, 238, 238); stroke-opacity: 1; stroke-width: 1px; --darkreader-inline-stroke: #dddad6;" data-darkreader-inline-stroke=""/><path class="xgrid crisp" transform="translate(1391.1,0)" d="M0,60v246" style="stroke: rgb(238, 238, 238); stroke-opacity: 1; stroke-width: 1px; --darkreader-inline-stroke: #dddad6;" data-darkreader-inline-stroke=""/></g><g class="y"><path class="ygrid crisp" transform="translate(0,247.6)" d="M60,0h1479" style="stroke: rgb(238, 238, 238); stroke-opacity: 1; stroke-width: 1px; --darkreader-inline-stroke: #dddad6;" data-darkreader-inline-stroke=""/><path class="ygrid crisp" transform="translate(0,201.5)" d="M60,0h1479" style="stroke: rgb(238, 238, 238); stroke-opacity: 1; stroke-width: 1px; --darkreader-inline-stroke: #dddad6;" data-darkreader-inline-stroke=""/><path class="ygrid crisp" transform="translate(0,155.4)" d="M60,0h1479" style="stroke: rgb(238, 238, 238); stroke-opacity: 1; stroke-width: 1px; --darkreader-inline-stroke: #dddad6;" data-darkreader-inline-stroke=""/><path class="ygrid crisp" transform="translate(0,109.3)" d="M60,0h1479" style="stroke: rgb(238, 238, 238); stroke-opacity: 1; stroke-width: 1px; --darkreader-inline-stroke: #dddad6;" data-darkreader-inline-stroke=""/><path class="ygrid crisp" transform="translate(0,63.2)" d="M60,0h1479" style="stroke: rgb(238, 238, 238); stroke-opacity: 1; stroke-width: 1px; --darkreader-inline-stroke: #dddad6;" data-darkreader-inline-stroke=""/></g></g><g class="zerolinelayer"><path class="xzl zl crisp" transform="translate(60,0)" d="M0,60v246" style="stroke: rgb(68, 68, 68); stroke-opacity: 1; stroke-width: 1px; --darkreader-inline-stroke: #bdb7af;" data-darkreader-inline-stroke=""/><path class="yzl zl crisp" transform="translate(0,293.7)" d="M60,0h1479" style="stroke: rgb(68, 68, 68); stroke-opacity: 1; stroke-width: 1px; --darkreader-inline-stroke: #bdb7af;" data-darkreader-inline-stroke=""/></g><path class="xlines-below"/><path class="ylines-below"/><g class="overlines-below"/><g class="xaxislayer-below"/><g class="yaxislayer-below"/><g class="overaxes-below"/><g class="plot" transform="translate(60,60)" clip-path="url(#clipb1a7e4xyplot)"><g class="scatterlayer mlayer"><g class="trace scatter trace3dbbb7" style="stroke-miterlimit: 2; opacity: 1;"><g class="fills"/><g class="errorbars"/><g class="lines"><path class="js-line" style="vector-effect: non-scaling-stroke; fill: none; stroke: rgb(31, 119, 180); stroke-opacity: 1; stroke-width: 2px; opacity: 1; --darkreader-inline-fill: none; --darkreader-inline-stroke: #55a8e2;" d="M0,233.7L2.96,224.6L5.92,222.18L8.87,217.93L11.83,220.36L14.79,223.99L17.75,216.11L20.71,222.78L23.66,220.36L26.62,226.42L29.58,224.6L32.54,220.36L35.5,223.99L38.45,217.32L41.41,224.6L44.37,219.14L47.33,223.39L50.29,217.93L53.24,223.39L56.2,216.72L59.16,219.14L62.12,219.75L65.08,219.14L68.03,219.14L70.99,217.93L73.95,217.93L76.91,214.9L79.87,217.93L82.82,209.44L85.78,208.22L88.74,214.9L91.7,213.68L94.66,214.9L97.61,206.4L100.57,208.83L103.53,208.83L106.49,207.62L109.45,203.37L112.4,203.37L115.36,191.85L118.32,194.88L121.28,192.45L124.24,180.93L127.19,187.6L130.15,174.26L133.11,183.35L136.07,176.68L139.03,177.29L141.98,184.57L144.94,173.04L147.9,171.83L150.86,170.01L153.82,151.81L156.77,150.6L159.73,160.91L162.69,160.91L165.65,154.85L168.61,147.57L171.56,149.39L174.52,131.8L177.48,121.48L180.44,125.12L183.4,149.39L189.31,114.2L192.27,116.02L195.23,151.81L198.19,120.27L201.14,114.2L204.1,105.71L207.06,131.8L210.02,120.88L212.98,103.89L215.93,110.57L218.89,126.34L221.85,98.43L224.81,126.34L227.77,100.86L230.72,115.42L233.68,113.6L236.64,94.79L239.6,116.63L242.56,116.02L245.51,114.2L248.47,91.15L251.43,91.76L254.39,106.93L257.35,106.32L263.26,126.34L266.22,90.55L269.18,100.86L272.14,83.27L275.09,104.5L278.05,116.02L281.01,92.37L283.97,102.07L286.93,104.5L289.88,98.43L298.76,80.84L301.72,79.63L304.67,82.06L307.63,99.65L310.59,117.24L313.55,120.88L316.51,109.35L319.46,82.66L322.42,109.35L325.38,85.09L328.34,80.24L331.3,111.78L334.25,115.42L337.21,89.34L340.17,78.42L343.13,75.99L349.04,102.07L352,77.81L354.96,92.37L357.92,130.58L360.88,93.58L363.83,71.74L366.79,88.73L369.75,128.16L375.67,54.76L378.62,69.92L381.58,63.86L384.54,65.68L387.5,69.92L390.46,93.58L393.41,68.71L396.37,101.47L399.33,95.4L402.29,99.65L405.25,63.86L408.2,95.4L411.16,87.52L414.12,62.04L417.08,113.6L420.04,66.29L422.99,88.12L425.95,99.65L428.91,51.12L431.87,97.83L434.83,75.99L437.78,60.83L440.74,65.68L443.7,62.65L446.66,62.04L449.62,79.02L452.57,78.42L455.53,66.89L458.49,87.52L461.45,72.35L464.41,73.56L467.36,63.25L470.32,54.15L473.28,94.19L479.2,63.86L482.15,59.01L485.11,77.2L488.07,78.42L491.03,88.12L493.99,127.55L496.94,75.38L499.9,61.43L502.86,62.04L505.82,74.78L508.78,118.45L511.73,49.3L517.65,102.07L520.61,78.42L523.57,71.74L526.52,93.58L529.48,92.97L532.44,60.83L535.4,85.7L538.36,60.22L541.31,57.79L544.27,48.09L547.23,90.55L550.19,73.56L553.15,70.53L556.1,59.01L559.06,71.74L562.02,78.42L564.98,89.34L567.94,69.92L570.89,66.89L573.85,51.12L576.81,79.63L579.77,75.99L582.73,71.74L585.68,52.33L588.64,77.2L591.6,48.69L594.56,75.38L597.52,67.5L600.47,58.4L603.43,74.78L609.35,65.07L612.31,54.15L615.26,74.17L618.22,48.09L621.18,46.27L624.14,48.69L627.1,79.02L630.05,99.04L633.01,57.79L635.97,71.74L638.93,45.66L641.89,69.32L644.84,59.01L647.8,55.37L650.76,71.74L653.72,79.02L656.68,38.99L659.63,52.33L662.59,57.19L665.55,84.48L668.51,55.37L671.47,52.33L674.42,33.53L677.38,45.06L680.34,48.69L683.3,63.86L686.26,46.87L689.21,103.89L692.17,54.76L695.13,20.79L698.09,63.86L701.05,45.06L704,45.06L706.96,60.22L709.92,51.12L712.88,90.55L715.84,46.27L718.79,75.38L721.75,42.02L724.71,83.27L727.67,66.89L730.63,68.71L733.58,71.74L736.54,80.84L739.5,76.6L742.46,54.76L745.42,59.01L748.37,45.06L751.33,55.37L754.29,35.35L757.25,61.43L760.21,69.32L763.16,39.6L766.12,49.91L769.08,29.28L772.04,45.06L775,75.38L777.95,52.94L780.91,68.1L783.87,48.09L786.83,42.02L789.79,55.97L792.74,76.6L795.7,66.89L798.66,54.76L801.62,72.96L804.58,43.84L807.53,64.47L810.49,50.51L813.45,66.89L816.41,59.61L819.37,77.2L822.32,49.3L825.28,84.48L828.24,35.96L831.2,68.1L834.16,92.37L837.11,57.19L840.07,40.81L843.03,60.22L845.99,35.96L848.95,58.4L851.9,43.24L854.86,51.12L857.82,38.99L860.78,48.69L863.74,51.12L866.69,43.84L869.65,62.65L872.61,75.38L875.57,75.38L878.53,43.84L881.48,65.07L884.44,65.07L887.4,65.68L890.36,50.51L893.32,52.33L896.27,76.6L899.23,100.25L902.19,54.15L905.15,61.43L908.11,48.09L911.06,20.79L914.02,49.91L916.98,54.76L919.94,57.19L922.9,63.86L925.85,63.86L928.81,39.6L931.77,80.24L934.73,72.35L937.69,56.58L940.64,70.53L943.6,43.84L946.56,74.78L949.52,57.79L952.48,85.7L955.43,46.87L958.39,37.17L961.35,60.83L964.31,26.25L967.27,54.15L970.22,28.68L973.18,45.66L976.14,42.02L979.1,56.58L982.06,84.48L985.01,32.32L987.97,62.65L990.93,69.92L993.89,49.91L996.85,57.79L999.8,52.33L1002.76,57.19L1005.72,40.81L1008.68,72.35L1011.64,34.74L1014.59,79.02L1017.55,56.58L1020.51,45.66L1023.47,68.71L1026.43,45.06L1029.38,75.38L1032.34,38.99L1035.3,27.46L1038.26,33.53L1041.22,55.97L1044.17,63.86L1047.13,57.19L1050.09,68.71L1053.05,59.61L1056.01,42.02L1058.96,48.69L1061.92,48.69L1064.88,64.47L1067.84,73.56L1070.8,60.22L1073.75,35.35L1076.71,50.51L1079.67,42.02L1082.63,46.27L1085.59,56.58L1088.54,33.53L1091.5,44.45L1094.46,41.42L1097.42,48.09L1100.38,54.15L1103.33,48.09L1106.29,57.79L1109.25,22.61L1112.21,64.47L1115.17,66.89L1118.12,51.73L1121.08,52.94L1124.04,56.58L1127,72.35L1129.96,28.68L1132.91,59.61L1135.87,38.38L1138.83,71.74L1141.79,96.01L1144.75,50.51L1147.7,40.81L1150.66,91.15L1153.62,57.79L1156.58,62.04L1159.54,41.42L1162.49,49.91L1165.45,52.94L1168.41,59.01L1171.37,53.55L1174.33,82.06L1180.24,48.69L1183.2,41.42L1186.16,34.74L1189.12,31.1L1192.07,25.04L1195.03,71.14L1197.99,75.38L1200.95,62.65L1203.91,58.4L1206.86,59.61L1209.82,32.32L1212.78,51.12L1215.74,29.89L1218.7,25.64L1221.65,40.81L1224.61,114.2L1227.57,59.61L1230.53,55.37L1233.49,48.09L1236.44,54.76L1239.4,60.83L1242.36,62.65L1245.32,30.5L1248.28,55.37L1251.23,20.79L1254.19,48.09L1257.15,49.91L1260.11,65.07L1263.07,60.22L1266.02,51.12L1268.98,65.07L1271.94,52.33L1274.9,68.1L1277.86,59.61L1280.81,97.22L1283.77,93.58L1286.73,25.64L1289.69,59.61L1292.65,14.73L1295.6,63.86L1298.56,38.99L1301.52,40.81L1304.48,57.79L1307.44,57.79L1310.39,48.09L1313.35,30.5L1316.31,57.19L1319.27,62.04L1322.23,22.61L1325.18,12.3L1331.1,49.91L1334.06,16.55L1337.02,52.33L1339.97,53.55L1342.93,59.61L1345.89,43.84L1348.85,44.45L1351.81,66.89L1354.76,69.32L1357.72,37.78L1360.68,43.84L1363.64,52.33L1366.6,31.1L1369.55,49.3L1372.51,33.53L1375.47,79.02L1378.43,56.58L1381.39,40.2L1384.34,51.12L1387.3,58.4L1390.26,35.96L1393.22,36.56L1399.13,59.01L1402.09,39.6L1405.05,69.92L1408.01,26.25L1410.97,35.96L1413.92,51.73L1416.88,47.48L1419.84,57.19L1422.8,63.25L1425.76,52.94L1428.71,57.79L1431.67,49.91L1434.63,68.71L1437.59,51.73L1440.55,60.22L1443.5,48.69L1446.46,44.45L1449.42,55.97L1452.38,51.73L1455.34,35.35L1458.29,42.63L1461.25,36.56L1464.21,25.64L1467.17,53.55L1470.13,40.2L1473.08,32.32L1476.04,34.14L1479,74.17" data-darkreader-inline-fill="" data-darkreader-inline-stroke=""/></g><g class="points"/><g class="text"/></g></g></g><g class="overplot"/><path class="xlines-above crisp" style="fill: none; --darkreader-inline-fill: none;" d="M0,0" data-darkreader-inline-fill=""/><path class="ylines-above crisp" style="fill: none; --darkreader-inline-fill: none;" d="M0,0" data-darkreader-inline-fill=""/><g class="overlines-above"/><g class="xaxislayer-above"><g class="xtick"><text text-anchor="middle" x="0" y="319" style="font-family: TOBESTRIPPEDOpen SansTOBESTRIPPED, verdana, arial, sans-serif; font-size: 12px; fill: rgb(68, 68, 68); fill-opacity: 1; white-space: pre; opacity: 1; --darkreader-inline-fill: #bdb7af;" transform="translate(60,0)" data-darkreader-inline-fill="">0</text></g><g class="xtick"><text text-anchor="middle" x="0" y="319" style="font-family: TOBESTRIPPEDOpen SansTOBESTRIPPED, verdana, arial, sans-serif; font-size: 12px; fill: rgb(68, 68, 68); fill-opacity: 1; white-space: pre; opacity: 1; --darkreader-inline-fill: #bdb7af;" transform="translate(207.9,0)" data-darkreader-inline-fill="">1k</text></g><g class="xtick"><text text-anchor="middle" x="0" y="319" style="font-family: TOBESTRIPPEDOpen SansTOBESTRIPPED, verdana, arial, sans-serif; font-size: 12px; fill: rgb(68, 68, 68); fill-opacity: 1; white-space: pre; opacity: 1; --darkreader-inline-fill: #bdb7af;" transform="translate(355.8,0)" data-darkreader-inline-fill="">2k</text></g><g class="xtick"><text text-anchor="middle" x="0" y="319" style="font-family: TOBESTRIPPEDOpen SansTOBESTRIPPED, verdana, arial, sans-serif; font-size: 12px; fill: rgb(68, 68, 68); fill-opacity: 1; white-space: pre; opacity: 1; --darkreader-inline-fill: #bdb7af;" transform="translate(503.7,0)" data-darkreader-inline-fill="">3k</text></g><g class="xtick"><text text-anchor="middle" x="0" y="319" style="font-family: TOBESTRIPPEDOpen SansTOBESTRIPPED, verdana, arial, sans-serif; font-size: 12px; fill: rgb(68, 68, 68); fill-opacity: 1; white-space: pre; opacity: 1; --darkreader-inline-fill: #bdb7af;" transform="translate(651.6,0)" data-darkreader-inline-fill="">4k</text></g><g class="xtick"><text text-anchor="middle" x="0" y="319" style="font-family: TOBESTRIPPEDOpen SansTOBESTRIPPED, verdana, arial, sans-serif; font-size: 12px; fill: rgb(68, 68, 68); fill-opacity: 1; white-space: pre; opacity: 1; --darkreader-inline-fill: #bdb7af;" transform="translate(799.5,0)" data-darkreader-inline-fill="">5k</text></g><g class="xtick"><text text-anchor="middle" x="0" y="319" style="font-family: TOBESTRIPPEDOpen SansTOBESTRIPPED, verdana, arial, sans-serif; font-size: 12px; fill: rgb(68, 68, 68); fill-opacity: 1; white-space: pre; opacity: 1; --darkreader-inline-fill: #bdb7af;" transform="translate(947.4,0)" data-darkreader-inline-fill="">6k</text></g><g class="xtick"><text text-anchor="middle" x="0" y="319" style="font-family: TOBESTRIPPEDOpen SansTOBESTRIPPED, verdana, arial, sans-serif; font-size: 12px; fill: rgb(68, 68, 68); fill-opacity: 1; white-space: pre; opacity: 1; --darkreader-inline-fill: #bdb7af;" transform="translate(1095.3,0)" data-darkreader-inline-fill="">7k</text></g><g class="xtick"><text text-anchor="middle" x="0" y="319" style="font-family: TOBESTRIPPEDOpen SansTOBESTRIPPED, verdana, arial, sans-serif; font-size: 12px; fill: rgb(68, 68, 68); fill-opacity: 1; white-space: pre; opacity: 1; --darkreader-inline-fill: #bdb7af;" transform="translate(1243.2,0)" data-darkreader-inline-fill="">8k</text></g><g class="xtick"><text text-anchor="middle" x="0" y="319" style="font-family: TOBESTRIPPEDOpen SansTOBESTRIPPED, verdana, arial, sans-serif; font-size: 12px; fill: rgb(68, 68, 68); fill-opacity: 1; white-space: pre; opacity: 1; --darkreader-inline-fill: #bdb7af;" transform="translate(1391.1,0)" data-darkreader-inline-fill="">9k</text></g><g class="xtick"><text text-anchor="middle" x="0" y="319" style="font-family: TOBESTRIPPEDOpen SansTOBESTRIPPED, verdana, arial, sans-serif; font-size: 12px; fill: rgb(68, 68, 68); fill-opacity: 1; white-space: pre; opacity: 1; --darkreader-inline-fill: #bdb7af;" transform="translate(1539,0)" data-darkreader-inline-fill="">10k</text></g></g><g class="yaxislayer-above"><g class="ytick"><text text-anchor="end" x="59" y="4.199999999999999" style="font-family: TOBESTRIPPEDOpen SansTOBESTRIPPED, verdana, arial, sans-serif; font-size: 12px; fill: rgb(68, 68, 68); fill-opacity: 1; white-space: pre; opacity: 1; --darkreader-inline-fill: #bdb7af;" transform="translate(0,293.7)" data-darkreader-inline-fill="">0</text></g><g class="ytick"><text text-anchor="end" x="59" y="4.199999999999999" style="font-family: TOBESTRIPPEDOpen SansTOBESTRIPPED, verdana, arial, sans-serif; font-size: 12px; fill: rgb(68, 68, 68); fill-opacity: 1; white-space: pre; opacity: 1; --darkreader-inline-fill: #bdb7af;" transform="translate(0,247.6)" data-darkreader-inline-fill="">20</text></g><g class="ytick"><text text-anchor="end" x="59" y="4.199999999999999" style="font-family: TOBESTRIPPEDOpen SansTOBESTRIPPED, verdana, arial, sans-serif; font-size: 12px; fill: rgb(68, 68, 68); fill-opacity: 1; white-space: pre; opacity: 1; --darkreader-inline-fill: #bdb7af;" transform="translate(0,201.5)" data-darkreader-inline-fill="">40</text></g><g class="ytick"><text text-anchor="end" x="59" y="4.199999999999999" style="font-family: TOBESTRIPPEDOpen SansTOBESTRIPPED, verdana, arial, sans-serif; font-size: 12px; fill: rgb(68, 68, 68); fill-opacity: 1; white-space: pre; opacity: 1; --darkreader-inline-fill: #bdb7af;" transform="translate(0,155.4)" data-darkreader-inline-fill="">60</text></g><g class="ytick"><text text-anchor="end" x="59" y="4.199999999999999" style="font-family: TOBESTRIPPEDOpen SansTOBESTRIPPED, verdana, arial, sans-serif; font-size: 12px; fill: rgb(68, 68, 68); fill-opacity: 1; white-space: pre; opacity: 1; --darkreader-inline-fill: #bdb7af;" transform="translate(0,109.3)" data-darkreader-inline-fill="">80</text></g><g class="ytick"><text text-anchor="end" x="59" y="4.199999999999999" style="font-family: TOBESTRIPPEDOpen SansTOBESTRIPPED, verdana, arial, sans-serif; font-size: 12px; fill: rgb(68, 68, 68); fill-opacity: 1; white-space: pre; opacity: 1; --darkreader-inline-fill: #bdb7af;" transform="translate(0,63.2)" data-darkreader-inline-fill="">100</text></g></g><g class="overaxes-above"/></g></g><g class="polarlayer"/><g class="smithlayer"/><g class="ternarylayer"/><g class="geolayer"/><g class="funnelarealayer"/><g class="pielayer"/><g class="iciclelayer"/><g class="treemaplayer"/><g class="sunburstlayer"/><g class="glimages"/><defs id="topdefs-b1a7e4"><g class="clips"/><clipPath id="legendb1a7e4"><rect width="166" height="29" x="0" y="0"/></clipPath></defs><g class="layer-above"><g class="imagelayer"/><g class="shapelayer"/></g><g class="infolayer"><g class="legend" pointer-events="all" transform="translate(1568.58,60)"><rect class="bg" shape-rendering="crispEdges" style="stroke: rgb(68, 68, 68); stroke-opacity: 1; fill: rgb(255, 255, 255); fill-opacity: 1; stroke-width: 0px; --darkreader-inline-stroke: #bdb7af; --darkreader-inline-fill: #e8e6e3;" width="166" height="29" x="0" y="0" data-darkreader-inline-stroke="" data-darkreader-inline-fill=""/><g class="scrollbox" transform="" clip-path="url(#legendb1a7e4)"><g class="groups"><g class="traces" style="opacity: 1;" transform="translate(0,14.5)"><text class="legendtext" text-anchor="start" style="font-family: TOBESTRIPPEDOpen SansTOBESTRIPPED, verdana, arial, sans-serif; font-size: 12px; fill: rgb(68, 68, 68); fill-opacity: 1; white-space: pre; --darkreader-inline-fill: #bdb7af;" x="40" y="4.680000000000001" data-darkreader-inline-fill="">meta_training_acc</text><g class="layers" style="opacity: 1;"><g class="legendfill"/><g class="legendlines"><path class="js-line" d="M5,0h30" style="fill: none; stroke: rgb(31, 119, 180); stroke-opacity: 1; stroke-width: 2px; --darkreader-inline-fill: none; --darkreader-inline-stroke: #55a8e2;" data-darkreader-inline-fill="" data-darkreader-inline-stroke=""/></g><g class="legendsymbols"><g class="legendpoints"/></g></g><rect class="legendtoggle" style="fill: rgb(0, 0, 0); fill-opacity: 0; --darkreader-inline-fill: #e8e6e3;" x="0" y="-9.5" width="161" height="19" data-darkreader-inline-fill=""/></g></g></g><rect class="scrollbar" rx="20" ry="3" width="0" height="0" style="fill: rgb(128, 139, 164); fill-opacity: 1; --darkreader-inline-fill: #a39b8f;" x="0" y="0" data-darkreader-inline-fill=""/></g><g class="g-gtitle"><text class="gtitle" style="font-family: TOBESTRIPPEDOpen SansTOBESTRIPPED, verdana, arial, sans-serif; font-size: 17px; fill: rgb(68, 68, 68); opacity: 1; font-weight: normal; white-space: pre; --darkreader-inline-fill: #bdb7af;" x="873.5" y="30" text-anchor="middle" dy="0em" data-darkreader-inline-fill="">meta_training_acc</text></g><g class="g-xtitle"/><g class="g-ytitle"/></g></svg>